<?xml version="1.0" encoding="UTF-8"?> <svg xmlns="http://www.w3.org/2000/svg" xmlns:xlink="http://www.w3.org/1999/xlink" width="459.9" height="243.477" viewBox="0 0 459.9 243.477"><defs><clipPath id="clip-path"><path id="path954" d="M0-666.665H279.343v224.6H0Z" transform="translate(0 666.665)"></path></clipPath><clipPath id="clip-path-2"><path id="path378" d="M275.1-341.652h2.737v1.592H275.1Z" transform="translate(-275.095 341.652)"></path></clipPath><clipPath id="clip-path-3"><path id="path394" d="M259.751-344.511h2.9v1.1h-2.9Z" transform="translate(-259.751 344.511)"></path></clipPath><clipPath id="clip-path-4"><path id="path766" d="M514.456-345.306h3.272v1.589h-3.272Z" transform="translate(-514.456 345.306)"></path></clipPath><clipPath id="clip-path-5"><path id="path782" d="M500.576-345.371h2.776v1.386h-2.776Z" transform="translate(-500.576 345.371)"></path></clipPath></defs><g id="happiness" transform="translate(-0.586 -0.338)"><g id="Frame_81" data-name="Frame 81" transform="translate(0.586 0.338)"><rect id="Frame_81-2" data-name="Frame 81" width="459.9" height="243.476" transform="translate(0 0)" fill="#ffeae7"></rect></g><g id="g12" transform="translate(45.456 55.967)"><g id="Group_52" data-name="Group 52" transform="translate(0)"><g id="g28" transform="translate(0 27.618)"><path id="path30" d="M-16.872-114c-4.757-5.556-9.653-11.371-11.52-18.444s.269-15.773,6.76-19.146c7.583-3.94,16.6.819,23.784,5.446C-.9-154.588-3.17-163.556-2.214-172.483s5.625-17.842,13.578-22.007c3.062-1.6,6.82-2.433,9.955-.978,5.031,2.335,6,9.12,5.118,14.6s-2.91,11.108-1.279,16.41c3.255-1.067,5.228-4.713,8.555-5.528,4.326-1.06,8.328,3.6,8.379,8.05s-2.518,8.461-4.991,12.165c10.532-11.583,29.682-14.073,42.825-5.566s17.639,26.483,11.386,40.835Z" transform="translate(29.041 196.221)" fill="#b1b1e5"></path></g><g id="g32" transform="translate(204.449)"><path id="path34" d="M-22.5-152c-6.342-7.408-12.87-15.162-15.359-24.591s.358-21.031,9.012-25.527c10.111-5.253,22.132,1.091,31.712,7.26-4.07-11.256-7.1-23.214-5.82-35.115s7.5-23.789,18.1-29.342c4.081-2.138,9.094-3.244,13.273-1.3,6.708,3.114,8,12.16,6.823,19.461s-3.88,14.81-1.7,21.878c4.34-1.422,6.97-6.283,11.406-7.37,5.767-1.413,11.1,4.8,11.17,10.734s-3.357,11.28-6.653,16.22c14.041-15.444,39.575-18.763,57.1-7.422s23.519,35.31,15.181,54.446Z" transform="translate(38.72 261.623)" fill="#b1b1e5"></path></g><g id="g36" transform="translate(243.846 18.089)"><path id="path38" d="M-22.16-120.435a21.447,21.447,0,0,1,4.4,4.675H14.627a4.139,4.139,0,0,0-2.318-4.4c-1.887-.8-4.03-.066-6.077.047s-4.607-1.045-4.45-3.089c.171-2.216,3.1-2.8,5.318-2.917a48.54,48.54,0,0,0,15.345-3.39c3.812-1.525,7.627-3.729,9.566-7.347s1.191-8.9-2.458-10.783c-5.192-2.676-11.3,2.855-17.043,1.788a3.9,3.9,0,0,1-2.493-1.358C8.758-148.933,10-151.331,11.328-153c4.577-5.718,10.4-10.293,15.574-15.473s9.874-11.285,11.284-18.472-1.305-15.583-7.83-18.909c-7.089-3.614-16.181-.035-21.18,6.155s-6.805,14.312-8.094,22.164-2.274,15.961-6.036,22.973a4.586,4.586,0,0,1-1.254,1.632c-2.21,1.587-4.99-1.155-6.042-3.663s-2.538-5.7-5.249-5.478c-1.987.166-3.283,2.345-3.285,4.338s.913,3.855,1.648,5.708a34.3,34.3,0,0,1,1.275,21.214c-4-.613-6.327-4.654-9.007-7.68s-7.958-5.1-10.4-1.879c-1.592,2.1-.781,5.165.617,7.4,3.409,5.448,9.48,8.507,14.491,12.532" transform="translate(38.142 207.295)" fill="#f6daff"></path></g><g id="g40" transform="translate(271.216 20.682)"><path id="path42" d="M-1.213-123.323a535.615,535.615,0,0,1,38.565-88.543l-.728-.4A536.32,536.32,0,0,0-2.088-123.323Z" transform="translate(2.088 212.265)" fill="#031133"></path></g><g id="g44" transform="translate(307.786 81.836)"><path id="path46" d="M-.273-4.9A15.176,15.176,0,0,0,5.592-7.785l-.52-.648A14.331,14.331,0,0,1-.469-5.707Z" transform="translate(0.469 8.433)" fill="#031133"></path></g><g id="g48" transform="translate(278.747 85.62)"><path id="path50" d="M0-6.454a54.189,54.189,0,0,0,27.27-3.89l-.323-.765A53.362,53.362,0,0,1,.1-7.28Z" transform="translate(0 11.109)" fill="#031133"></path></g><g id="g52" transform="translate(272.224 90.606)"><path id="path54" d="M-3.53-12.281l.782-.279a78.114,78.114,0,0,1-2.519-8.578l-.809.188A79,79,0,0,0-3.53-12.281" transform="translate(6.076 21.139)" fill="#031133"></path></g><g id="g56" transform="translate(264.811 68.502)"><path id="path58" d="M-8.566-27.211l.81-.185a121.725,121.725,0,0,0-6.22-19.439l-.767.318A120.868,120.868,0,0,1-8.566-27.211" transform="translate(14.744 46.836)" fill="#031133"></path></g><g id="g60" transform="translate(288.699 108.774)"><path id="path62" d="M-7.629-1.179l.2-.03-.126-.821-5.572.85Z" transform="translate(13.131 2.029)" fill="#031133"></path></g><g id="g64" transform="translate(265.619 103.745)"><path id="path66" d="M-5.525-8.152h.9a15.154,15.154,0,0,0-4.361-5.88l-.526.642A14.317,14.317,0,0,1-5.525-8.152" transform="translate(9.509 14.032)" fill="#031133"></path></g><g id="g68" transform="translate(247.105 87.405)"><path id="path70" d="M-21.968-20.329l.66-.5c-3.559-4.653-8.255-8.24-12.8-11.709l-3.2-2.448-.5.66,3.2,2.448c4.5,3.436,9.148,6.99,12.641,11.554" transform="translate(37.812 34.991)" fill="#031133"></path></g><g id="g72" transform="translate(304.561 41.851)"><path id="path74" d="M-.568-12.242a52.94,52.94,0,0,0,9.99-7.323c.71-.661.687-1.184.544-1.506l-.759.339c.034.075-.038.268-.351.559A52.116,52.116,0,0,1-.977-12.965Z" transform="translate(0.977 21.072)" fill="#031133"></path></g><g id="g76" transform="translate(292.667 51.953)"><path id="path78" d="M-.438-7.833a64.882,64.882,0,0,0,9.628-4.945l-.44-.7A64.1,64.1,0,0,1-.755-8.6Z" transform="translate(0.755 13.483)" fill="#031133"></path></g><g id="g80" transform="translate(299.697 22.25)"><path id="path82" d="M-1.021-23.952-.2-24.1a47.306,47.306,0,0,1,.09-16.977l-.817-.153a48.137,48.137,0,0,0-.091,17.275" transform="translate(1.757 41.227)" fill="#031133"></path></g><g id="g84" transform="translate(284.508 49.81)"><path id="path86" d="M-1.3-30.828l.825-.1a122.153,122.153,0,0,1-.73-22.083l-.829-.048A122.952,122.952,0,0,0-1.3-30.828" transform="translate(2.24 53.061)" fill="#031133"></path></g><g id="g88" transform="translate(50.804 25.731)"><path id="path90" d="M-27.337-98.313c-.411,1.608-2.676,1.83-4.215,1.211s-2.992-1.74-4.647-1.617c-3.3.244-4.043,5.283-1.873,7.776,2.887,3.316,7.675,3.3,11.26,5.447h10.346A15.981,15.981,0,0,1-9.7-89.962C-4.813-91.744.637-92.51,4.669-95.8c1.653-1.349,3.072-3.487,2.4-5.512-1.034-3.106-5.62-2.889-8.462-1.266s-5.681,4.115-8.9,3.546a27.775,27.775,0,0,1,6.5-15.933,12.881,12.881,0,0,0,2.748-3.948c.517-1.529.09-3.536-1.39-4.18-2.02-.879-3.99,1.185-5.449,2.834s-4.3,3.028-5.585,1.237a3.71,3.71,0,0,1-.537-1.578c-1.06-6.354.294-12.827,1.348-19.183s1.782-13.051-.441-19.1-8.262-11.155-14.637-10.228c-5.868.853-10.135,6.584-10.922,12.461s1.224,11.78,3.847,17.1,5.894,10.34,7.915,15.915c.589,1.623.914,3.783-.5,4.775a3.161,3.161,0,0,1-2.265.392c-4.68-.675-7.924-6.505-12.6-5.8-3.287.492-5.235,4.348-4.69,7.628s2.9,5.961,5.423,8.122a39.31,39.31,0,0,0,10.884,6.591c1.669.67,3.764,1.877,3.319,3.62" transform="translate(47.053 169.219)" fill="#f6daff"></path></g><g id="g92" transform="translate(71.001 27.348)"><path id="path94" d="M-9-113.841h.673a434.245,434.245,0,0,0-6.5-82.1l-.662.117A433.57,433.57,0,0,1-9-113.841" transform="translate(15.492 195.945)" fill="#031133"></path></g><g id="g96" transform="translate(52.582 73.35)"><path id="path98" d="M-5.194-5.684A12.286,12.286,0,0,1-8.94-9.422l.568-.362A11.6,11.6,0,0,0-4.833-6.252Z" transform="translate(8.94 9.784)" fill="#031133"></path></g><g id="g100" transform="translate(57.571 78.237)"><path id="path102" d="M-27.587-14.668a43.866,43.866,0,0,1-19.9-10.075l.446-.5a43.2,43.2,0,0,0,19.59,9.921Z" transform="translate(47.483 25.247)" fill="#031133"></path></g><g id="g104" transform="translate(77.599 90.556)"><path id="path106" d="M-.731-8.79l-.527-.418A63.2,63.2,0,0,0,2.9-15.129l.572.355A63.946,63.946,0,0,1-.731-8.79" transform="translate(1.259 15.129)" fill="#031133"></path></g><g id="g108" transform="translate(83.402 75.548)"><path id="path110" d="M-.793-18.911l-.572-.353A98.6,98.6,0,0,1,8.46-32.551l.506.444a97.929,97.929,0,0,0-9.759,13.2" transform="translate(1.365 32.551)" fill="#031133"></path></g><g id="g112" transform="translate(60.443 98.961)"><path id="path114" d="M-7.773-4.86l-5.606-2.909.31-.6,5.606,2.909Z" transform="translate(13.379 8.365)" fill="#031133"></path></g><g id="g116" transform="translate(68.117 103.019)"><path id="path118" d="M-11.812-8.92h.906a23.537,23.537,0,0,0-9.181-6.433l-.244.627A22.872,22.872,0,0,1-11.812-8.92" transform="translate(20.331 15.353)" fill="#031133"></path></g><g id="g120" transform="translate(77.81 102.421)"><path id="path122" d="M-.773-6.887l-.558-.376a12.262,12.262,0,0,1,5.815-4.591l.236.63A11.588,11.588,0,0,0-.773-6.887" transform="translate(1.331 11.853)" fill="#031133"></path></g><g id="g124" transform="translate(86.138 94.715)"><path id="path126" d="M-.519-10.054l-.374-.559c3.939-2.641,8.472-4.171,12.856-5.649l3.092-1.044.215.637-3.092,1.043c-4.343,1.464-8.833,2.979-12.7,5.571" transform="translate(0.893 17.305)" fill="#031133"></path></g><g id="g128" transform="translate(61.68 42.128)"><path id="path130" d="M-8.294-13.185A42.833,42.833,0,0,1-14.049-21.4c-.372-.692-.219-1.087-.025-1.3l.493.458c-.046.049-.041.215.123.52a42.176,42.176,0,0,0,5.664,8.084Z" transform="translate(14.276 22.695)" fill="#031133"></path></g><g id="g132" transform="translate(68.956 53.341)"><path id="path134" d="M-8.452-9.32a52.553,52.553,0,0,1-6.1-6.3l.521-.426A51.89,51.89,0,0,0-8.01-9.826Z" transform="translate(14.548 16.041)" fill="#031133"></path></g><g id="g136" transform="translate(73.453 30.901)"><path id="path138" d="M-.817-18.529l-.589-.323A38.3,38.3,0,0,0,2.94-31.892l.666.095A38.975,38.975,0,0,1-.817-18.529" transform="translate(1.407 31.892)" fill="#031133"></path></g><g id="g140" transform="translate(76.468 56.061)"><path id="path142" d="M-.839-23.618l-.605-.293a98.976,98.976,0,0,0,6.3-16.741l.648.179A99.545,99.545,0,0,1-.839-23.618" transform="translate(1.444 40.652)" fill="#031133"></path></g></g></g><g id="g152" transform="translate(118.855 18.646)"><g id="Group_51" data-name="Group 51" transform="translate(0)"><g id="g160" transform="translate(135.052)"><path id="path162" d="M-11.535-42.778c3.113,1,7.428.3,10.481.3h18.3c9.392,0,19.28.9,28.623,0,6.518-.627,12.508-5.148,13.667-11.855.291-1.686.21-3.595-.936-4.865-1.826-2.026-5.121-1.337-7.657-.333-4.086,1.618-8.56,4.439-8.769,8.828l3.253-9.883a18.782,18.782,0,0,0,1.353-7.064c-.165-2.407-1.491-4.9-3.764-5.708-2.781-.988-5.815.832-7.711,3.093-3.838,4.576-4.9,10.8-5.814,16.7a13.094,13.094,0,0,0-.357-4.91,4.451,4.451,0,0,0-3.464-3.159,4.459,4.459,0,0,0-4.124,2.566,13.085,13.085,0,0,0-1.14,4.992c-.62-2.638-.016-6.132-2.4-7.425A3.9,3.9,0,0,0,13.5-60.417a11.166,11.166,0,0,0-2.167,4.445q-.439-3.9-1.115-7.759C9.6-67.285,8.5-71.26,5.3-72.928c-2.733-1.426-6.274-.553-8.541,1.536a13.616,13.616,0,0,0-3.847,8.209A6.876,6.876,0,0,0-13-66.647a6.876,6.876,0,0,0-5.885,3.516,10.416,10.416,0,0,0-.884,6.02,21.634,21.634,0,0,0,5.933,13.02,5.808,5.808,0,0,0,2.3,1.313" transform="translate(19.854 73.63)" fill="#fff"></path></g><g id="g164" transform="translate(8.373 42.454)"><path id="path166" d="M-6.765-25.089c1.826.587,4.357.175,6.147.175H10.115c5.508,0,11.308.529,16.787,0a8.786,8.786,0,0,0,8.015-6.953,3.385,3.385,0,0,0-.549-2.853c-1.072-1.188-3-.785-4.491-.2-2.4.949-5.02,2.6-5.143,5.178q.955-2.9,1.908-5.8a11.031,11.031,0,0,0,.794-4.143,3.752,3.752,0,0,0-2.208-3.348c-1.63-.58-3.41.488-4.522,1.813-2.251,2.684-2.872,6.333-3.41,9.794a7.675,7.675,0,0,0-.21-2.879,2.611,2.611,0,0,0-2.032-1.853,2.615,2.615,0,0,0-2.419,1.5,7.677,7.677,0,0,0-.669,2.928c-.364-1.546-.009-3.6-1.405-4.355a2.29,2.29,0,0,0-2.643.634,6.559,6.559,0,0,0-1.271,2.607q-.257-2.284-.654-4.55c-.365-2.084-1.007-4.416-2.883-5.394a4.547,4.547,0,0,0-5.009.9,7.984,7.984,0,0,0-2.256,4.815,4.033,4.033,0,0,0-3.469-2.032,4.033,4.033,0,0,0-3.452,2.062,6.114,6.114,0,0,0-.518,3.531,12.688,12.688,0,0,0,3.48,7.636,3.4,3.4,0,0,0,1.348.77" transform="translate(11.644 43.183)" fill="#fff"></path></g><g id="g168" transform="translate(79.75 80.55)"><path id="path170" d="M-2.258-74.62c1.415-1.325,3.711-.918,5.467-.1a18.572,18.572,0,0,1,4.114,2.686c1.006.851,2.2,1.861,3.472,1.5a2.465,2.465,0,0,0,1.6-1.858,6.013,6.013,0,0,0-.094-2.549,23.164,23.164,0,0,0-3.348-8.095c-1.4-2.143-3.038-4.416-2.7-7.148A2.963,2.963,0,0,1,8.762-92.9a3.359,3.359,0,0,1,1.636.443,13.546,13.546,0,0,1,4.83,5.04c.531.824,1.159,1.739,2.126,1.894a2.3,2.3,0,0,0,2.208-1.207,6.106,6.106,0,0,0,.672-2.564c.816-8.174-.789-16.4-.529-24.615.124-3.914.783-8.066,3.374-11,3.077-3.486,8.5-4.412,12.807-2.66a15.224,15.224,0,0,1,8.593,10.346,22.344,22.344,0,0,1-1.2,13.667,42.755,42.755,0,0,1-7.441,11.725c-1.422,1.674-3.009,3.907-1.994,5.854,1.989-.424,3.784-1.473,5.709-2.13s4.2-.872,5.872.28a5.68,5.68,0,0,1,2.177,4.55c.153,5.037-2.833,8.637-6.977,11.058a35.411,35.411,0,0,1-10.707,4.1c-1.588.327-3.638,1.061-3.523,2.678a1.938,1.938,0,0,0,1.5,1.635l-.037.042h-24A20.441,20.441,0,0,1-2.386-68.34c-2.074-2.425-1.967-4.317.128-6.28" transform="translate(3.886 128.438)" fill="#f6daff"></path></g><g id="g172" transform="translate(102.691 81.919)"><path id="path174" d="M0-87.772a391.222,391.222,0,0,1,17.426-63.3l.569.209A390.637,390.637,0,0,0,.617-87.772Z" transform="translate(0 151.074)" fill="#031133"></path></g><g id="g176" transform="translate(125.463 125.677)"><path id="path178" d="M-.318-4.335A11.066,11.066,0,0,0,3.6-7.05l-.445-.412A10.458,10.458,0,0,1-.547-4.9Z" transform="translate(0.547 7.461)" fill="#031133"></path></g><g id="g180" transform="translate(105.107 129.232)"><path id="path182" d="M-.028-8.688a39.527,39.527,0,0,0,19.257-5.748l-.316-.517A38.938,38.938,0,0,1-.048-9.293Z" transform="translate(0.048 14.953)" fill="#031133"></path></g><g id="g184" transform="translate(100.476 136.352)"><path id="path186" d="M-3.844-8.6l.535-.286a56.84,56.84,0,0,1-2.743-5.918l-.564.223A57.528,57.528,0,0,0-3.844-8.6" transform="translate(6.616 14.805)" fill="#031133"></path></g><g id="g188" transform="translate(92.757 121.207)"><path id="path190" d="M-9.069-18.825l.564-.221A88.809,88.809,0,0,0-15.09-32.4l-.52.313A88.172,88.172,0,0,1-9.069-18.825" transform="translate(15.609 32.403)" fill="#031133"></path></g><g id="g192" transform="translate(82.057 136.786)"><path id="path194" d="M-17.223-11.7a50.283,50.283,0,0,0-9.847-6.485L-29.645-19.6l.293-.531,2.575,1.42c3.629,2,7.38,4.071,10.44,7.016Z" transform="translate(29.645 20.133)" fill="#031133"></path></g><g id="g196" transform="translate(119.403 96.592)"><path id="path198" d="M-.517-10.409A38.606,38.606,0,0,0,5.9-16.771c.441-.554.368-.929.229-1.145l-.51.326c.032.051,0,.2-.193.441A38.02,38.02,0,0,1-.891-10.886Z" transform="translate(0.891 17.916)" fill="#031133"></path></g><g id="g200" transform="translate(111.562 105.32)"><path id="path202" d="M-.431-7.026a47.236,47.236,0,0,0,6.414-4.606l-.393-.461A46.672,46.672,0,0,1-.743-7.546Z" transform="translate(0.743 12.093)" fill="#031133"></path></g><g id="g204" transform="translate(113.477 84.065)"><path id="path206" d="M-2.526-17.3l.575-.193A34.507,34.507,0,0,1-3.718-29.748l-.606-.022A35.119,35.119,0,0,0-2.526-17.3" transform="translate(4.348 29.771)" fill="#031133"></path></g><g id="g208" transform="translate(105.065 105.601)"><path id="path210" d="M-4.061-22.211l.584-.163A89.1,89.1,0,0,1-6.386-38.229l-.6.055A89.739,89.739,0,0,0-4.061-22.211" transform="translate(6.989 38.229)" fill="#031133"></path></g><g id="g212" transform="translate(0 142.374)"><path id="path214" d="M-339.126-49.293H-583.709l35.426-35.551h181.606Z" transform="translate(583.709 84.844)" fill="#d0f3f7"></path></g><g id="g216" transform="translate(15.577 142.374)"><path id="path218" d="M-279.327,0h-31.727a17.45,17.45,0,0,1-3.75,3.373c-4.724,3.16-10.509,4.526-16.078,5.2a75.657,75.657,0,0,1-17.585-.018c-5.7-.648-12.626-1.6-16.887-5.839A6.47,6.47,0,0,1-367.047,0h-93.887l-19.849,19.919c5.6,1.477,11.555,1.61,17.307,1.63a55.206,55.206,0,0,0,11.305-1.125c4.492-.912,8.932-2.093,13.5-2.6.234-.026.316.251.241.42a17.5,17.5,0,0,1-2.549,3.837c-.837,1.043-2.26,2.514-1.1,3.82a7.529,7.529,0,0,0,5,1.983c3.663.151,7.366-1.316,10.733-2.589,2.65-1,5.3-1.938,8-2.794,2.8-.886,5.939-1.956,8.917-1.677,2.8.263,3.562,2.407,3.5,4.948-.045,1.974.05,3.878,2.074,4.834a9.352,9.352,0,0,0,3.976.71c6.38.005,12.778-2.521,18.688-4.681,4.018-1.469,7.982-3.078,11.966-4.638a135.961,135.961,0,0,1,14.463-5.169c7.575-2.01,14.632-.077,21.628,2.931a113.051,113.051,0,0,0,11.373,4.527,70.622,70.622,0,0,0,12.051,2.469c8.12,1,16.6.775,24.459-1.639a35.364,35.364,0,0,0,10.849-5.385,60.34,60.34,0,0,0,6.049-5.573Z" transform="translate(480.783)" fill="#abdbe2"></path></g><path id="path220" d="M288.124-66.774H44.039v-.559H288.124Z" transform="translate(-42.966 245.408)" fill="#152146"></path><g id="g222" transform="translate(213.592 146.84)"><path id="path224" d="M-30.345-44.464a.5.5,0,0,1-.285-.1l.323-.456a.145.145,0,0,0-.141.039.584.584,0,0,0-.045-.473L-52.231-76.21l.456-.322,21.737,30.758a1.047,1.047,0,0,1-.011,1.184.416.416,0,0,1-.3.126" transform="translate(52.231 76.532)" fill="#152146"></path></g><g id="g226" transform="translate(214.796 160.183)"><path id="path228" d="M-17.424-24.212c-4.34-5.556-8.568-11.325-12.567-17.145l.46-.317c3.992,5.812,8.213,11.571,12.546,17.118Z" transform="translate(29.991 41.673)" fill="#152146"></path></g><g id="g230" transform="translate(208.179 164.316)"><path id="path232" d="M-11.9-18.041c-2.666-4.33-5.555-8.6-8.585-12.678l.449-.333c3.04,4.1,5.938,8.375,8.613,12.719Z" transform="translate(20.489 31.052)" fill="#152146"></path></g><g id="g234" transform="translate(170.378 153.742)"><path id="path236" d="M-14.157-35.617-24.367-61.1l.519-.207,8.959,22.359.18-.03Z" transform="translate(24.367 61.305)" fill="#152146"></path></g><g id="g238" transform="translate(182.497 164.031)"><path id="path240" d="M-6.419-14.932l-4.629-10.545.512-.225,4.629,10.545Z" transform="translate(11.048 25.701)" fill="#152146"></path></g><g id="g242" transform="translate(0.624 158.695)"><path id="path244" d="M-.528-26.463l-.381-.408L18.34-45.549l.389.4L.435-27.4l.036.04Z" transform="translate(0.909 45.549)" fill="#152146"></path></g><g id="g246" transform="translate(14.478 158.561)"><path id="path248" d="M-.58-19.2-1-19.573l11.93-13.48.418.37Z" transform="translate(0.999 33.053)" fill="#152146"></path></g><g id="g250" transform="translate(19.067 159.989)"><path id="path252" d="M-.406-24.771a.166.166,0,0,0-.072.014.139.139,0,0,0-.014.115l.248-.072a.26.26,0,0,0-.162-.057m0,.559a.294.294,0,0,1-.237-.117A.309.309,0,0,1-.6-24.737c5.366-5.787,10.626-11.81,15.634-17.9l.432.355C10.53-36.275,5.345-30.335.057-24.62a.516.516,0,0,1-.284.363.4.4,0,0,1-.177.045" transform="translate(0.699 42.636)" fill="#152146"></path></g><g id="g254" transform="translate(37.018 161.962)"><path id="path256" d="M-.615-10.125l-.444-.339,5.334-6.963.444.339Z" transform="translate(1.059 17.427)" fill="#152146"></path></g><g id="g258" transform="translate(29.876 171.835)"><path id="path260" d="M-.676-8.693l-.488-.273a22.534,22.534,0,0,1,4.857-6l.368.42A21.979,21.979,0,0,0-.676-8.693" transform="translate(1.164 14.963)" fill="#152146"></path></g><g id="g262" transform="translate(42.46 162.292)"><path id="path264" d="M-.626-19.486l-.451-.33L8.929-33.54l.451.33Z" transform="translate(1.077 33.54)" fill="#152146"></path></g><g id="g266" transform="translate(56.046 173.384)"><path id="path268" d="M-.611-1.831A.666.666,0,0,1-1.052-2.5a.666.666,0,0,1,.461-.654l.151.538c-.029.008-.053.064-.054.123s.022.117.051.127Z" transform="translate(1.052 3.152)" fill="#152146"></path></g><g id="g270" transform="translate(127.524 157.391)"><path id="path272" d="M-.167-28.171l-.121-1,.17-.021c.331-6.408.6-12.9.8-19.3l.558.017C1.031-41.739.743-34.915.389-28.19Z" transform="translate(0.288 48.489)" fill="#152146"></path></g><path id="path274" d="M359.04-115.106h-.559v-4.227h.559Z" transform="translate(-225.652 275.619)" fill="#152146"></path><path id="path276" d="M373.707-99.854h-.559v-23.479h.559Z" transform="translate(-234.173 277.943)" fill="#152146"></path><g id="g278" transform="translate(145.271 153.768)"><path id="path280" d="M-.985-31.391-1.7-54.013l.558-.017.711,22.622Z" transform="translate(1.696 54.031)" fill="#152146"></path></g><g id="g282" transform="translate(153.649 158.493)"><path id="path284" d="M-3.151-19.42c-.569-4.641-1.334-9.316-2.273-13.894l.548-.112c.942,4.593,1.709,9.283,2.279,13.939Z" transform="translate(5.424 33.427)" fill="#152146"></path></g><g id="g286" transform="translate(112.121 164.347)"><path id="path288" d="M-.762-14.789l-.55-.082.037-.781.153.008,2.484-9.811.541.137Z" transform="translate(1.312 25.455)" fill="#152146"></path></g><g id="g290" transform="translate(92.665 81.377)"><path id="path292" d="M-10.954-6.016c-9.047-9.659-7.322-.952-7.824,4.524C-19.561,7.032-14.084,14.6-10.4,22.326-7.461,28.495-3.961,34.847,1.936,38.3a4.8,4.8,0,0,0,3.386.853,3.725,3.725,0,0,0,2.564-3.341,10.932,10.932,0,0,0-.76-4.4C6.324,28.9-9.512-4.477-10.954-6.016" transform="translate(18.853 10.355)" fill="#ffb095"></path></g><g id="g294" transform="translate(92.665 81.377)"><path id="path296" d="M-23.263-30.3c-4.107-8.557-8.18-16.768-8.878-17.513-9.047-9.659-7.322-.952-7.824,4.524-.62,6.749,2.684,12.9,5.914,19A73.592,73.592,0,0,1-23.263-30.3" transform="translate(40.041 52.151)" fill="#94d1d7"></path></g><g id="g298" transform="translate(63.192 51.707)"><path id="path300" d="M-44.884-.568A17.811,17.811,0,0,0-56.409.969a14.459,14.459,0,0,0-7.3,8.9c-.357,1.351-.593,2.912-1.748,3.7-1.08.736-2.518.478-3.82.6a4.349,4.349,0,0,0-3.807,2.674c-.166.51-.2,1.056-.385,1.562a3,3,0,0,1-3.782,1.7c-.07,2.7,2.336,4.758,4.631,6.183a48.579,48.579,0,0,0,28.936,7.125,1.563,1.563,0,0,0,.621-.134,1.593,1.593,0,0,0,.587-.7c.947-1.709,1.925-3.566,1.694-5.507a5.454,5.454,0,0,1-.1-1.112,4.692,4.692,0,0,1,1.236-2.177,11.8,11.8,0,0,0,1.8-4.724,46.912,46.912,0,0,0,.926-8.049c.078-2.8-.137-5.739-1.63-8.1A8.579,8.579,0,0,0-47.194-.84" transform="translate(77.255 0.977)" fill="#ff9400"></path></g><g id="g302" transform="translate(54.416 117.91)"><path id="path304" d="M-99.1-48.061a27.769,27.769,0,0,1,1.34-12.28,10.372,10.372,0,0,1,2.864-4.347,6.167,6.167,0,0,1,.855-.6A23.956,23.956,0,0,0-96.976-66q-16.8-6.056-33.911-11.2c-9.136-2.745-24.9-6.886-34.7-5.083-1.522,4.347-3.3,8.636-4.98,12.9q.04.137.074.275a8.872,8.872,0,0,1,1.135,2.343,18.1,18.1,0,0,0,11.312,10.555c5.094,1.586,11.2.133,15.611-2.863.278-.188,17.006,7.936,20.721,8.815A82.457,82.457,0,0,0-110.549-48.4a97.37,97.37,0,0,0,9.842-.036c.568.36,1.131.725,1.684,1.1q-.041-.363-.074-.723" transform="translate(170.566 82.724)" fill="#ffc6a7"></path></g><g id="g306" transform="translate(8.7 122.794)"><path id="path308" d="M-84.706-29.01a5.919,5.919,0,0,0,2.938-4,11.673,11.673,0,0,0-.706-6.317,14.618,14.618,0,0,0-1.511-3.21,16.422,16.422,0,0,0-5.642-4.875,19.737,19.737,0,0,0-4.784-2.139,9.791,9.791,0,0,0-2.629-.384,7.932,7.932,0,0,0-2.2.6c-7.079,2.19-14.011,4.967-21.021,7.423a171.284,171.284,0,0,0-20.924,8.477,10.047,10.047,0,0,0-2.937,1.983,7.126,7.126,0,0,0-1.678,4.731c-.08,4.612,2.134,9,6.527,10.841a18.169,18.169,0,0,0,8.121.92c.764-.107,1.527-.216,2.287-.336a194.8,194.8,0,0,0,27.549-7.574q5.946-2.142,11.792-4.548c.844-.348,1.677-.748,2.534-1.062.739-.271,1.484-.154,2.207-.5l.072-.035" transform="translate(145.797 49.933)" fill="#ffb095"></path></g><g id="g310" transform="translate(54.416 117.91)"><path id="path312" d="M-99.1-48.061a27.769,27.769,0,0,1,1.34-12.28,10.372,10.372,0,0,1,2.864-4.347,6.167,6.167,0,0,1,.855-.6A23.956,23.956,0,0,0-96.976-66q-16.8-6.056-33.911-11.2c-9.136-2.745-24.9-6.886-34.7-5.083-1.522,4.347-3.3,8.636-4.98,12.9q.04.137.074.275a8.872,8.872,0,0,1,1.135,2.343,18.1,18.1,0,0,0,11.312,10.555c5.094,1.586,11.2.133,15.611-2.863.278-.188,17.006,7.936,20.721,8.815A82.457,82.457,0,0,0-110.549-48.4a97.37,97.37,0,0,0,9.842-.036c.568.36,1.131.725,1.684,1.1q-.041-.363-.074-.723" transform="translate(170.566 82.724)" fill="#19bcaf"></path></g><g id="g314" transform="translate(8.7 122.794)"><path id="path316" d="M-84.706-29.01a5.919,5.919,0,0,0,2.938-4,11.673,11.673,0,0,0-.706-6.317,14.618,14.618,0,0,0-1.511-3.21,16.422,16.422,0,0,0-5.642-4.875,19.737,19.737,0,0,0-4.784-2.139,9.791,9.791,0,0,0-2.629-.384,7.932,7.932,0,0,0-2.2.6c-7.079,2.19-14.011,4.967-21.021,7.423a171.284,171.284,0,0,0-20.924,8.477,10.047,10.047,0,0,0-2.937,1.983,7.126,7.126,0,0,0-1.678,4.731c-.08,4.612,2.134,9,6.527,10.841a18.169,18.169,0,0,0,8.121.92c.764-.107,1.527-.216,2.287-.336a194.8,194.8,0,0,0,27.549-7.574q5.946-2.142,11.792-4.548c.844-.348,1.677-.748,2.534-1.062.739-.271,1.484-.154,2.207-.5l.072-.035" transform="translate(145.797 49.933)" fill="#00af9f"></path></g><g id="g318" transform="translate(51.093 74.66)"><path id="path320" d="M-10.086-34.79q-.005.4-.02.807A29.148,29.148,0,0,1-13.453-21.5c-2.118,4-3.726,7.3-3.907,11.891A19.566,19.566,0,0,1,1.3,5.415c.408,1.924.77,4.262,2.583,5.024,2.132.9,4.3-1.19,5.478-3.181A29.457,29.457,0,0,0,13.376-6.469c.1-2.534-.5-4.888-.628-7.372a12.808,12.808,0,0,1,1.615-6.116,11.445,11.445,0,0,1,3.483-4.2c1.783-1.317,3.934-2.1,5.6-3.566a8.953,8.953,0,0,0,2.99-6.035c.12-1.721-.263-3.477.11-5.162A26.267,26.267,0,0,1,27.9-42.391a10.786,10.786,0,0,0-.076-7.724c-2.639-6.6-9.783-6.487-15.468-8.819C3.424-62.6-7.988-55.058-9.828-46.134c-.766,3.713-.211,7.549-.258,11.344" transform="translate(17.36 59.881)" fill="#ffb095"></path></g><g id="g322" transform="translate(51.093 74.66)"><path id="path324" d="M-10.086-34.79q-.005.4-.02.807A29.148,29.148,0,0,1-13.453-21.5c-2.118,4-3.726,7.3-3.907,11.891A19.566,19.566,0,0,1,1.3,5.415c.408,1.924.77,4.262,2.583,5.024,2.132.9,4.3-1.19,5.478-3.181A29.457,29.457,0,0,0,13.376-6.469c.1-2.534-.5-4.888-.628-7.372a12.808,12.808,0,0,1,1.615-6.116,11.445,11.445,0,0,1,3.483-4.2c1.783-1.317,3.934-2.1,5.6-3.566a8.953,8.953,0,0,0,2.99-6.035c.12-1.721-.263-3.477.11-5.162A26.267,26.267,0,0,1,27.9-42.391a10.786,10.786,0,0,0-.076-7.724c-2.639-6.6-9.783-6.487-15.468-8.819C3.424-62.6-7.988-55.058-9.828-46.134c-.766,3.713-.211,7.549-.258,11.344" transform="translate(17.36 59.881)" fill="#abdbe2"></path></g><g id="g326" transform="translate(58.217 75.61)"><path id="path328" d="M-4.408-26.408c3.918-1.981,7.78-4.908,9.857-8.865A9.768,9.768,0,0,0,6.612-41.03a9.833,9.833,0,0,0-1.83-4.424C-1-43.408-6.013-38.311-7.178-32.657a31.645,31.645,0,0,0-.339,7.592,27.383,27.383,0,0,0,3.109-1.343" transform="translate(7.587 45.453)" fill="#94d1d7"></path></g><g id="g330" transform="translate(51.094 78.96)"><path id="path332" d="M-62.648-7.578a9.936,9.936,0,0,0-5.315-5.465,22.05,22.05,0,0,1,.91,3.1,16.388,16.388,0,0,1-.261,8.819,9.482,9.482,0,0,1-6.454,6.095,18.025,18.025,0,0,1-5.476.382c-2.193-.1-4.38-.3-6.568-.472-4.294-.334-8.591-.64-12.894-.837q-.938.4-1.9.735c.036.992.064,1.984.052,2.973,0,.27-.009.538-.02.807a29.149,29.149,0,0,1-3.348,12.483c-2.118,4-3.725,7.3-3.906,11.891A19.566,19.566,0,0,1-89.174,47.952c.408,1.924.771,4.262,2.584,5.024,2.132.9,4.3-1.19,5.478-3.181a29.458,29.458,0,0,0,4.018-13.727c.1-2.534-.5-4.888-.629-7.373a12.817,12.817,0,0,1,1.616-6.116,11.44,11.44,0,0,1,3.483-4.2c1.782-1.317,3.934-2.1,5.6-3.566a8.948,8.948,0,0,0,2.99-6.035c.12-1.721-.263-3.477.11-5.162A26.217,26.217,0,0,1-62.572.147a10.783,10.783,0,0,0-.076-7.724" transform="translate(107.83 13.043)" fill="#94d1d7"></path></g><g id="g334" transform="translate(51.094 74.661)"><path id="path336" d="M-59.693-23.808a56.021,56.021,0,0,0,.718-5.611c.054-1.231.459-3.428-.015-4.576-.223-.544-1.638-1.191-1.617-1.666-.229,5.166-.642,10.44-2.683,15.191A118.509,118.509,0,0,1-75.58-23.164c-2.4-.668-1.624-1.631-1.259-3.82a47.278,47.278,0,0,0,.617-6.065,16.316,16.316,0,0,0-.376-4.221c-.1-.437-.91-3.71-1.391-3.708a15.119,15.119,0,0,0-2.889.293,9.533,9.533,0,0,1,1.186,3.715c1.174,9.442-6.767,17.87-15.8,19.066.019.673.03,1.345.021,2.016q-.005.4-.02.807A29.148,29.148,0,0,1-98.837-2.6c-2.118,4-3.726,7.3-3.907,11.891A19.565,19.565,0,0,1-84.088,24.316c.408,1.924.771,4.262,2.584,5.024,2.132.9,4.3-1.19,5.478-3.181a29.457,29.457,0,0,0,4.018-13.727c.1-2.534-.5-4.888-.628-7.372A12.806,12.806,0,0,1-71.02-1.057a11.445,11.445,0,0,1,3.483-4.2c1.782-1.317,3.934-2.1,5.6-3.566a8.95,8.95,0,0,0,2.99-6.035,9.726,9.726,0,0,0-.4-3.9,6.015,6.015,0,0,1-.611-2.724c.056-.777.153-1.551.266-2.324" transform="translate(102.744 40.979)" fill="#19bcaf"></path></g><g id="g338" transform="translate(78.757 65.246)"><path id="path340" d="M-7.968-7.708a15.483,15.483,0,0,1-3.643,3.695c-.568.361-1.9.691-2.07,1.259-.219.717.682,2.144,1.051,2.71A11.715,11.715,0,0,0-9.694,2.893a13.065,13.065,0,0,0,3.812,2.03A5.47,5.47,0,0,0-1.47,4.47,4.579,4.579,0,0,0,.065,3.42a1.591,1.591,0,0,0,.5-1.346c-.072-.223-.507-.159-.6-.424C-.321.843,1.026-.83,1.373-1.5a4.784,4.784,0,0,0,.684-3.044A4.808,4.808,0,0,0,.976-6.563,30.106,30.106,0,0,0-1.068-8.792a17.226,17.226,0,0,0-1.941-1.77c-.519-.387-.667-2.763-1.361-2.7-.508.043-.945,1.22-1.139,1.579a19.988,19.988,0,0,1-1.8,3.149c-.222.272-.441.551-.662.831" transform="translate(13.715 13.268)" fill="#ffc6a7"></path></g><g id="g342" transform="translate(88.059 68.149)"><path id="path344" d="M-.367-9.465A5.67,5.67,0,0,0,4.1-5.489c.284-.668.723-1.289,1.06-1.937a4.784,4.784,0,0,0,.684-3.044,4.808,4.808,0,0,0-1.082-2.02,30.1,30.1,0,0,0-2.043-2.229,19.345,19.345,0,0,0-1.693-1.573A7.906,7.906,0,0,0-.367-9.465" transform="translate(0.632 16.292)" fill="#ffb095"></path></g><g id="g346" transform="translate(81.997 61.269)"><path id="path348" d="M-5.326-.418A2.816,2.816,0,0,0-6.832-.706,2.659,2.659,0,0,0-8.977.937a2.912,2.912,0,0,0,.342,2.7A3.219,3.219,0,0,0-6.223,4.958,2.161,2.161,0,0,0-5.3,4.834,3.314,3.314,0,0,0-3.719,2.279a2.854,2.854,0,0,0-1.606-2.7" transform="translate(9.166 0.719)" fill="#ffb69e"></path></g><g id="g350" transform="translate(83.773 62.894)"><path id="path352" d="M-4.948-2.6a3.63,3.63,0,0,0-.691-1.075A2.073,2.073,0,0,0-7.3-4.471a1.309,1.309,0,0,0-1.163,1.62,2.276,2.276,0,0,0,3.1,1.283A4.333,4.333,0,0,0-4.948-2.6" transform="translate(8.516 4.48)" fill="#ffb095"></path></g><g id="g354" transform="translate(83.639 62.611)"><path id="path356" d="M-2.4-.5l.011-.01v0a.1.1,0,0,0,.023-.079c-.034-.256-.56-.267-.75-.267a1.18,1.18,0,0,0-1.012.7c-.024.051.05.086.083.046a1.5,1.5,0,0,1,.886-.5c.1,0,.526.009.6.105a.112.112,0,0,0,.154.022l0,0A.077.077,0,0,0-2.4-.5" transform="translate(4.133 0.855)" fill="#eb9680"></path></g><g id="g358" transform="translate(84.42 63.759)"><path id="path360" d="M-1.042-1.341a1.2,1.2,0,0,0,0-.935c-.028-.066-.126-.02-.112.045a1.524,1.524,0,0,1-.107.807,1.117,1.117,0,0,1-.317.513.749.749,0,0,0-.2.16A.094.094,0,0,0-1.7-.609c.385.006.546-.437.66-.732" transform="translate(1.794 2.309)" fill="#eb9680"></path></g><g id="g362" transform="translate(85.791 55.54)"><path id="path364" d="M-7.241-6.286A9.371,9.371,0,0,1-12.226-5.22c-.252,2.572-.506,5.681.385,8.15A11.427,11.427,0,0,0-7.783,8.416c1.789,1.262,4.27,1.887,6.15.8A6.787,6.787,0,0,0,.813,6.258,22.9,22.9,0,0,0,2.83.435c.339-1.687.889-4.032-.382-5.477a7.052,7.052,0,0,0-1.733-1.2A8.481,8.481,0,0,1-2.9-10.82,9.535,9.535,0,0,1-7.241-6.286" transform="translate(12.464 10.82)" fill="#ffc6a7"></path></g><g id="g366" transform="translate(94.293 63.546)"><path id="path368" d="M-2.137-6.548a6.373,6.373,0,0,0,.166-.988c.042-.573.165-1.143.212-1.717.052-.63.164-1.278.246-1.911.014-.1-.115-.153-.154-.044A10.418,10.418,0,0,0-1.94-9.7c-.082.425-.138.875-.184,1.3-.051.483-.139.975-.226,1.453-.046.253-.078.62-.279.791a.972.972,0,0,1-.832.1c-.2-.045-.315.331-.115.37a1.208,1.208,0,0,0,1.183-.263,1.267,1.267,0,0,0,.254-.6" transform="translate(3.679 11.27)" fill="#eb9680"></path></g><g id="g370" transform="translate(93.17 70.685)"><path id="path372" d="M-3.532-.829c-.175.046-.232.206-.35.322a.891.891,0,0,1-.805.31,1.172,1.172,0,0,1-.739-.425,3.157,3.157,0,0,1-.485-.753.085.085,0,0,0-.162.017A1.407,1.407,0,0,0-5.7-.48a1.484,1.484,0,0,0,.8.562A1.3,1.3,0,0,0-4.059.04a1.032,1.032,0,0,0,.311-.225,2.286,2.286,0,0,0,.176-.177c.041-.051.073-.165.14-.184.186-.054.084-.331-.1-.282" transform="translate(6.079 1.426)" fill="#eb9680"></path></g><g id="g374" transform="translate(97.889 63.131)"><g id="g388"><g id="g386" opacity="0.67" clip-path="url(#clip-path-2)"><g id="g384" transform="translate(0 0)"><path id="path382" d="M-2.432-1.471a3.309,3.309,0,0,1,.687.531.581.581,0,0,0,.18-.074.258.258,0,0,0,.1-.113.323.323,0,0,0-.047-.259,2.126,2.126,0,0,0-1.155-.968A1.571,1.571,0,0,0-4-2.4a.372.372,0,0,0-.12.082.307.307,0,0,0-.052.279,8.029,8.029,0,0,1,1.743.57" transform="translate(4.186 2.532)" fill="#000115"></path></g></g></g></g><g id="g390" transform="translate(91.46 61.933)"><g id="g404"><g id="g402" opacity="0.67" clip-path="url(#clip-path-3)"><g id="g400" transform="translate(0 0)"><path id="path398" d="M-2.621-.935a3.336,3.336,0,0,1,.863.1A.572.572,0,0,0-1.643-1a.255.255,0,0,0,.03-.151.322.322,0,0,0-.175-.2,2.121,2.121,0,0,0-1.489-.224,1.568,1.568,0,0,0-1.169.656.377.377,0,0,0-.06.132.307.307,0,0,0,.1.265,8.018,8.018,0,0,1,1.784-.42" transform="translate(4.511 1.61)" fill="#000115"></path></g></g></g></g><g id="g406" transform="translate(91.996 64.406)"><path id="path408" d="M-1.8-1.4a.689.689,0,0,1-.932.286.689.689,0,0,1-.287-.932.69.69,0,0,1,.932-.286A.689.689,0,0,1-1.8-1.4" transform="translate(3.1 2.416)" fill="#000115"></path></g><g id="g410" transform="translate(97.95 65.651)"><path id="path412" d="M-1.538-1.3a.64.64,0,0,1-.83.34.64.64,0,0,1-.185-.878.64.64,0,0,1,.83-.34.64.64,0,0,1,.185.878" transform="translate(2.647 2.232)" fill="#000115"></path></g><g id="g414" transform="translate(90.085 65.771)"><path id="path416" d="M-1.187-.03a.95.95,0,0,0-.846.646.831.831,0,0,0,.059.444A2.341,2.341,0,0,0-.194,2.279C.584,2.453,2.362,2,1.579.861A3.6,3.6,0,0,0-1.187-.03" transform="translate(2.043 0.051)" fill="#ffb095"></path></g><g id="g418" transform="translate(96.107 67.016)"><path id="path420" d="M-1.118-.067a.949.949,0,0,0-.8.7.825.825,0,0,0,.088.439,2.34,2.34,0,0,0,1.855,1.1C.812,2.295,2.556,1.723,1.7.641A3.6,3.6,0,0,0-1.118-.067" transform="translate(1.924 0.116)" fill="#ffb095"></path></g><g id="g422" transform="translate(103.41 104.149)"><path id="path424" d="M-.06-.253A.675.675,0,0,0,.272-.31.064.064,0,0,0,.24-.434a1.077,1.077,0,0,0-.322.091c-.04.027-.016.079.022.089" transform="translate(0.103 0.436)" fill="#3d599d"></path></g><g id="g426" transform="translate(36.723 75.089)"><path id="path428" d="M-7.378-22.273a73.178,73.178,0,0,1,12.911-9.9,72.722,72.722,0,0,1,7.322-3.869c2.33-1.065,4.723-2.705,7.4-2.193,1.71.327,3.632,1.693,3.383,3.54-.259,1.916-1.781,3.816-2.953,5.266-4.794,5.93-11,10.512-17.515,14.388C.08-13.207-3.393-10.755-6.812-9.609c-2.89.968-6.228-2.843-5.859-5.665a6.514,6.514,0,0,1,1.092-2.655,26.038,26.038,0,0,1,4.2-4.344" transform="translate(12.699 38.336)" fill="#ffc6a7"></path></g><g id="g430" transform="translate(48.189 75.088)"><path id="path432" d="M-29.8-.134c-2.679-.512-5.071,1.127-7.4,2.193A72.553,72.553,0,0,0-44.52,5.928a73.108,73.108,0,0,0-6.766,4.618,11.042,11.042,0,0,1,1.526,1.116,25.759,25.759,0,0,1,3.389,3.649,39.633,39.633,0,0,1,3.635,5.145A58.791,58.791,0,0,0-29.366,8.671c1.172-1.449,2.694-3.35,2.952-5.266.249-1.848-1.673-3.213-3.382-3.54" transform="translate(51.285 0.231)" fill="#abdbe2"></path></g><g id="g434" transform="translate(84.416 94.914)"><path id="path436" d="M0-31.687C.915-37.453,2.054-44.3,2.98-48.875a.931.931,0,0,0,.1.007c1.461-.015,18.974-5.83,19.214-5.67.182.12-4.442,14.9-7.072,22.745Z" transform="translate(0 54.541)" fill="#fff"></path></g><g id="g438" transform="translate(84.96 93.955)"><path id="path440" d="M0-33.012c.427-5.763.983-12.567,1.517-17.134a.907.907,0,0,0,.1,0c1.457-.092,18.447-6.821,18.7-6.674.2.113-3.369,15.937-5.306,23.7Z" transform="translate(0 56.82)" fill="#fff"></path></g><g id="g442" transform="translate(66.395 92.321)"><path id="path444" d="M0-31.723S1.194-53.359,1.186-54.594c0-.3,18.431,8.471,19.871,8.665a.961.961,0,0,0,.1.006c-.013,4.476-.26,11.072-.515,16.75Z" transform="translate(0 54.602)" fill="#fff"></path></g><g id="g446" transform="translate(67.551 91.34)"><path id="path448" d="M-.081-31.376C-.444-38.483,1-53.909,1.229-54c.28-.113,18.011,9.54,19.431,9.811.026,0,.06.008.1.011-.386,4.44-1.179,10.96-1.908,16.591Z" transform="translate(0.139 54.005)" fill="#fff"></path></g><g id="g450" transform="translate(65.424 93.803)"><path id="path452" d="M0-31.033c.775-6.461.967-22.382,1-22.382,4.887,1.969,21.19,6.814,22.307,7.509.063.039,18.309-5.69,19.215-5.67.211.005-4.166,14.018-6.827,22.01L17.631-27.488Z" transform="translate(0 53.415)" fill="#725ae9"></path></g><g id="g454" transform="translate(83.055 95.639)"><path id="path456" d="M0-33.4S4.691-47.447,5.577-51.828c.039,0,.074.007.1.007,1.461-.015,18.974-5.829,19.214-5.67.176.117-4.165,14.018-6.827,22.009Z" transform="translate(0 57.494)" fill="#35107d"></path></g><g id="g458" transform="translate(87.134 45.89)"><path id="path460" d="M-.079-5.4A2.856,2.856,0,0,1,1.164-8.228,6.541,6.541,0,0,1,4.241-9.241a3.739,3.739,0,0,1,1.186-.008A4.01,4.01,0,0,1,6.785-8.6,4.682,4.682,0,0,1,9.118-5.987,2.859,2.859,0,0,1,7.057-2.829C4.812-2.186.622-2.594-.079-5.4" transform="translate(0.136 9.294)" fill="#ff9400"></path></g><g id="g462" transform="translate(36.653 94.149)"><path id="path464" d="M-75.373-32.522c-2.476-.523-4.971-.929-7.452-1.416a20.228,20.228,0,0,0,2.433-.146c.212-.036,2.208-.655,2.222-.637a2.631,2.631,0,0,0-1.624-.7L-85.75-36.5c-1.271,0-2.539-.792-3.808-.919a12.2,12.2,0,0,1-3.358-.873c-1.283-.491-2.568-.983-3.8-1.6-8.694-4.336-14.349-14.084-24.367-15.937-4.333-.8-11.219,1.462-7.67,6.976a13.26,13.26,0,0,0,3.912,3.544,119.15,119.15,0,0,0,16.6,9.2c3.968,1.852,7.876,3.848,11.963,5.433a46.775,46.775,0,0,0,6.338,2,19.894,19.894,0,0,0,6.751.162,4.571,4.571,0,0,0,3.6-2.346l.035-.054a1.044,1.044,0,0,1,.479-.468,1.116,1.116,0,0,1,.363-.044,29.021,29.021,0,0,0,3.432-.249c.2-.027.439-.084.507-.275.108-.3-.293-.513-.606-.579" transform="translate(129.733 55.977)" fill="#ffc6a7"></path></g><g id="g466" transform="translate(22.44 135.731)"><path id="path468" d="M-10.769-7.327A12.063,12.063,0,0,1-9.186,1.447c-.758,3.467-6.4,6.367-9.35,8.06,19.917.38,44.081-.093,60.8-1.167.478-2.649,1.148-5.263,1.717-7.895.047-.217-4.471-.618-4.426-.836C25.38-4.831,17.3-10.126,2.13-10.458c-4.017-.087-8.058.105-12.035-.473a49.751,49.751,0,0,1-7.11-1.682,14.812,14.812,0,0,1,6.246,5.285" transform="translate(18.536 12.612)" fill="#ffb095"></path></g><g id="g470" transform="translate(8.547 135.375)"><path id="path472" d="M-58.987-4.436a60.322,60.322,0,0,0-7.984-.689c-4.017-.088-8.059.1-12.035-.473a40.216,40.216,0,0,1-4.334-.9A25.652,25.652,0,0,0-86.762-7.61c-2.617-.273-6.316,1.639-8.637,2.7-2.259,1.035-4.94,2.633-5.589,5.178-.75,2.943-.876,6.565.627,9.289a10.655,10.655,0,0,0,6.293,4.7,31.608,31.608,0,0,0,7.958,1.057l20.333.96a4.032,4.032,0,0,0,2.569-.454c1.327-.949-.013-2.517-.052-3.724a33.426,33.426,0,0,1,.382-5.79,25.483,25.483,0,0,1,3.89-10.745" transform="translate(101.53 7.636)" fill="#00af9f"></path></g><g id="g474" transform="translate(75.001 133.159)"><path id="path476" d="M-20.593-32.426c.15-.016.3-.032.451-.047C-14.8-32.988-9.22-33.8-3.859-33.8c5.035-.411,10.073-.823,15.085-1.465,4.254-.545,8.583-1.289,12.338-3.36a5.508,5.508,0,0,0,2.611-2.483,6.383,6.383,0,0,0,.317-2.5,16.181,16.181,0,0,0-.318-3.766,10.29,10.29,0,0,0-5.389-6.378,20.758,20.758,0,0,0-8.3-2.008c-.682-.044-1.367-.064-2.049-.041A10.3,10.3,0,0,0,5.09-54.4c-.763.5-1.23,1.208-2.038,1.541a21.053,21.053,0,0,1-3.139.62,67.276,67.276,0,0,0-12.384,4.262c-2.02.9-23.235,11.841-22.97,12.4a40.984,40.984,0,0,0,1.3,5.077c4.6-.061,9.033-1.428,13.549-1.925" transform="translate(35.444 55.812)" fill="#ffc6a7"></path></g><g id="g478" transform="translate(100.45 133.159)"><path id="path480" d="M-51.185-16.977c.375-4.01-2.68-8.38-6.135-10.185a20.76,20.76,0,0,0-8.3-2.008c-.682-.044-1.367-.064-2.049-.041-3.339.112-6.324,1.73-9.467,2.724A103.372,103.372,0,0,1-88.1-23.673c5.8,3.343,9.084,10.107,9.479,16.793.022.367.089.811.431.944a.94.94,0,0,0,.358.04A57.524,57.524,0,0,0-59.357-9.285c2.475-.892,4.983-2.024,6.66-4.051a6.588,6.588,0,0,0,1.511-3.641" transform="translate(88.101 29.22)" fill="#19bcaf"></path></g><g id="g482" transform="translate(94.139 100.734)"><path id="path484" d="M-14.949-37.332c.384.7.789,1.4,1.223,2.074,1.8,2.808,4.571,5.533,7.9,5.314a5.662,5.662,0,0,0,4.49-2.841A5.664,5.664,0,0,0-1.287-38.1a55,55,0,0,0-4.392-6.112c-2.139-2.9-5.078-5.468-7.536-8.113s-3.5-5.838-5.8-8.5a1.769,1.769,0,0,0-.306-.077.66.66,0,0,0-.763.274.477.477,0,0,1-.066.064.432.432,0,0,1-.127.163c.086.338.158.614.184.683.2.52,1.08,1.3.708,1.805-1.4-1.4-2.445-3.478-3.633-5.089a2.775,2.775,0,0,0-1.529-1.255c-.48,1.407.8,2.982.288,4.379a1.361,1.361,0,0,0-1.426,1.127,3.263,3.263,0,0,0,.34,1.947,12.274,12.274,0,0,0,1.492,2.557c.88,1.158,1.459,2.413,2.245,3.631a41.1,41.1,0,0,1,2.255,4.063c1.509,3.051,2.771,6.233,4.4,9.221" transform="translate(25.73 64.257)" fill="#ffb095"></path></g><g id="g486" transform="translate(40.48 135.194)"><path id="path488" d="M-11.038-17.454c-.245,3.817-.426,7.727.665,11.393a19.712,19.712,0,0,1-5.653.954,1.42,1.42,0,0,1-.809-.151,1.473,1.473,0,0,1-.5-1.016q-.551-2.84-.993-5.7c-.74-4.777-1.227-9.817.543-14.315a5.756,5.756,0,0,1,2.894-3.452,5.988,5.988,0,0,1,2.629-.271c1.021.07,3.214.2,3.9,1.1.742.974-.247,2.063-.724,2.948a20.267,20.267,0,0,0-1.953,8.506" transform="translate(19 30.042)" fill="#19bcaf"></path></g><g id="g490" transform="translate(99.752 135.024)"><path id="path492" d="M-4.423-7.874A21.708,21.708,0,0,1,.792,8.319a15.454,15.454,0,0,0,4.663.3,1.3,1.3,0,0,0,.964-.38A1.322,1.322,0,0,0,6.6,7.4C6.476,1.291,4.2-4.567,1.5-10.049.77-11.542-.208-13.185-1.843-13.5a5.6,5.6,0,0,0-3.4.829c-.91.442-2.885,1.223-2.248,2.374.464.84,2.348,1.6,3.066,2.424" transform="translate(7.612 13.553)" fill="#2ccaba"></path></g><g id="g494" transform="translate(75.828 74.408)"><path id="path496" d="M-1.47-24.233l-.48-.092c.836-4.343,1.508-9,.77-13.607a6.814,6.814,0,0,0-1.351-3.453l.365-.325A7.246,7.246,0,0,1-.7-38.01c.751,4.686.073,9.39-.773,13.777" transform="translate(2.531 41.711)" fill="#152146"></path></g><g id="g498" transform="translate(77.057 92.033)"><path id="path500" d="M-18.822-4.993A92.06,92.06,0,0,1-32.4-8.126l.146-.467a91.527,91.527,0,0,0,13.5,3.117Z" transform="translate(32.396 8.593)" fill="#152146"></path></g><g id="g502" transform="translate(72.422 87.2)"><path id="path504" d="M-3.042-9.3a1.967,1.967,0,0,1-1.136-.353c-.726-.516-1.072-1.474-1.057-2.93A18.422,18.422,0,0,1-4.879-16l.479.1a17.935,17.935,0,0,0-.347,3.331A2.885,2.885,0,0,0-3.9-10.047a1.5,1.5,0,0,0,1.617.054A3.024,3.024,0,0,0-1.27-11.351l.442.21A3.478,3.478,0,0,1-2.021-9.577,1.952,1.952,0,0,1-3.042-9.3" transform="translate(5.236 16)" fill="#152146"></path></g><g id="g506" transform="translate(90.511 81.701)"><path id="path508" d="M-1.906-22.8A1.458,1.458,0,0,1-2.649-23a1.323,1.323,0,0,1-.6-.834,1.12,1.12,0,0,1,.143-.881l.407.27a.639.639,0,0,0-.074.5.824.824,0,0,0,.369.522,1.173,1.173,0,0,0,1.232-.113,2.163,2.163,0,0,0,.757-1.174A7.179,7.179,0,0,0-.207-26.1l.01-.13c.135-1.624.372-3.262.6-4.847a53.976,53.976,0,0,0,.708-7.084,1.883,1.883,0,0,0-.128-.866l.435-.223A2.269,2.269,0,0,1,1.6-38.153a54.378,54.378,0,0,1-.713,7.148C.659-29.427.424-27.8.291-26.188l-.011.129A7.536,7.536,0,0,1,.058-24.57a2.639,2.639,0,0,1-.944,1.438,1.775,1.775,0,0,1-1.019.33" transform="translate(3.28 39.248)" fill="#152146"></path></g><g id="g510" transform="translate(52.577 124.67)"><path id="path512" d="M-25.645-27.387a6.575,6.575,0,0,1-1.635-2.948,32.632,32.632,0,0,0-3.529-7.612A22.133,22.133,0,0,0-44.14-46.663l.11-.476A22.629,22.629,0,0,1-30.4-38.222,33.057,33.057,0,0,1-26.82-30.5a6.236,6.236,0,0,0,1.5,2.745Z" transform="translate(44.14 47.139)" fill="#152146"></path></g><g id="g514" transform="translate(76.821 122.104)"><path id="path516" d="M-1.523-19.57l-.1-.478a4.718,4.718,0,0,0,2-.956,1.994,1.994,0,0,0,.632-.773,2.587,2.587,0,0,0,.063-1.238,25,25,0,0,0-3.7-10.407l.413-.262A25.491,25.491,0,0,1,1.559-23.072a2.98,2.98,0,0,1-.095,1.478,2.445,2.445,0,0,1-.776.969A5.2,5.2,0,0,1-1.523-19.57" transform="translate(2.621 33.684)" fill="#152146"></path></g><g id="g518" transform="translate(73.855 121.618)"><path id="path520" d="M-5.347-31.137l-.485-.059A41.934,41.934,0,0,0-9.2-53.393l.446-.2a42.428,42.428,0,0,1,3.41,22.456" transform="translate(9.203 53.593)" fill="#152146"></path></g><g id="g522" transform="translate(82.635 125.343)"><path id="path524" d="M-.631-21.62l-.455-.18a18.364,18.364,0,0,0,.929-5.811c.04-.765.081-1.556.158-2.329.25-2.506,1.113-5.8,3.811-7.272l.234.429C1.405-35.343.683-31.848.488-29.892c-.076.761-.117,1.546-.156,2.306A18.746,18.746,0,0,1-.631-21.62" transform="translate(1.085 37.213)" fill="#152146"></path></g><g id="g526" transform="translate(20.495 135.428)"><path id="path528" d="M-.182-4l-.131-.472a59.827,59.827,0,0,1,11.2-2.31,22.288,22.288,0,0,1,11.275,1.7l-.206.444A21.811,21.811,0,0,0,10.922-6.29,59.363,59.363,0,0,0-.182-4" transform="translate(0.313 6.877)" fill="#152146"></path></g><g id="g530" transform="translate(107.98 133.256)"><path id="path532" d="M-.359-6.338l-.259-.415a27.639,27.639,0,0,1,14.346-4.157l0,.489A27.143,27.143,0,0,0-.359-6.338" transform="translate(0.619 10.909)" fill="#152146"></path></g><g id="g534" transform="translate(104.448 134.668)"><path id="path536" d="M-12.1-31.527a.387.387,0,0,1-.218-.07.409.409,0,0,1-.186-.38.314.314,0,0,1,.22-.256l.151.465a.177.177,0,0,0,.114-.141A.107.107,0,0,0-12.048-32a.128.128,0,0,0-.125,0,.033.033,0,0,0-.009.008s.024-.041.013-.187a49.594,49.594,0,0,0-4.521-17.471c-1.223-2.629-2.54-3.941-4.145-4.131l.057-.486c2.352.278,3.713,2.65,4.532,4.41a50.09,50.09,0,0,1,4.565,17.642.647.647,0,0,1-.249.639.345.345,0,0,1-.175.047" transform="translate(20.835 54.265)" fill="#152146"></path></g><g id="g538" transform="translate(40.351 135.869)"><path id="path540" d="M-3.421-34.685a5.192,5.192,0,0,1-1.568-3.526,79.972,79.972,0,0,1-.894-12.876,15.668,15.668,0,0,1,.615-4.844A6.237,6.237,0,0,1-2.154-59.7l.205.444A5.748,5.748,0,0,0-4.8-55.776a15.267,15.267,0,0,0-.59,4.694,79.572,79.572,0,0,0,.888,12.8,4.8,4.8,0,0,0,1.382,3.211Z" transform="translate(5.888 59.7)" fill="#152146"></path></g><g id="g542" transform="translate(48.005 85.354)"><path id="path544" d="M-12.432-15.089A60.125,60.125,0,0,0-21.4-25.614l.333-.358a60.59,60.59,0,0,1,9.04,10.611Z" transform="translate(21.399 25.972)" fill="#152146"></path></g><g id="g546" transform="translate(49.737 84.229)"><path id="path548" d="M-12.248-15.432A46.23,46.23,0,0,0-21.081-26.2l.327-.363a46.689,46.689,0,0,1,8.927,10.881Z" transform="translate(21.081 26.563)" fill="#152146"></path></g><g id="g550" transform="translate(105.011 102.836)"><path id="path552" d="M-.273-3.931l-.2-.448c1.675-.736,3.345-1.539,4.964-2.387l.227.433c-1.629.854-3.309,1.662-4.994,2.4" transform="translate(0.469 6.767)" fill="#152146"></path></g><g id="g554" transform="translate(105.539 101.327)"><path id="path556" d="M-.379-3-.652-3.4A17.189,17.189,0,0,1,2.7-5.159l.178.455A16.694,16.694,0,0,0-.379-3" transform="translate(0.652 5.159)" fill="#152146"></path></g><g id="g558" transform="translate(78.426 75.148)"><path id="path560" d="M-13.84-12.139h-.094a10.521,10.521,0,0,1-5.644-2.1c-2.275-1.532-3.621-3.151-4.116-4.946a2.1,2.1,0,0,1,.1-1.706l.417.256a1.671,1.671,0,0,0-.048,1.319c.463,1.678,1.744,3.206,3.918,4.671a10.069,10.069,0,0,0,5.378,2.019,4.774,4.774,0,0,0,4.585-2.714l.456.178a5.256,5.256,0,0,1-4.954,3.026" transform="translate(23.821 20.895)" fill="#152146"></path></g><g id="g562" transform="translate(38.33 98.15)"><path id="path564" d="M-5.241-5.77A3.826,3.826,0,0,1-8-6.96,3.821,3.821,0,0,1-9-9.931l.486.05a3.329,3.329,0,0,0,.874,2.586A3.328,3.328,0,0,0-5.116-6.261l.02.488c-.048,0-.1,0-.145,0" transform="translate(9.021 9.931)" fill="#152146"></path></g><g id="g566" transform="translate(13.955 144.395)"><path id="path568" d="M-1.377-13.536a4.289,4.289,0,0,1-.993-.115l.112-.476a3.9,3.9,0,0,0,2.911-.466,3.9,3.9,0,0,0,1.739-2.381,5.009,5.009,0,0,0-.408-3.23A10.9,10.9,0,0,0,.021-22.967L.38-23.3a11.35,11.35,0,0,1,2.049,2.891,5.5,5.5,0,0,1,.439,3.55A4.394,4.394,0,0,1,.908-14.176a4.391,4.391,0,0,1-2.286.64" transform="translate(2.371 23.299)" fill="#152146"></path></g><g id="g570" transform="translate(129.507 139.982)"><path id="path572" d="M-6.824-12.761a5.058,5.058,0,0,1-4.433-3.22,8.846,8.846,0,0,1,.089-5.984l.464.154a8.372,8.372,0,0,0-.1,5.646,4.452,4.452,0,0,0,4.357,2.893l.059.485a3.673,3.673,0,0,1-.436.026" transform="translate(11.746 21.965)" fill="#152146"></path></g><g id="g574" transform="translate(111.142 129.714)"><path id="path576" d="M-3.68-4.006a3.9,3.9,0,0,1-2.654-1.1L-6-5.465A3.3,3.3,0,0,0-3-4.579a2.394,2.394,0,0,0,1.822-2.3L-.692-6.9A2.9,2.9,0,0,1-2.882-4.105a3.213,3.213,0,0,1-.8.1" transform="translate(6.333 6.896)" fill="#152146"></path></g><g id="g578" transform="translate(100.83 103.988)"><path id="path580" d="M-18.787-29.989c-4.7-6.963-9.26-14.156-13.55-21.379l.42-.25c4.286,7.214,8.84,14.4,13.535,21.355Z" transform="translate(32.337 51.617)" fill="#152146"></path></g><g id="g582" transform="translate(77.747 94.562)"><path id="path584" d="M-14.749-3.494l.273.263a.218.218,0,0,0,.025-.26.172.172,0,0,0-.188-.088.189.189,0,0,0-.11.085m.15.4a.309.309,0,0,1-.272-.143.265.265,0,0,1-.035-.094c-1.422-.354-2.9-.6-4.323-.845A41.034,41.034,0,0,1-25.387-5.55l.155-.464a40.666,40.666,0,0,0,6.086,1.353c1.48.25,3.01.51,4.491.886.327.083.365.293.366.381a.291.291,0,0,1-.217.285A.342.342,0,0,1-14.6-3.1" transform="translate(25.387 6.013)" fill="#152146"></path></g><g id="g586" transform="translate(80.941 54.589)"><path id="path588" d="M-4.035-9.438a14.779,14.779,0,0,1-2.91-.291l.1-.48a13.444,13.444,0,0,0,7.825-.7,10.885,10.885,0,0,0,5.636-5.337l.444.2a11.38,11.38,0,0,1-5.889,5.583,13.374,13.374,0,0,1-5.2,1.02" transform="translate(6.945 16.245)" fill="#152146"></path></g><g id="g590" transform="translate(88.83 46.183)"><path id="path592" d="M-3.211-8.272a2.131,2.131,0,0,1-1.534-.7,2.825,2.825,0,0,1-.779-2.057,4.589,4.589,0,0,1,1.9-3.214l.307.38A4.254,4.254,0,0,0-5.036-11a2.359,2.359,0,0,0,.644,1.694,1.648,1.648,0,0,0,1.181.545H-3.2l0,.489Z" transform="translate(5.528 14.237)" fill="#152146"></path></g><g id="g594" transform="translate(90.879 47.556)"><path id="path596" d="M-2.968-6.271a3.184,3.184,0,0,1-1.963-1.6,2.828,2.828,0,0,1-.093-1.7c.182-.863.621-1.127.958-1.2A2.359,2.359,0,0,1-2-9.589,7.7,7.7,0,0,1-.988-7.154l-.47.134A7.225,7.225,0,0,0-2.395-9.3c-.476-.663-1.137-1.077-1.57-.987-.351.074-.509.487-.579.821A2.356,2.356,0,0,0-4.48-8.062,2.742,2.742,0,0,0-2.793-6.727Z" transform="translate(5.108 10.793)" fill="#152146"></path></g><g id="g598" transform="translate(93.943 47.04)"><path id="path600" d="M-1.138-1.924a.954.954,0,0,0-.821-.9l.047-.487A1.447,1.447,0,0,1-.649-1.926Z" transform="translate(1.959 3.312)" fill="#152146"></path></g><g id="g602" transform="translate(58.649 148.761)"><path id="path604" d="M-34.562-.1q.076,2.272.16,4.543.059,1.691.119,3.384c.051,1.44.244,1.769-1.333,2a57.442,57.442,0,0,0-19.214,6.2c-1.186.641-3.3,2.158-4.658,1.768a3.031,3.031,0,0,1,.877-1.663A82.233,82.233,0,0,1-46.09,4.027c.138-.108.273-.22.4-.337l0-.47.264.161a1.12,1.12,0,0,0,.215-.778,1.785,1.785,0,0,1-.475.116l0-.215h0l-.637.044c-.506-.4-.554-1.413-.592-2.128.994-.25,12.342-.78,12.351-.517" transform="translate(59.488 0.17)" fill="#ff7373"></path></g><g id="g606" transform="translate(143.994 79.882)"><path id="path608" d="M-73.982-2.326c-1.755-3.481-6.973-.838-9.486,1.552-2.484,2.361-4.1,5.43-5.665,8.423-.569,1.091-33.08,45.638-38.182,51.782a1.58,1.58,0,0,0-.023.284.6.6,0,0,0,.357.639.46.46,0,0,1,.067.049.4.4,0,0,1,.164.089c.289-.126.524-.231.582-.264.5-.29,1.039-1.1,1.643-1.065a8.48,8.48,0,0,0-1.634,1.905.788.788,0,0,0-.135.489.819.819,0,0,0,.327.455,11.065,11.065,0,0,0,2.042,1.369,3.122,3.122,0,0,0,1.895.456,3.478,3.478,0,0,0,1.489-.785c2.263-1.74,4.233-3.794,6.457-5.573q3.447-2.758,6.768-5.668,6.19-5.425,11.839-11.3c1.8-1.868,8.07-8.3,9.587-10.1a59.709,59.709,0,0,0,5.429-7.61c2.614-4.33,5.386-8.676,6.831-13.389,1.218-3.969,1.38-8.3-.35-11.733" transform="translate(127.339 4.004)" fill="#ffb095"></path></g><g id="g610" transform="translate(80.001 127.048)"><path id="path612" d="M-161.784-43.915a40.356,40.356,0,0,1,.639-9.221c1.131-5.335,3.611-10.278,5.522-15.377-1.551-.635-3.058-1.279-4.475-1.736l-.38-.122A103.85,103.85,0,0,0-176.053-74.2a143.463,143.463,0,0,0-19.677-1.325c-8.346-.144-16.772-.144-25.052,1.154.1-.157.207-.312.318-.465-.25.175-.5.354-.742.533-.347.056-.694.114-1.041.175-.253.044-.5.093-.752.143a17.439,17.439,0,0,0-1.6.789,8.188,8.188,0,0,0-3.822,4.325c-3.2,2.158-7.229,3.359-10.759,4.888-14.636,6.338-25.774,16.337-39.287,23.183,1.916,4.973.6,9.588,4.546,8.707,8.167-1.821,19.8-4.559,27.6-7.559,9.427-3.624,18.674-7.7,27.819-11.994q4.835-.547,9.664-1.125c4.119-.491,8.237-.981,12.353-1.5a25.413,25.413,0,0,1,11.828.867c8.456,2.439,17,5.909,22.977,12.456-.055-.989-.087-1.979-.1-2.967" transform="translate(278.465 75.587)" fill="#ffb095"></path></g><g id="g614" transform="translate(88.7 127.048)"><path id="path616" d="M-158.264-9.81c-1.551-.635-3.058-1.279-4.476-1.736l-.379-.122A103.924,103.924,0,0,0-178.693-15.5a143.469,143.469,0,0,0-19.678-1.325c-8.346-.144-16.771-.144-25.051,1.154.1-.158.207-.313.318-.465-.25.175-.5.353-.742.533q-.521.084-1.041.175c-.253.044-.5.093-.752.143a17.577,17.577,0,0,0-1.6.789,8.19,8.19,0,0,0-3.822,4.325c-3.2,2.159-7.23,3.359-10.76,4.888-11.31,4.9-20.679,11.515-30.589,17.429a47.413,47.413,0,0,0,2.241,7.228c.687,1.771,1.451,3.51,2.259,5.229a166.117,166.117,0,0,0,18.947-5.554c9.427-3.624,18.673-7.7,27.819-11.994q4.835-.547,9.664-1.124c4.119-.491,8.237-.982,12.353-1.5A25.421,25.421,0,0,1-187.3,5.3c8.455,2.439,17,5.909,22.977,12.456-.055-.989-.087-1.979-.1-2.968a40.325,40.325,0,0,1,.639-9.221c1.131-5.335,3.611-10.278,5.521-15.377" transform="translate(272.407 16.885)" fill="#f98c00"></path></g><g id="g618" transform="translate(85.74 152.924)"><path id="path620" d="M-14.235-22.814l-4.372,1.567L-24.5-37.7l4.372-1.566Z" transform="translate(24.501 39.268)" fill="#ffa600"></path></g><g id="g622" transform="translate(199.231 50.65)"><path id="path624" d="M-.193-.007A.852.852,0,0,1,.124.6,12.975,12.975,0,0,1,.362,2.783,6.782,6.782,0,0,1,1.143.475c.054-.1.168-.2.254-.136a.192.192,0,0,1,.053.134A4.437,4.437,0,0,1,.981,3,6.662,6.662,0,0,1,2.215,1.21a.6.6,0,0,1,.31-.2.425.425,0,0,1,.442.412,1.038,1.038,0,0,1-.225.63C2.28,2.734,1.047,4.039.192,3.233A2.732,2.732,0,0,1-.3,1.839C-.33,1.7-.386-.12-.193-.007" transform="translate(0.332 0.012)" fill="#0e1c3b"></path></g><g id="g626" transform="translate(158.242 63.32)"><path id="path628" d="M-23.168-8.333a.617.617,0,0,1-.087.008c-1.262-.005-16.411-6.19-16.618-6.014s7.274,29.232,7.766,29.806c.437.51,10.232,5.075,13.087,6.405-.139-1.18-2.524-20.457-4.148-30.205" transform="translate(39.877 14.343)" fill="#fff"></path></g><g id="g630" transform="translate(159.471 62.266)"><path id="path632" d="M-22.564-9.859a.6.6,0,0,1-.087,0c-1.258-.089-15.962-7.271-16.18-7.11s5.306,29.652,5.76,30.259c.4.537,9.871,5.747,12.63,7.264-.06-1.187-1.153-20.58-2.122-30.415" transform="translate(38.837 16.97)" fill="#fff"></path></g><g id="g634" transform="translate(174.818 60.996)"><path id="path636" d="M-21.386,0c-.234-.137-14.1,8.561-15.336,8.783a.694.694,0,0,1-.087.007c.066,8.6.805,24.389,1.04,29.138.025.011.049.02.074.032a.51.51,0,0,1,.248.236c.225.135.445.28.667.421,3.309-2.311,10.56-7.4,10.87-7.917.386-.651,2.763-30.559,2.526-30.7" transform="translate(36.809 0.004)" fill="#fff"></path></g><g id="g638" transform="translate(174.044 60.17)"><path id="path640" d="M-20.525,0c-.242-.121-13.492,9.483-14.716,9.787a.644.644,0,0,1-.087.013c.684,9.158,2.681,26.462,3.077,29.811.137.08.277.158.42.227C-29,37.571-21.286,31.369-21,30.8c.342-.676.718-30.675.472-30.8" transform="translate(35.328 0.003)" fill="#fff"></path></g><g id="g642" transform="translate(179.083 79.882)"><path id="path644" d="M-25.329-2.326c-1.755-3.481-6.973-.838-9.486,1.552-2.484,2.361-4.1,5.43-5.665,8.423-.1.2-1.261,1.831-3.116,4.405a56.1,56.1,0,0,1,7.462,5.158A19.53,19.53,0,0,1-31.6,22.454C-29.052,18.236-26.387,14-24.98,9.407c1.218-3.969,1.38-8.3-.35-11.733" transform="translate(43.597 4.004)" fill="#ff7373"></path></g><g id="g646" transform="translate(195.88 99.816)"><path id="path648" d="M-.039-.1C-.048-.13-.058-.155-.067-.18c.009.025.018.05.028.075" transform="translate(0.067 0.18)" fill="#fff"></path></g><g id="g650" transform="translate(203.897 79.109)"><path id="path652" d="M0,0Q.9.032,1.787.1.9.031,0,0" fill="#fff"></path></g><g id="g654" transform="translate(199.954 79.078)"><path id="path656" d="M0-.048q.944-.03,1.876-.035Q.944-.078,0-.048" transform="translate(0 0.083)" fill="#fff"></path></g><g id="g658" transform="translate(195.155 97.985)"><path id="path660" d="M-.019-.044-.032-.076l.013.032" transform="translate(0.032 0.076)" fill="#fff"></path></g><g id="g662" transform="translate(201.94 79.077)"><path id="path664" d="M0,0Q.919,0,1.827.026.919,0,0,0" transform="translate(0 0)" fill="#fff"></path></g><g id="g666" transform="translate(187.049 78.708)"><path id="path668" d="M-25.243-90.555a41.531,41.531,0,0,0,3.662,2.764c1.591,1.043,4.372,2.857,6.262,1.59,1.643-1.1,3.037-5.58,3.928-7.346,1.378-2.733,2.682-5.5,3.878-8.321a84.723,84.723,0,0,0,5.67-18.106c2.108-11.806,0-24.272-10.8-31.433-6.406-4.247-15.628-5.316-22.994-3.815a7,7,0,0,0-2.848,1.088,6.666,6.666,0,0,0-2.134,3.777C-43.5-139.48-38-128.516-39.37-117.577c-.36,2.879-.423,5.823-.573,8.736a13.3,13.3,0,0,1-.266,2.381,11.426,11.426,0,0,1-2.76,4.7,1.823,1.823,0,0,0-.454.724,1.324,1.324,0,0,0,1,1.415,5.2,5.2,0,0,0,1.89.067,9.834,9.834,0,0,1,4.742.94,19.756,19.756,0,0,1,3.689,2.5l3.56,2.828c1.124.893,2.205,1.824,3.3,2.731" transform="translate(43.449 155.864)" fill="#ffb095"></path></g><g id="g670" transform="translate(187.049 78.708)"><path id="path672" d="M-25.243-90.555a41.531,41.531,0,0,0,3.662,2.764c1.591,1.043,4.372,2.857,6.262,1.59,1.643-1.1,3.037-5.58,3.928-7.346,1.378-2.733,2.682-5.5,3.878-8.321a84.723,84.723,0,0,0,5.67-18.106c2.108-11.806,0-24.272-10.8-31.433-6.406-4.247-15.628-5.316-22.994-3.815a7,7,0,0,0-2.848,1.088,6.666,6.666,0,0,0-2.134,3.777C-43.5-139.48-38-128.516-39.37-117.577c-.36,2.879-.423,5.823-.573,8.736a13.3,13.3,0,0,1-.266,2.381,11.426,11.426,0,0,1-2.76,4.7,1.823,1.823,0,0,0-.454.724,1.324,1.324,0,0,0,1,1.415,5.2,5.2,0,0,0,1.89.067,9.834,9.834,0,0,1,4.742.94,19.756,19.756,0,0,1,3.689,2.5l3.56,2.828c1.124.893,2.205,1.824,3.3,2.731" transform="translate(43.449 155.864)" fill="#ff8b8b"></path></g><g id="g674" transform="translate(187.049 78.708)"><path id="path676" d="M-42.715-6.181c-6.406-4.247-15.629-5.315-22.994-3.814-.106.021-.212.044-.318.067.606.411,1.221.808,1.858,1.167,1.211-.016,2.421-.183,3.629-.274a13.521,13.521,0,0,1,5.6.666,16.555,16.555,0,0,1,3.431,1.554,6.064,6.064,0,0,1,2.687,4.321c.107,1.831-.956,3.514-1.679,5.105A15.731,15.731,0,0,0-51.876,8c-.065.931-.113,2-.854,2.572a2.151,2.151,0,0,1-1.966.192,12.023,12.023,0,0,1-1.826-.938c-2.246-1.207-8.109-2.154-8.7,1.618a15.575,15.575,0,0,0,0,4.283c.439,3.246,1.932,6.247,3.316,9.174A38.252,38.252,0,0,0-59.6,28.584a20.537,20.537,0,0,1,2.179,4.031,11.759,11.759,0,0,1,.842,3.809A2.8,2.8,0,0,1-58.217,39a3.845,3.845,0,0,1-2.208-.068,19.357,19.357,0,0,1-9.49-5.765c-.233.932.072,2.461-.126,3.4-.154.733-.066,1.451-.241,2.2a11.428,11.428,0,0,1-2.76,4.7,1.83,1.83,0,0,0-.455.724,1.325,1.325,0,0,0,1,1.414,5.177,5.177,0,0,0,1.889.066,9.843,9.843,0,0,1,4.743.941,19.726,19.726,0,0,1,3.689,2.5l3.56,2.829c1.124.892,2.205,1.823,3.3,2.731a41.454,41.454,0,0,0,3.662,2.765c1.591,1.043,4.372,2.856,6.261,1.589,1.643-1.1,3.038-5.58,3.928-7.346,1.378-2.733,2.682-5.5,3.878-8.321a84.712,84.712,0,0,0,5.67-18.106c2.108-11.806,0-24.272-10.8-31.433" transform="translate(73.522 10.638)" fill="#ff7373"></path></g><g id="g678" transform="translate(196.532 101.663)"><path id="path680" d="M-.067-.2-.116-.349-.067-.2" transform="translate(0.116 0.349)" fill="#fff"></path></g><g id="g682" transform="translate(195.169 98.016)"><path id="path684" d="M-.985-2.5Q-1.325-3.4-1.7-4.3q.371.894.711,1.8" transform="translate(1.696 4.296)" fill="#fff"></path></g><g id="g686" transform="translate(194.772 97.088)"><path id="path688" d="M-.531-1.243q-.188-.45-.383-.9.2.447.383.9" transform="translate(0.915 2.14)" fill="#fff"></path></g><g id="g690" transform="translate(195.908 99.892)"><path id="path692" d="M-.866-2.456q-.3-.891-.625-1.771.329.88.625,1.771" transform="translate(1.491 4.227)" fill="#fff"></path></g><g id="g694" transform="translate(196.581 101.809)"><path id="path696" d="M-.384-1.2c-.089-.289-.183-.576-.277-.863Q-.2-.676.176.732q.148.548.3,1.113C.255.84-.066-.171-.384-1.2" transform="translate(0.661 2.06)" fill="#fff"></path></g><g id="g698" transform="translate(205.684 79.21)"><path id="path700" d="M-.087-.005l-.063,0,.062,0Z" transform="translate(0.149 0.009)" fill="#fff"></path></g><g id="g702" transform="translate(199.877 79.113)"><path id="path704" d="M0,0l.077,0L0,0" transform="translate(0 0.005)" fill="#fff"></path></g><g id="g706" transform="translate(201.83 79.078)"><path id="path708" d="M0,0H0" fill="#fff"></path></g><g id="g710" transform="translate(203.768 79.104)"><path id="path712" d="M0,0,.129,0,0,0" fill="#fff"></path></g><g id="g714" transform="translate(141.278 119.861)"><path id="path716" d="M-.194-8.316a5.013,5.013,0,0,1,0-2.34,5.108,5.108,0,0,1,3.521-3.657l.145.511a4.632,4.632,0,0,0-3.15,3.271,4.632,4.632,0,0,0,1.3,4.351l-.363.389A5.067,5.067,0,0,1-.194-8.316" transform="translate(0.335 14.313)" fill="#152146"></path></g><g id="g718" transform="translate(63.427 152.947)"><path id="path720" d="M-24.317-10.862c-.521.176-1.123.417-1.374.458a13.627,13.627,0,0,1-2.639.166c-3.187-.1-5.854-1-7.946-3.445q-1.7-1.987-3.3-4.058a3.026,3.026,0,0,0-.77-.78,1.007,1.007,0,0,0-1.045-.051,1.172,1.172,0,0,0-.445.761c-.323,1.507,4.721,11.027,4.721,11.027,2.8,4.577,4.487,7.029,4.487,7.029l1.02,1.93h0l-1.134.491c.013.027.026.053.04.079l1,2.1A129.55,129.55,0,0,0-19.582-.872Z" transform="translate(41.855 18.696)" fill="#152146"></path></g><g id="g722" transform="translate(100.983 108.868)"><path id="path724" d="M-123.215-74a7.836,7.836,0,0,0,2.51.754,23.781,23.781,0,0,0,8.211-.27,16.644,16.644,0,0,0,9.271-5.448,21.488,21.488,0,0,0,1.994-2.976,26.259,26.259,0,0,0,2.078-4.387,8.467,8.467,0,0,0,.575-3.336c-.172-2.534-2.381-4.507-4.034-6.195q-3.133-3.2-6.495-6.159a110.841,110.841,0,0,0-27.27-17.663,124.385,124.385,0,0,0-11.933-4.67q-2.625-.88-5.279-1.667-1.216-.364-2.435-.714a7.225,7.225,0,0,0-2.2-.626A10.694,10.694,0,0,0-161.8-126c-2.579,1.537-27.785,27.257-38.049,38.076-4.248,4.478-12.32,11.126-12.228,11.211.061.057.018.167.1.168,1.469.021,2.015,5.449,3.665,5.1,14.194-3.03,30-12.444,40.644-22.32a89.024,89.024,0,0,1,8.557-7.642,84.966,84.966,0,0,0,26.628,13.987c.146.046.663,2.78.776,3.109a19.031,19.031,0,0,0,1.38,3.079,19.29,19.29,0,0,0,4.123,5.1A14.169,14.169,0,0,0-123.215-74" transform="translate(212.08 127.365)" fill="#ffc6a7"></path></g><g id="g726" transform="translate(112.901 108.868)"><path id="path728" d="M-142.734-55.285a5.138,5.138,0,0,0,.163-2.132c-.27-1.216-1.763-2.2-2.552-3.058a122.054,122.054,0,0,0-9.5-9.331,110.828,110.828,0,0,0-27.27-17.663A124.339,124.339,0,0,0-193.82-92.14q-2.625-.88-5.279-1.667-1.215-.364-2.435-.714a7.241,7.241,0,0,0-2.2-.626,10.682,10.682,0,0,0-3.584,1.351c-2.579,1.537-27.785,27.256-38.049,38.076-.1.107-.206.215-.311.325,2.379,3.658,5.013,7.144,7.744,10.55a102.368,102.368,0,0,0,24.75-16.72,89.116,89.116,0,0,1,8.557-7.642c7.952,6.192,16.594,11.373,26.209,14.4a17.389,17.389,0,0,0,4.987,9.423c2.873,2.895,6.019,4.773,10.118,5.109a25.074,25.074,0,0,0,8.708-.663,15.587,15.587,0,0,0,7.451-4.416,18.139,18.139,0,0,0,3.859-7.874c.141-.567.382-1.308.559-2.055" transform="translate(245.675 95.158)" fill="#ffa600"></path></g><g id="g730" transform="translate(83.618 155.051)"><path id="path732" d="M-26.172-1.82c-.421.354-.894.8-1.112.927a13.627,13.627,0,0,1-2.4,1.116c-3,1.067-5.816,1.2-8.655-.315q-2.31-1.231-4.556-2.576a3.034,3.034,0,0,0-1-.446,1.007,1.007,0,0,0-.992.332,1.168,1.168,0,0,0-.137.872c.247,1.522,8.413,8.551,8.413,8.551,4.274,3.243,6.738,4.913,6.738,4.913l1.653,1.426h0l-.877.87.066.059,1.693,1.594A129.766,129.766,0,0,0-18.123,5.76Z" transform="translate(45.047 3.132)" fill="#152146"></path></g><g id="g734" transform="translate(195.872 68.579)"><path id="path736" d="M-17.984-8.942a12.362,12.362,0,0,0,1.013,3.081c.555,1.031,1.441,1.876.947,3.131a5.266,5.266,0,0,1-1.157,1.606,14.334,14.334,0,0,1-4.407,3.514,7.449,7.449,0,0,1-4.252.554,6.807,6.807,0,0,1-3.78-2,4.863,4.863,0,0,1-1.228-2.138,3.4,3.4,0,0,1,.042-1.831c.217-.677.616-.741,1.28-.877a2.281,2.281,0,0,1,.751-.07.532.532,0,0,1,.029-.207,8.819,8.819,0,0,0,0-3.1,4.673,4.673,0,0,1,.639-2.977A4.692,4.692,0,0,1-26.318-11.6a29.253,29.253,0,0,1,2.722-1.14,16.756,16.756,0,0,1,2.444-.775c.618-.13,1.721-2.176,2.312-1.84.544.309.2,3.644.856,6.412" transform="translate(30.954 15.391)" fill="#ffc6a7"></path></g><g id="g738" transform="translate(198.072 68.579)"><path id="path740" d="M-.107-15.18a2.862,2.862,0,0,0,2.643.768,6.7,6.7,0,0,0,3.32-2.868A31.786,31.786,0,0,0,8.77-22.616c.433-.963.824-1.944,1.2-2.931-.053-.287-.127-.48-.239-.543-.591-.336-1.694,1.709-2.312,1.84a16.844,16.844,0,0,0-2.444.775,29.47,29.47,0,0,0-2.722,1.14A4.7,4.7,0,0,0,.467-20.988,4.669,4.669,0,0,0-.172-18.01,11.027,11.027,0,0,1-.107-15.18" transform="translate(0.184 26.127)" fill="#ffb095"></path></g><g id="g742" transform="translate(190.885 52.375)"><path id="path744" d="M-8.246-.114a6.711,6.711,0,0,0-3.516,1.992,9.124,9.124,0,0,0-.948,11.184l3.068-3.154A23.742,23.742,0,0,0-4.665,3.443c.4-.893.753-2.027,0-2.777a4.365,4.365,0,0,0-3.585-.78" transform="translate(14.193 0.196)" fill="#0e1c3b"></path></g><g id="g746" transform="translate(192.727 55.595)"><path id="path748" d="M-19.215-2.471A6.671,6.671,0,0,1-17.5,2.339a16.147,16.147,0,0,1-1.464,7.6A11.369,11.369,0,0,1-24.41,15.4c-1.951.872-4.445,1-6.041-.388a6.614,6.614,0,0,1-1.785-3.3,22.369,22.369,0,0,1-.648-8.957,9.983,9.983,0,0,1,.6-2.492A7.23,7.23,0,0,1-28.6-3.467c2.7-1.243,7.108-1.084,9.39,1" transform="translate(33.073 4.253)" fill="#ffc6a7"></path></g><g id="g750" transform="translate(192.996 60.012)"><path id="path752" d="M-20.838,0a6.552,6.552,0,0,0-.672,1.433c-1.062,3.074-1.356,7.826-5.362,8.521a6.675,6.675,0,0,1-3.012-.32,3.4,3.4,0,0,0-1.325-.187,5.115,5.115,0,0,0-1.6.616,6.331,6.331,0,0,1-2.659.856c.054.213.109.426.169.638.344,1.219-1.208,4.415-.251,5.251,1.6,1.393,8.676.872,10.627,0,2.4-1.073,1.754-4.675,2.895-7.028a16.153,16.153,0,0,0,1.464-7.6A10.937,10.937,0,0,0-20.838,0" transform="translate(35.866)" fill="#152146"></path></g><g id="g754" transform="translate(195.965 64.287)"><path id="path756" d="M-.784-5.334a4.308,4.308,0,0,1-.153-.8c-.035-.469-.15-.928-.19-1.4-.045-.515-.148-1.039-.222-1.554-.012-.085.113-.135.15-.049A7.1,7.1,0,0,1-.946-7.915,10.531,10.531,0,0,1-.78-6.855c.045.393.125.792.206,1.179.042.2.07.5.264.628A1.074,1.074,0,0,0,.5-5.034c.195-.054.3.246.108.294A1.281,1.281,0,0,1-.543-4.86a.864.864,0,0,1-.241-.474" transform="translate(1.349 9.18)" fill="#eb9680"></path></g><g id="g758" transform="translate(196.805 69.943)"><path id="path760" d="M-.212-1.644c.177,0,.27.136.411.216a.87.87,0,0,0,.837.089,1.144,1.144,0,0,0,.589-.587,3.107,3.107,0,0,0,.268-.832.083.083,0,0,1,.157-.025,1.373,1.373,0,0,1-.129.921,1.445,1.445,0,0,1-.616.732,1.271,1.271,0,0,1-.8.172,1,1,0,0,1-.35-.134,2.212,2.212,0,0,1-.211-.123c-.051-.037-.11-.137-.178-.139-.189,0-.163-.291.023-.291" transform="translate(0.365 2.83)" fill="#eb9680"></path></g><g id="g762" transform="translate(198.185 61.6)"><g id="g776"><g id="g774" opacity="0.67" clip-path="url(#clip-path-4)"><g id="g772" transform="translate(0 0)"><path id="path770" d="M-.015-.449A.369.369,0,0,1,.221-.628a2.688,2.688,0,0,1,1.753.005A1.8,1.8,0,0,1,3.2.256a.39.39,0,0,1,.046.149c.006.14-.125.254-.261.319A1.627,1.627,0,0,1,1.9.708,6.124,6.124,0,0,1,.631.265,1.1,1.1,0,0,1-.008-.286.248.248,0,0,1-.015-.449" transform="translate(0.026 0.773)" fill="#000115"></path></g></g></g></g><g id="g778" transform="translate(192.369 61.573)"><g id="g792"><g id="g790" opacity="0.67" clip-path="url(#clip-path-5)"><g id="g788" transform="translate(0 0)"><path id="path786" d="M-.007-1.541a.311.311,0,0,1,.079-.244,2.071,2.071,0,0,1,1.244-.783,1.529,1.529,0,0,1,1.3.13.357.357,0,0,1,.106.094.35.35,0,0,1-.028.364,1.25,1.25,0,0,1-.779.477A4.827,4.827,0,0,1,.8-1.279a.954.954,0,0,1-.723-.139.246.246,0,0,1-.085-.123" transform="translate(0.012 2.653)" fill="#000115"></path></g></g></g></g><g id="g794" transform="translate(198.882 64.682)"><path id="path796" d="M-.04-1.2A.673.673,0,0,0,.8-.753a.673.673,0,0,0,.45-.839A.673.673,0,0,0,.41-2.042.673.673,0,0,0-.04-1.2" transform="translate(0.069 2.071)" fill="#000115"></path></g><g id="g798" transform="translate(193.464 64.412)"><path id="path800" d="M-.047-1.146a.624.624,0,0,0,.731.482.624.624,0,0,0,.342-.806.624.624,0,0,0-.731-.482.625.625,0,0,0-.342.806" transform="translate(0.082 1.973)" fill="#000115"></path></g><g id="g802" transform="translate(196.3 52.769)"><path id="path804" d="M-11.849-14.794a10.49,10.49,0,0,0,2.933.282.415.415,0,0,1,.29.059.379.379,0,0,1,.106.249c.213,1.552-1.318,3.254-.579,4.737,1.023-.168,1.366-1.411,1.951-2.149.7-.879,1.51-1.657,2.254-2.494,1.256-1.415,2.373-3.2,2.1-5.077-.27-1.848-1.824-3.241-3.442-4.173a16.022,16.022,0,0,0-8.02-2.1c-1.4.006-5.925.064-6.132,2.134a5.467,5.467,0,0,0,1.064,2.586,12.086,12.086,0,0,0,7.475,5.95" transform="translate(20.394 25.463)" fill="#152146"></path></g><g id="g806" transform="translate(198.285 66.508)"><path id="path808" d="M-4.318-.2A.926.926,0,0,1-3.63.575a.813.813,0,0,1-.14.414A2.285,2.285,0,0,1-5.7,1.822c-.779.02-2.4-.753-1.432-1.692A3.511,3.511,0,0,1-4.318-.2" transform="translate(7.433 0.349)" fill="#ffb095"></path></g><g id="g810" transform="translate(192.781 66.28)"><path id="path812" d="M-.235-2.559q-.114-.8-.17-1.615A3.753,3.753,0,0,1,1.9-4.265a.876.876,0,0,1,.649.734.753.753,0,0,1-.131.389,2.132,2.132,0,0,1-1.814.778,2.128,2.128,0,0,1-.843-.2" transform="translate(0.405 4.405)" fill="#ffb095"></path></g><g id="g814" transform="translate(197.574 56.044)"><path id="path816" d="M-.212-.054A10.96,10.96,0,0,0,.879,1.552,12.461,12.461,0,0,0,2.222,3.088,11.617,11.617,0,0,0,5.178,5.393,9.229,9.229,0,0,0,8.693,6.468a12.1,12.1,0,0,0,1.6-.029C11,6.393,11.661,6.2,12.359,6.11c.069-.008.113.1.04.124A9.422,9.422,0,0,1,8.585,6.7a10.29,10.29,0,0,1-1.907-.392,10.627,10.627,0,0,1-1.814-.793A9.091,9.091,0,0,1,3.434,4.5,10.709,10.709,0,0,1,2.046,3.241a12.987,12.987,0,0,1-1.23-1.4A8.712,8.712,0,0,1-.36.011c-.034-.085.109-.149.148-.065" transform="translate(0.365 0.094)" fill="#3d599d"></path></g><g id="g818" transform="translate(206.514 63.126)"><path id="path820" d="M-.118,0A2.1,2.1,0,0,0,.1.062a.578.578,0,0,0,.2-.013C.37.03.4.158.327.184.173.24-.083.267-.191.114A.075.075,0,0,1-.118,0" transform="translate(0.204 0.004)" fill="#3d599d"></path></g><g id="g822" transform="translate(205.966 62.878)"><path id="path824" d="M-2.37-.116a2.288,2.288,0,0,1,1.246.006A2.162,2.162,0,0,1,.329,1.536a2.367,2.367,0,0,1-.7,2.1A2.614,2.614,0,0,1-2.5,4.312a1.751,1.751,0,0,1-.72-.245,2.693,2.693,0,0,1-.858-2.284,2.321,2.321,0,0,1,1.7-1.9" transform="translate(4.08 0.2)" fill="#ffb69e"></path></g><g id="g826" transform="translate(205.974 64.106)"><path id="path828" d="M0-1.627a2.937,2.937,0,0,1,.72-.749,1.685,1.685,0,0,1,1.453-.372,1.064,1.064,0,0,1,.673,1.474,1.85,1.85,0,0,1-2.67.538A3.541,3.541,0,0,1,0-1.627" transform="translate(0 2.8)" fill="#ffb095"></path></g><g id="g830" transform="translate(207.81 63.939)"><path id="path832" d="M-.026-.293-.032-.3v0A.081.081,0,0,1-.04-.372C.027-.57.45-.5.6-.467a.961.961,0,0,1,.7.714c.011.044-.054.06-.074.023A1.211,1.211,0,0,0,.6-.27C.516-.289.177-.346.106-.281A.091.091,0,0,1-.02-.287a0,0,0,0,1,0,0L-.026-.293" transform="translate(0.044 0.505)" fill="#eb9680"></path></g><g id="g834" transform="translate(207.694 64.819)"><path id="path836" d="M-.025-1.06a.98.98,0,0,1,.149-.745c.033-.048.1,0,.083.053a1.245,1.245,0,0,0-.041.66.905.905,0,0,0,.172.459A.593.593,0,0,1,.47-.474a.076.076,0,0,1-.083.1C.079-.429.02-.806-.025-1.06" transform="translate(0.043 1.824)" fill="#eb9680"></path></g><g id="g838" transform="translate(157.179 61.809)"><path id="path840" d="M-23.048-11.545c1.136,0,15-6.15,19.208-8.326.037,0,2.7,28.893,2.793,28.706.034-.013-17.816,9.817-17.816,9.817s-12.516-5.8-13.036-6.405c-.493-.575-7.976-29.628-7.766-29.807s15.357,6.01,16.618,6.015" transform="translate(39.67 19.871)" fill="#725ae9"></path></g><g id="g842" transform="translate(180.66 80.893)"><path id="path844" d="M-11.87-9.708c-.481-.959-.975-1.911-1.443-2.877a16.881,16.881,0,0,0-1.269-2.4,4,4,0,0,0-1.922-1.594,3.526,3.526,0,0,0-2.85.506.211.211,0,0,1-.131.03c-1.341.941-.978,2.754-.582,4.168a14.416,14.416,0,0,1,.953,3.684c0,1.757-1.023,3.318-.742,5.112A13.612,13.612,0,0,0-18.8.359l9.055-4.988A31.41,31.41,0,0,0-11.87-9.708" transform="translate(20.431 16.71)" fill="#6255db"></path></g><g id="g846" transform="translate(157.179 64.116)"><path id="path848" d="M-23.168-8.333a.629.629,0,0,1-.087.008c-1.262-.005-16.412-6.19-16.618-6.015s7.274,29.232,7.766,29.807c.436.51,10.232,5.075,13.086,6.4-.139-1.18-2.524-20.457-4.148-30.205" transform="translate(39.877 14.343)" fill="#35107d"></path></g><g id="g850" transform="translate(181.649 80.795)"><path id="path852" d="M-2.949-6.835a1.12,1.12,0,0,0,.109-.706,1.187,1.187,0,0,0-.187-.343,31.043,31.043,0,0,1-1.915-3.137c-.1-.191-.2-.434-.077-.611.194-.28.629-.064.88.166,1.992,1.826,3.893,3.744,5.857,5.6a21.593,21.593,0,0,1-1.383-2.2c-.1-.207-.8-2.325-.826-2.327a2.813,2.813,0,0,1,1.619.974L24.987,13.827q-.168-2.448-.337-4.9c-.236-3.423-.461-6.942.576-10.212,1.049-3.31,5.324-9.465,9.09-7.108,3.712,2.323,5.376,7.711,6.524,11.863C42.2,8.4,42.053,13.6,42.048,18.718a33.834,33.834,0,0,1-.824,9.369c-.87,3.023-2.828,5.906-5.753,7.064a10.274,10.274,0,0,1-8.7-1.04A28.015,28.015,0,0,1,20.041,28.1Q13.73,21.015,8.013,13.426,4.2,8.372.677,3.116c-1.168-1.74-2.426-3.475-3.455-5.3a4.88,4.88,0,0,1-.2-4.586l.026-.064" transform="translate(5.076 11.765)" fill="#ffc6a7"></path></g><g id="g854" transform="translate(210.847 83.264)"><path id="path856" d="M-.511-29.559C2.434-31.2,5.845-31.78,9.115-32.425c2.028-.4,4.056-.726,6.11-.961.737-.084,1.477-.18,2.217-.248a31.5,31.5,0,0,0-.818-4.014c-1.226-4.434-3-10.188-6.968-12.669-4.021-2.517-8.586,4.056-9.708,7.591-1.107,3.492-.867,7.25-.615,10.9l.156,2.262" transform="translate(0.879 50.878)" fill="#ff8b8b"></path></g><g id="g858" transform="translate(110.024 145.385)"><path id="path860" d="M-19.221-18.359-22.74-15.61-33.084-28.851l3.518-2.749Z" transform="translate(33.084 31.6)" fill="#ffb31b"></path></g><g id="g862" transform="translate(210.963 99.962)"><path id="path864" d="M-.326-6.84l-.235-.477a16.3,16.3,0,0,1,3.379-1.1c5.164-1.265,10.5-2.573,15.862-3.361l.077.525C13.425-10.463,8.1-9.158,2.944-7.9A15.944,15.944,0,0,0-.326-6.84" transform="translate(0.561 11.773)" fill="#152146"></path></g><g id="g866" transform="translate(121.292 127.122)"><path id="path868" d="M-.366-39.558l-.264-.461C6.618-44.176,12.963-49.825,19.1-55.288c3.876-3.45,8.268-7.361,10.409-12.485l.132-.315.273.205A177.224,177.224,0,0,0,61.194-49.118l-.227.48a177.749,177.749,0,0,1-31.1-18.618c-2.23,5.081-6.572,8.946-10.411,12.365C13.3-49.41,6.931-43.743-.366-39.558" transform="translate(0.631 68.088)" fill="#152146"></path></g><g id="g870" transform="translate(201.608 135.977)"><path id="path872" d="M-1.157-14.343a.519.519,0,0,1-.234-.056,1.109,1.109,0,0,1-.5-.808A10.162,10.162,0,0,1,1.9-24.58a.51.51,0,0,1,.56-.041.324.324,0,0,1,.121.369l-.507-.16a.206.206,0,0,0,.036.183.168.168,0,0,0,.118.072,9.611,9.611,0,0,0-3.6,8.872.623.623,0,0,0,.215.411l.254.461a.53.53,0,0,1-.259.07" transform="translate(1.991 24.687)" fill="#152146"></path></g><g id="g874" transform="translate(204.101 137.173)"><path id="path876" d="M-.223-13.83a12.505,12.505,0,0,1,2.736-9.975l.407.342A11.966,11.966,0,0,0,.3-13.917Z" transform="translate(0.383 23.805)" fill="#152146"></path></g><g id="g878" transform="translate(184.782 143.509)"><path id="path880" d="M-18.39-14.649a16.662,16.662,0,0,1-13.263-6.7l.431-.311A16.045,16.045,0,0,0-16.516-15.3,16.049,16.049,0,0,0-3.931-25.215l.5.19a16.594,16.594,0,0,1-13.013,10.25,14.962,14.962,0,0,1-1.943.125" transform="translate(31.653 25.215)" fill="#152146"></path></g><g id="g882" transform="translate(183.35 89.44)"><path id="path884" d="M-50.106-54.5c-3.793,0-7.185-2.382-8.364-3.314a47.309,47.309,0,0,1-5.02-4.8c-1.607-1.7-3.2-3.491-4.867-5.467-3.445-4.082-6.651-8.321-9.06-11.557q-.446-.6-.9-1.2a92.756,92.756,0,0,1-7.931-12.97l1.408,1.99a65.562,65.562,0,0,0,6.948,10.661q.45.6.9,1.2c2.4,3.23,5.6,7.46,9.04,11.531,1.662,1.969,3.248,3.75,4.847,5.446a46.7,46.7,0,0,0,4.962,4.749c1.519,1.2,6.854,4.909,11.744,2.274,4.124-2.222,4.9-7.426,5.125-11.148.039-.635.436-4.351.461-4.919l.161,3.1c-.025.57-.053,1.217-.092,1.857-.233,3.848-1.046,9.236-5.4,11.583a8.236,8.236,0,0,1-3.961.989" transform="translate(86.242 93.813)" fill="#152146"></path></g><g id="g886" transform="translate(215.76 123.32)"><path id="path888" d="M-7.057-3.205a7.771,7.771,0,0,1-5.09-1.914l.352-.4A7.21,7.21,0,0,0-6.361-3.773a3.033,3.033,0,0,0,2.126-.972l.425.319a3.446,3.446,0,0,1-2.5,1.182,7.167,7.167,0,0,1-.751.039" transform="translate(12.147 5.517)" fill="#152146"></path></g><g id="g890" transform="translate(150.488 110.966)"><path id="path892" d="M-.681-3.589l-.491-.2A3.972,3.972,0,0,1,3.2-6.1l-.108.521A3.471,3.471,0,0,0-.681-3.589" transform="translate(1.172 6.178)" fill="#152146"></path></g><g id="g894" transform="translate(109.826 148.07)"><path id="path896" d="M-14.535-19.176l-10.483-13.5.42-.326,10.483,13.5Z" transform="translate(25.019 33.005)" fill="#152146"></path></g><g id="g898" transform="translate(113.352 145.425)"><path id="path900" d="M-14.115-18.389l-10.18-12.934.418-.329L-13.7-18.718Z" transform="translate(24.295 31.651)" fill="#152146"></path></g><g id="g902" transform="translate(118.08 155.786)"><path id="path904" d="M-.312-3.816-.537-4.3a8.3,8.3,0,0,0,2.9-2.271l.413.335A8.82,8.82,0,0,1-.312-3.816" transform="translate(0.537 6.568)" fill="#152146"></path></g><g id="g906" transform="translate(123.007 132.02)"><path id="path908" d="M-.356-36.46l-.256-.465A124.179,124.179,0,0,0,25.269-55.949c2.045-1.958,4.126-4.1,5.135-6.806l.5.185c-1.048,2.816-3.176,5.005-5.265,7.005A124.711,124.711,0,0,1-.356-36.46" transform="translate(0.612 62.756)" fill="#152146"></path></g><g id="g910" transform="translate(151.73 132.293)"><path id="path912" d="M-38.858-21.9A50.421,50.421,0,0,1-66.884-37.335l.392-.36A49.877,49.877,0,0,0-38.764-22.423Z" transform="translate(66.884 37.695)" fill="#152146"></path></g><g id="g914" transform="translate(179.723 146.446)"><path id="path916" d="M-24.676-23.933c-.607,0-1.21-.028-1.805-.084a16.754,16.754,0,0,1-9.924-4.336,21.768,21.768,0,0,1-2.9-3.486,16.621,16.621,0,0,1-3.163-7.08l.526-.069a16.133,16.133,0,0,0,3.072,6.844,21.315,21.315,0,0,0,2.833,3.4,16.222,16.222,0,0,0,9.609,4.194,21.667,21.667,0,0,0,10.463-1.778,13.884,13.884,0,0,0,3.194-1.8A12.712,12.712,0,0,0-10.732-30.2a19.327,19.327,0,0,0,4.2-10.993l.531.028a19.864,19.864,0,0,1-4.32,11.3,13.223,13.223,0,0,1-2.129,2.157,14.369,14.369,0,0,1-3.314,1.876,22.861,22.861,0,0,1-8.916,1.9" transform="translate(42.472 41.195)" fill="#152146"></path></g><g id="g918" transform="translate(191.468 124.595)"><path id="path920" d="M-35.265-31.319A181.643,181.643,0,0,0-60.7-53.475l.31-.432A182.2,182.2,0,0,1-34.88-31.685Z" transform="translate(60.699 53.907)" fill="#152146"></path></g><g id="g922" transform="translate(195.395 79.546)"><path id="path924" d="M-9.632-10.256a8.043,8.043,0,0,1-5.434-2.022,4.209,4.209,0,0,1-1.512-2.888,2.389,2.389,0,0,1,2.026-2.486l.036.53a1.872,1.872,0,0,0-1.531,1.943,3.69,3.69,0,0,0,1.341,2.511,7.782,7.782,0,0,0,7.778,1.411A9.643,9.643,0,0,0-1.318-17.1l.5.179a10.184,10.184,0,0,1-5.929,6.168,8.48,8.48,0,0,1-2.886.5" transform="translate(16.579 17.652)" fill="#152146"></path></g><g id="g926" transform="translate(182.668 97.74)"><path id="path928" d="M-10.3-9.9a25.173,25.173,0,0,0-7.426-6.682l.269-.458a25.706,25.706,0,0,1,7.585,6.825Z" transform="translate(17.723 17.041)" fill="#152146"></path></g><g id="g930" transform="translate(183.162 86.943)"><path id="path932" d="M-4.293-5.389a12.842,12.842,0,0,1-3.1-3.624l.461-.263A12.3,12.3,0,0,0-3.961-5.8Z" transform="translate(7.389 9.276)" fill="#152146"></path></g><g id="g934" transform="translate(183.772 85.173)"><path id="path936" d="M-4.721-5.91a21.307,21.307,0,0,1-3.4-3.969l.443-.293A20.768,20.768,0,0,0-4.363-6.3Z" transform="translate(8.125 10.172)" fill="#152146"></path></g><g id="g938" transform="translate(211.021 96.899)"><path id="path940" d="M-.229-7.1l-.165-.505a159.7,159.7,0,0,1,17.425-4.616l.107.521A159.214,159.214,0,0,0-.229-7.1" transform="translate(0.393 12.221)" fill="#152146"></path></g><g id="g942" transform="translate(184.438 96.305)"><path id="path944" d="M-6.994-5.688h0m.22.8c-.04-.038-.232-.169-.336-.24a1.892,1.892,0,0,1-.27-.2,29.543,29.543,0,0,0-4.658-4.031l.3-.436A30.1,30.1,0,0,1-7-5.7c.03.023.123.087.192.135.37.253.432.3.474.387l-.475.238a.224.224,0,0,0,.037.053" transform="translate(12.039 9.791)" fill="#152146"></path></g><g id="g946" transform="translate(189.482 100.045)"><path id="path948" d="M-1.487-32.389l-.525-.083a64.185,64.185,0,0,0-.548-23.168l.52-.108a64.711,64.711,0,0,1,.552,23.359" transform="translate(2.559 55.748)" fill="#152146"></path></g></g></g></g></svg> 