<?xml version="1.0" encoding="UTF-8"?> <svg xmlns="http://www.w3.org/2000/svg" width="606.044" height="320.847" viewBox="0 0 606.044 320.847"><g id="wisdom" transform="translate(0.154 -0.338)"><rect id="Frame_81" data-name="Frame 81" width="606.044" height="320.847" transform="translate(-0.154 0.338)" fill="#e3e8fc"></rect><g id="g12" transform="translate(33.837 110.121)"><g id="Group_52" data-name="Group 52" transform="translate(0)"><g id="g28" transform="translate(0 40.506)"><path id="path30" d="M-11.194-75.635c-6.976-8.149-14.157-16.678-16.9-27.05s.395-23.134,9.914-28.08c11.122-5.778,24.346,1.2,34.883,7.987-4.477-12.382-7.8-25.535-6.4-38.627s8.25-26.167,19.914-32.276c4.49-2.352,10-3.568,14.6-1.434,7.379,3.425,8.806,13.376,7.506,21.406s-4.268,16.291-1.876,24.067c4.775-1.565,7.667-6.912,12.546-8.108,6.344-1.554,12.214,5.276,12.288,11.807s-3.693,12.41-7.32,17.842c15.446-16.988,43.532-20.639,62.808-8.163s25.87,38.84,16.7,59.89Z" transform="translate(29.041 196.221)" fill="#c6ccf3"></path></g><g id="g32" transform="translate(299.851)"><path id="path34" d="M-14.925-100.845c-9.3-10.865-18.876-22.237-22.527-36.066s.525-30.844,13.218-37.438c14.828-7.7,32.459,1.6,46.509,10.648-5.969-16.508-10.406-34.046-8.536-51.5s11-34.889,26.551-43.034c5.986-3.136,13.337-4.758,19.466-1.913,9.838,4.567,11.74,17.835,10.007,28.542s-5.691,21.721-2.5,32.087c6.365-2.086,10.222-9.215,16.729-10.809,8.459-2.072,16.284,7.034,16.383,15.743s-4.923,16.544-9.758,23.788c20.594-22.651,58.042-27.519,83.742-10.885s34.494,51.787,22.265,79.852Z" transform="translate(38.72 261.623)" fill="#c6ccf3"></path></g><g id="g36" transform="translate(357.631 26.53)"><path id="path38" d="M-14.7-79.9a31.455,31.455,0,0,1,6.447,6.857H39.251c.2-2.756-.8-5.357-3.4-6.459-2.768-1.173-5.911-.1-8.913.07s-6.757-1.533-6.526-4.53c.251-3.25,4.546-4.1,7.8-4.278a71.189,71.189,0,0,0,22.506-4.972c5.591-2.236,11.185-5.469,14.03-10.776s1.747-13.056-3.605-15.814c-7.615-3.924-16.573,4.187-25,2.622a5.718,5.718,0,0,1-3.657-1.991c-1.847-2.524-.032-6.04,1.922-8.481,6.713-8.386,15.247-15.1,22.841-22.694S71.734-166.9,73.8-177.443,71.889-200.3,62.319-205.175c-10.4-5.3-23.731-.052-31.063,9.027s-9.981,20.99-11.871,32.506-3.335,23.408-8.853,33.692a6.726,6.726,0,0,1-1.839,2.393c-3.241,2.327-7.318-1.694-8.862-5.373s-3.722-8.367-7.7-8.034c-2.914.244-4.816,3.439-4.818,6.362s1.339,5.654,2.416,8.372A50.312,50.312,0,0,1-8.4-95.116c-5.86-.9-9.279-6.825-13.21-11.264s-11.672-7.48-15.253-2.756c-2.335,3.082-1.146,7.575.905,10.853,5,7.99,13.9,12.477,21.252,18.38" transform="translate(38.142 207.295)" fill="#7990ec"></path></g><g id="g40" transform="translate(397.774 30.333)"><path id="path42" d="M-.8-81.819A785.546,785.546,0,0,1,55.756-211.679l-1.068-.586A786.583,786.583,0,0,0-2.088-81.819Z" transform="translate(2.088 212.265)" fill="#031133"></path></g><g id="g44" transform="translate(451.408 120.023)"><path id="path46" d="M-.181-3.251a22.257,22.257,0,0,0,8.6-4.232l-.762-.95a21.018,21.018,0,0,1-8.127,4Z" transform="translate(0.469 8.433)" fill="#031133"></path></g><g id="g48" transform="translate(408.819 125.573)"><path id="path50" d="M0-4.282a79.475,79.475,0,0,0,40-5.7l-.474-1.123A78.262,78.262,0,0,1,.14-5.492Z" transform="translate(0 11.109)" fill="#031133"></path></g><g id="g52" transform="translate(399.251 132.885)"><path id="path54" d="M-2.342-8.148l1.147-.41A114.564,114.564,0,0,1-4.89-21.139l-1.186.276A115.864,115.864,0,0,0-2.342-8.148" transform="translate(6.076 21.139)" fill="#031133"></path></g><g id="g56" transform="translate(388.38 100.467)"><path id="path58" d="M-5.683-18.053l1.187-.272a178.526,178.526,0,0,0-9.123-28.51l-1.125.467A177.268,177.268,0,0,1-5.683-18.053" transform="translate(14.744 46.836)" fill="#031133"></path></g><g id="g60" transform="translate(423.414 159.531)"><path id="path62" d="M-5.061-.782l.287-.043-.184-1.2L-13.131-.782Z" transform="translate(13.131 2.029)" fill="#031133"></path></g><g id="g64" transform="translate(389.565 152.155)"><path id="path66" d="M-3.665-5.409h1.324a22.225,22.225,0,0,0-6.4-8.623l-.772.942A21,21,0,0,1-3.665-5.409" transform="translate(9.509 14.032)" fill="#031133"></path></g><g id="g68" transform="translate(362.412 128.19)"><path id="path70" d="M-14.575-13.487l.968-.74c-5.22-6.824-12.107-12.085-18.767-17.173l-4.7-3.59-.739.968,4.7,3.59c6.6,5.04,13.417,10.251,18.539,16.946" transform="translate(37.812 34.991)" fill="#031133"></path></g><g id="g72" transform="translate(446.678 61.379)"><path id="path74" d="M-.377-8.122a77.643,77.643,0,0,0,14.651-10.74c1.041-.97,1.008-1.736.8-2.209l-1.113.5c.05.111-.056.392-.515.82A76.435,76.435,0,0,1-.977-9.183Z" transform="translate(0.977 21.072)" fill="#031133"></path></g><g id="g76" transform="translate(429.233 76.196)"><path id="path78" d="M-.291-5.2A95.158,95.158,0,0,0,13.83-12.45l-.645-1.032A94.011,94.011,0,0,1-.755-6.324Z" transform="translate(0.755 13.483)" fill="#031133"></path></g><g id="g80" transform="translate(439.544 32.632)"><path id="path82" d="M-.677-15.891l1.2-.211A69.381,69.381,0,0,1,.654-41l-1.2-.225A70.6,70.6,0,0,0-.677-15.891" transform="translate(1.757 41.227)" fill="#031133"></path></g><g id="g84" transform="translate(417.268 73.053)"><path id="path86" d="M-.863-20.453.346-20.6A179.154,179.154,0,0,1-.725-52.991l-1.216-.07A180.325,180.325,0,0,0-.863-20.453" transform="translate(2.24 53.061)" fill="#031133"></path></g><g id="g88" transform="translate(74.51 37.737)"><path id="path90" d="M-18.137-65.227c-.6,2.358-3.924,2.684-6.182,1.776S-28.707-66-31.135-65.824c-4.834.358-5.93,7.749-2.747,11.405,4.234,4.863,11.256,4.844,16.515,7.988H-2.194a23.437,23.437,0,0,1,9.921-6.548c7.17-2.614,15.164-3.737,21.076-8.563,2.425-1.979,4.5-5.115,3.517-8.084-1.517-4.556-8.243-4.237-12.411-1.857s-8.332,6.036-13.059,5.2A40.735,40.735,0,0,1,16.379-89.65c1.533-1.8,3.27-3.547,4.03-5.79s.132-5.186-2.039-6.131c-2.962-1.29-5.852,1.738-7.992,4.157S4.065-92.972,2.186-95.6A5.442,5.442,0,0,1,1.4-97.913c-1.555-9.32.431-18.813,1.977-28.134s2.613-19.141-.646-28.01-12.117-16.361-21.467-15c-8.607,1.251-14.864,9.656-16.019,18.276s1.794,17.277,5.641,25.076,8.644,15.165,11.609,23.341c.864,2.38,1.341,5.548-.733,7a4.636,4.636,0,0,1-3.322.575c-6.864-.991-11.622-9.541-18.481-8.513-4.821.722-7.678,6.377-6.878,11.187s4.248,8.742,7.953,11.911A57.652,57.652,0,0,0-23-70.536c2.448.983,5.52,2.752,4.867,5.309" transform="translate(47.053 169.219)" fill="#7990ec"></path></g><g id="g92" transform="translate(104.132 40.11)"><path id="path94" d="M-5.972-75.529h.987a636.877,636.877,0,0,0-9.536-120.416l-.971.171A635.887,635.887,0,0,1-5.972-75.529" transform="translate(15.492 195.945)" fill="#031133"></path></g><g id="g96" transform="translate(77.119 107.577)"><path id="path98" d="M-3.446-3.771A18.019,18.019,0,0,1-8.94-9.253l.832-.531A17.006,17.006,0,0,0-2.917-4.6Z" transform="translate(8.94 9.784)" fill="#031133"></path></g><g id="g100" transform="translate(84.435 114.745)"><path id="path102" d="M-18.3-9.732a64.335,64.335,0,0,1-29.18-14.777l.655-.738A63.351,63.351,0,0,0-18.1-10.7Z" transform="translate(47.483 25.247)" fill="#031133"></path></g><g id="g104" transform="translate(113.809 132.812)"><path id="path106" d="M-.485-5.832l-.773-.613a92.7,92.7,0,0,0,6.105-8.685l.838.521A93.785,93.785,0,0,1-.485-5.832" transform="translate(1.259 15.129)" fill="#031133"></path></g><g id="g108" transform="translate(122.319 110.8)"><path id="path110" d="M-.526-12.547l-.839-.518a144.606,144.606,0,0,1,14.41-19.486l.742.651A143.627,143.627,0,0,0-.526-12.547" transform="translate(1.365 32.551)" fill="#031133"></path></g><g id="g112" transform="translate(88.648 145.139)"><path id="path114" d="M-5.157-3.224-13.379-7.49l.455-.875L-4.7-4.1Z" transform="translate(13.379 8.365)" fill="#031133"></path></g><g id="g116" transform="translate(99.903 151.091)"><path id="path118" d="M-7.837-5.918h1.329a34.521,34.521,0,0,0-13.466-9.435l-.357.919A33.544,33.544,0,0,1-7.837-5.918" transform="translate(20.331 15.353)" fill="#031133"></path></g><g id="g120" transform="translate(114.118 150.213)"><path id="path122" d="M-.513-4.569l-.818-.551A17.984,17.984,0,0,1,7.2-11.853l.346.923A17,17,0,0,0-.513-4.569" transform="translate(1.331 11.853)" fill="#031133"></path></g><g id="g124" transform="translate(126.332 138.911)"><path id="path126" d="M-.344-6.67-.893-7.49c5.777-3.874,12.426-6.117,18.856-8.285L22.5-17.305l.315.935-4.535,1.53C11.909-12.693,5.323-10.472-.344-6.67" transform="translate(0.893 17.305)" fill="#031133"></path></g><g id="g128" transform="translate(90.461 61.786)"><path id="path130" d="M-5.5-8.748a62.821,62.821,0,0,1-8.44-12.046c-.546-1.014-.321-1.594-.036-1.9l.724.671c-.067.072-.06.315.181.763A61.858,61.858,0,0,0-4.767-9.405Z" transform="translate(14.276 22.695)" fill="#031133"></path></g><g id="g132" transform="translate(101.132 78.232)"><path id="path134" d="M-5.608-6.183a77.076,77.076,0,0,1-8.94-9.234l.764-.624A76.1,76.1,0,0,0-4.959-6.926Z" transform="translate(14.548 16.041)" fill="#031133"></path></g><g id="g136" transform="translate(107.728 45.32)"><path id="path138" d="M-.542-12.293l-.864-.474A56.168,56.168,0,0,0,4.969-31.892l.977.139A57.162,57.162,0,0,1-.542-12.293" transform="translate(1.407 31.892)" fill="#031133"></path></g><g id="g140" transform="translate(112.15 82.221)"><path id="path142" d="M-.557-15.67l-.887-.429A145.161,145.161,0,0,0,7.8-40.652l.95.262A146,146,0,0,1-.557-15.67" transform="translate(1.444 40.652)" fill="#031133"></path></g></g></g><g id="Book_lover-amico" data-name="Book lover-amico" transform="translate(162.428 30.045)"><g id="freepik--Shadows--inject-3" transform="translate(17.185 131.422)"><path id="freepik--Shadow--inject-3" d="M185.956,402.843,235.651,374l-37.359-21.569-3.4-5.307s-18.3-3.925-24.27-.94-37.409,14.281-37.409,14.281S80.248,318.446,76.48,316.287s-25.93,11.567-16.13,20.97,29.66,21.058,38.766,25.028,24.725,7.743,24.725,7.743-2.474,3.483,4.79,8.835,38.879,19.872,43.2,21.317a26.906,26.906,0,0,0,10.766.751Z" transform="translate(-57.871 -283.168)" fill="#e0e0e0"></path><path id="freepik--shadow--inject-3-2" data-name="freepik--shadow--inject-3" d="M408.683,306.327,374.758,325.89a1.894,1.894,0,0,1-1.691,0L301.8,284.675c-.467-.271-.467-.707,0-.972l33.932-19.563a1.843,1.843,0,0,1,1.685,0l71.309,41.208A.524.524,0,0,1,408.683,306.327Z" transform="translate(-147.736 -263.937)" fill="#e0e0e0"></path></g><g id="freepik--Books--inject-3" transform="translate(178.154 84.997)"><g id="freepik--books--inject-3-2" data-name="freepik--books--inject-3" transform="translate(0)"><path id="Path_423" data-name="Path 423" d="M343.812,191.34l-29.5,16.912v50.03l29.5-16.912Z" transform="translate(-313.452 -190.728)" fill="#407bff"></path><path id="Path_424" data-name="Path 424" d="M343.812,191.34l-29.5,16.912v50.03l29.5-16.912Z" transform="translate(-313.452 -190.728)" opacity="0.35"></path><path id="Path_425" data-name="Path 425" d="M315.64,209.912,344.3,193.58a10.442,10.442,0,0,0,5.781,3.155l-28.442,16.294S320.02,212.65,315.64,209.912Z" transform="translate(-313.942 -191.554)" fill="#f5f5f5"></path><path id="Path_426" data-name="Path 426" d="M323.079,211.756a5.365,5.365,0,0,1-4.859,0l-4.26-2.461c-1.344-.77-1.344-2.026,0-2.8l28.29-16.123,1.06.631-27.886,15.972a.885.885,0,0,0,0,1.679l3.963,2.259a3.206,3.206,0,0,0,2.916,0l27.874-15.947,1.2.694Z" transform="translate(-312.951 -190.37)" fill="#407bff"></path><path id="Path_427" data-name="Path 427" d="M323.079,211.756a5.365,5.365,0,0,1-4.859,0l-4.26-2.461c-1.344-.77-1.344-2.026,0-2.8l28.29-16.123,1.06.631-27.886,15.972a.885.885,0,0,0,0,1.679l3.963,2.259a3.206,3.206,0,0,0,2.916,0l27.874-15.947,1.2.694Z" transform="translate(-312.951 -190.37)" opacity="0.25"></path><path id="Path_428" data-name="Path 428" d="M351.369,198.72v50.03l-28.29,16.117a5.4,5.4,0,0,1-4.859,0l-4.266-2.461a1.71,1.71,0,0,1-1-1.4v-50.03a1.71,1.71,0,0,0,1,1.4l4.266,2.467a5.4,5.4,0,0,0,4.859,0Z" transform="translate(-312.95 -193.451)" fill="#407bff"></path><path id="Path_429" data-name="Path 429" d="M351.369,198.72v50.03l-28.29,16.117a5.4,5.4,0,0,1-4.859,0l-4.266-2.461a1.71,1.71,0,0,1-1-1.4v-50.03a1.71,1.71,0,0,0,1,1.4l4.266,2.467a5.4,5.4,0,0,0,4.859,0Z" transform="translate(-312.95 -193.451)" opacity="0.05"></path><path id="Path_430" data-name="Path 430" d="M320.649,222.589a4.979,4.979,0,0,1-2.43-.581l-4.266-2.467a1.71,1.71,0,0,1-1-1.4v50.03a1.71,1.71,0,0,0,1,1.4l4.266,2.461a4.979,4.979,0,0,0,2.43.581Z" transform="translate(-312.95 -200.616)" fill="#407bff"></path><path id="Path_431" data-name="Path 431" d="M320.649,222.589a4.979,4.979,0,0,1-2.43-.581l-4.266-2.467a1.71,1.71,0,0,1-1-1.4v50.03a1.71,1.71,0,0,0,1,1.4l4.266,2.461a4.979,4.979,0,0,0,2.43.581Z" transform="translate(-312.95 -200.616)" opacity="0.2"></path><path id="Path_432" data-name="Path 432" d="M357.992,209.34,333.28,223.7V271l24.712-14.357Z" transform="translate(-320.451 -197.369)" fill="#407bff"></path><path id="Path_433" data-name="Path 433" d="M357.992,209.34,333.28,223.7V271l24.712-14.357Z" transform="translate(-320.451 -197.369)" fill="#fff" opacity="0.55"></path><path id="Path_434" data-name="Path 434" d="M334.54,225.267l23.917-13.807a10.059,10.059,0,0,0,5.471,3.01l-23.715,13.738S338.68,227.861,334.54,225.267Z" transform="translate(-320.915 -198.151)" fill="#f5f5f5"></path><path id="Path_435" data-name="Path 435" d="M341.577,227.021a5.049,5.049,0,0,1-4.594,0l-4.026-2.329c-1.262-.732-1.262-1.893,0-2.65l23.57-13.612,1,.574-23.185,13.473a.839.839,0,0,0,0,1.59l3.742,2.133a3.036,3.036,0,0,0,2.758,0l23.172-13.441,1.136.631Z" transform="translate(-319.982 -197.033)" fill="#407bff"></path><path id="Path_436" data-name="Path 436" d="M341.577,227.021a5.049,5.049,0,0,1-4.594,0l-4.026-2.329c-1.262-.732-1.262-1.893,0-2.65l23.57-13.612,1,.574-23.185,13.473a.839.839,0,0,0,0,1.59l3.742,2.133a3.036,3.036,0,0,0,2.758,0l23.172-13.441,1.136.631Z" transform="translate(-319.982 -197.033)" fill="#fff" opacity="0.8"></path><path id="Path_437" data-name="Path 437" d="M365.143,216.32v47.3l-23.57,13.612a5.048,5.048,0,0,1-4.594,0l-4.032-2.329a1.6,1.6,0,0,1-.947-1.325V226.247a1.615,1.615,0,0,0,.947,1.325l4.032,2.329a5.048,5.048,0,0,0,4.594,0Z" transform="translate(-319.978 -199.944)" fill="#407bff"></path><path id="Path_438" data-name="Path 438" d="M365.143,216.32v47.3l-23.57,13.612a5.048,5.048,0,0,1-4.594,0l-4.032-2.329a1.6,1.6,0,0,1-.947-1.325V226.247a1.615,1.615,0,0,0,.947,1.325l4.032,2.329a5.048,5.048,0,0,0,4.594,0Z" transform="translate(-319.978 -199.944)" fill="#fff" opacity="0.7"></path><path id="Path_439" data-name="Path 439" d="M339.276,236.3a4.683,4.683,0,0,1-2.3-.549l-4.032-2.329A1.615,1.615,0,0,1,332,232.1v47.329a1.6,1.6,0,0,0,.947,1.325l4.032,2.329a4.682,4.682,0,0,0,2.3.549Z" transform="translate(-319.978 -205.766)" fill="#407bff"></path><path id="Path_440" data-name="Path 440" d="M339.276,236.3a4.683,4.683,0,0,1-2.3-.549l-4.032-2.329A1.615,1.615,0,0,1,332,232.1v47.329a1.6,1.6,0,0,0,.947,1.325l4.032,2.329a4.682,4.682,0,0,0,2.3.549Z" transform="translate(-319.978 -205.766)" fill="#fff" opacity="0.55"></path><path id="Path_441" data-name="Path 441" d="M402.68,222.6l.265,3.6-31.805,17.064-.719-2.1Z" transform="translate(-334.153 -202.261)" fill="#407bff"></path><path id="Path_442" data-name="Path 442" d="M402.68,222.6l.265,3.6-31.805,17.064-.719-2.1Z" transform="translate(-334.153 -202.261)" opacity="0.35"></path><path id="Path_443" data-name="Path 443" d="M371.09,242.943,401.9,225.16l5.358,3.092-31.414,18.376Z" transform="translate(-334.4 -203.206)" fill="#f5f5f5"></path><path id="Path_444" data-name="Path 444" d="M378.371,256.16l3.831,30.77a2.524,2.524,0,0,1-1.142,1.975l-17.872,10.343a2.2,2.2,0,0,1-.928.265l10.324-40.3a2.177,2.177,0,0,0,.928-.259l1.262-.745Z" transform="translate(-331.143 -214.643)" fill="#407bff"></path><path id="Path_445" data-name="Path 445" d="M378.371,256.16l3.831,30.77a2.524,2.524,0,0,1-1.142,1.975l-17.872,10.343a2.2,2.2,0,0,1-.928.265l10.324-40.3a2.177,2.177,0,0,0,.928-.259l1.262-.745Z" transform="translate(-331.143 -214.643)" opacity="0.35"></path><path id="Path_446" data-name="Path 446" d="M367.011,257.271l-3.187-2.726-2.341-2.007c-.24-.379-.517-.663-.366-.978l-10.179,39.958v.038c-.151.316-.2,1.022.24,1.262l5.522,4.727a2.354,2.354,0,0,0,1.363.265l10.305-40.293A2.366,2.366,0,0,1,367.011,257.271Z" transform="translate(-326.926 -212.946)" fill="#407bff"></path><path id="Path_447" data-name="Path 447" d="M367.011,257.271l-3.187-2.726-2.341-2.007c-.24-.379-.517-.663-.366-.978l-10.179,39.958v.038c-.151.316-.2,1.022.24,1.262l5.522,4.727a2.354,2.354,0,0,0,1.363.265l10.305-40.293A2.366,2.366,0,0,1,367.011,257.271Z" transform="translate(-326.926 -212.946)" opacity="0.25"></path><path id="Path_448" data-name="Path 448" d="M367.467,239.994c-.631.366-.473.77,0,1.319l5.528,4.733a2.524,2.524,0,0,0,2.284,0l4.859-2.808c.631-.36.745-.89.246-1.174a2.278,2.278,0,0,0-2.032.145l-3.837,2.2a.858.858,0,0,1-.764,0l-4.039-3.509c-.208-.12-.208-.316,0-.442l31.723-18.414-1.521-.877Z" transform="translate(-332.91 -201.733)" fill="#407bff"></path><path id="Path_449" data-name="Path 449" d="M367.467,239.994c-.631.366-.473.77,0,1.319l5.528,4.733a2.524,2.524,0,0,0,2.284,0l4.859-2.808c.631-.36.745-.89.246-1.174a2.278,2.278,0,0,0-2.032.145l-3.837,2.2a.858.858,0,0,1-.764,0l-4.039-3.509c-.208-.12-.208-.316,0-.442l31.723-18.414-1.521-.877Z" transform="translate(-332.91 -201.733)" opacity="0.15"></path><path id="Path_450" data-name="Path 450" d="M414.39,223.46,385.5,240.246v55.28l28.89-16.78Z" transform="translate(-339.717 -202.578)" fill="#455a64"></path><path id="Path_451" data-name="Path 451" d="M387,242.076l27.956-16.136a11.586,11.586,0,0,0,6.393,3.515l-27.735,16.086S391.828,245.105,387,242.076Z" transform="translate(-340.27 -203.493)" fill="#f5f5f5"></path><path id="Path_452" data-name="Path 452" d="M395.2,244.117a5.926,5.926,0,0,1-5.37,0L385.12,241.4c-1.483-.858-1.483-2.247,0-3.1l27.552-15.909,1.167.675-27.1,15.745a.978.978,0,0,0,0,1.855l4.373,2.524a3.584,3.584,0,0,0,3.225,0l27.091-15.713,1.319.764Z" transform="translate(-339.166 -202.184)" fill="#263238"></path><path id="Path_453" data-name="Path 453" d="M422.75,231.61V286.9L395.2,302.8a5.926,5.926,0,0,1-5.37,0l-4.708-2.714a1.893,1.893,0,0,1-1.111-1.552V243.253a1.893,1.893,0,0,0,1.111,1.546l4.708,2.726a5.963,5.963,0,0,0,5.37,0Z" transform="translate(-339.167 -205.585)" fill="#455a64"></path><path id="Path_454" data-name="Path 454" d="M392.51,254.983a5.458,5.458,0,0,1-2.682-.631l-4.708-2.726a1.893,1.893,0,0,1-1.111-1.546v55.28a1.893,1.893,0,0,0,1.111,1.552l4.708,2.714a5.457,5.457,0,0,0,2.682.631Z" transform="translate(-339.167 -212.4)" fill="#37474f"></path><path id="Path_455" data-name="Path 455" d="M433.11,234.27l-28.89,16.786v55.287l28.89-16.786Z" transform="translate(-346.624 -206.567)" fill="#407bff"></path><path id="Path_456" data-name="Path 456" d="M433.11,234.27l-28.89,16.786v55.287l28.89-16.786Z" transform="translate(-346.624 -206.567)" opacity="0.35"></path><path id="Path_457" data-name="Path 457" d="M405.7,252.886l27.956-16.136a11.586,11.586,0,0,0,6.393,3.515l-27.722,16.073S410.534,255.915,405.7,252.886Z" transform="translate(-347.17 -207.482)" fill="#ebebeb"></path><path id="Path_458" data-name="Path 458" d="M405.7,252.886l27.956-16.136a11.586,11.586,0,0,0,6.393,3.515l-27.722,16.073S410.534,255.915,405.7,252.886Z" transform="translate(-347.17 -207.482)" fill="#f5f5f5"></path><path id="Path_459" data-name="Path 459" d="M413.918,254.931a5.926,5.926,0,0,1-5.37,0l-4.708-2.714c-1.483-.858-1.483-2.247,0-3.1l27.552-15.9,1.167.669-27.1,15.776a.978.978,0,0,0,0,1.855l4.373,2.524a3.584,3.584,0,0,0,3.225,0l27.072-15.77,1.325.764Z" transform="translate(-346.073 -206.176)" fill="#407bff"></path><path id="Path_460" data-name="Path 460" d="M413.918,254.931a5.926,5.926,0,0,1-5.37,0l-4.708-2.714c-1.483-.858-1.483-2.247,0-3.1l27.552-15.9,1.167.669-27.1,15.776a.978.978,0,0,0,0,1.855l4.373,2.524a3.584,3.584,0,0,0,3.225,0l27.072-15.77,1.325.764Z" transform="translate(-346.073 -206.176)" opacity="0.25"></path><path id="Path_461" data-name="Path 461" d="M441.464,242.42v55.268L413.919,313.6a5.964,5.964,0,0,1-5.37,0l-4.708-2.72a1.893,1.893,0,0,1-1.111-1.552V254.044a1.893,1.893,0,0,0,1.111,1.546l4.708,2.726a5.926,5.926,0,0,0,5.37,0Z" transform="translate(-346.074 -209.574)" fill="#407bff"></path><path id="Path_462" data-name="Path 462" d="M411.23,265.793a5.461,5.461,0,0,1-2.682-.631l-4.708-2.726a1.893,1.893,0,0,1-1.111-1.546V316.17a1.893,1.893,0,0,0,1.111,1.552l4.708,2.72a5.521,5.521,0,0,0,2.682.631Z" transform="translate(-346.074 -216.388)" opacity="0.15"></path></g></g><g id="freepik--Shelves--inject-3" transform="translate(9.618)"><g id="freepik--book-shelf--inject-3" transform="translate(0)"><g id="freepik--Shelf--inject-3" transform="translate(0 10.688)"><path id="Path_463" data-name="Path 463" d="M146.648,92.339v-4.07h0a1.388,1.388,0,0,0-.814-1.085L121.223,73.067a4.209,4.209,0,0,0-3.786,0L46.714,113.657a1.382,1.382,0,0,0-.814,1.085h0v4.07h0a1.382,1.382,0,0,0,.814,1.085l24.611,14.123a4.209,4.209,0,0,0,3.786,0l70.729-40.6a1.382,1.382,0,0,0,.814-1.085Z" transform="translate(-45.887 -72.617)" fill="#f0f0f0"></path><path id="Path_464" data-name="Path 464" d="M46.733,115.827l24.611,14.117a4.209,4.209,0,0,0,3.786,0l70.722-40.589c1.041-.631,1.041-1.571,0-2.171L121.242,73.067a4.209,4.209,0,0,0-3.786,0L46.733,113.657A1.145,1.145,0,0,0,46.733,115.827Z" transform="translate(-45.907 -72.617)" fill="#fafafa"></path><path id="Path_465" data-name="Path 465" d="M73.2,154.757v4.07a3.987,3.987,0,0,1-1.893-.448L46.694,144.263a1.407,1.407,0,0,1-.814-1.085h0V139.1h0a1.029,1.029,0,0,1,.158-.461c-.284.524-.069,1.13.631,1.546L71.28,154.3a3.786,3.786,0,0,0,1.918.454Z" transform="translate(-45.88 -96.976)" fill="#e0e0e0"></path></g><path id="Path_466" data-name="Path 466" d="M94.26,103.815,115.11,115.7l34.437-19.765L128.7,84.05Z" transform="translate(-63.73 -66.147)" fill="#e0e0e0"></path><path id="Path_467" data-name="Path 467" d="M115.853,122.975,95.747,111.433a8.355,8.355,0,0,0-.107-5.213l19.979,11.416A19.936,19.936,0,0,1,115.853,122.975Z" transform="translate(-64.239 -74.326)" fill="#fff"></path><path id="Path_468" data-name="Path 468" d="M114.085,115.082a4.241,4.241,0,0,1,1.931,3.326v3.887c0,1.224-.865,1.717-1.931,1.1L94.27,112.04v-.959l19.563,11.151c.631.366,1.155.069,1.155-.669v-3.6a2.524,2.524,0,0,0-1.155-1.994L94.27,104.8V103.71Z" transform="translate(-63.733 -73.4)" fill="#ebebeb"></path><path id="Path_469" data-name="Path 469" d="M94.27,92.155,128.707,72.39l19.815,11.359a4.241,4.241,0,0,1,1.931,3.326v3.887a1.344,1.344,0,0,1-.568,1.262l-34.437,19.765a1.344,1.344,0,0,0,.568-1.262v-3.875a4.247,4.247,0,0,0-1.937-3.326Z" transform="translate(-63.733 -61.845)" fill="#e0e0e0"></path><path id="Path_470" data-name="Path 470" d="M127.84,112.445a3.931,3.931,0,0,1,.568,1.893v3.887a1.344,1.344,0,0,1-.568,1.262l34.437-19.765a1.344,1.344,0,0,0,.568-1.262V94.573a3.888,3.888,0,0,0-.568-1.893Z" transform="translate(-76.119 -69.331)" fill="#ebebeb"></path><path id="Path_471" data-name="Path 471" d="M94.27,88.355l20.844,11.883L149.55,80.479,128.707,68.59Z" transform="translate(-63.733 -60.443)" fill="#e0e0e0"></path><path id="Path_472" data-name="Path 472" d="M115.853,107.5,95.747,95.949a8.374,8.374,0,0,0-.107-5.219l19.979,11.416A20.228,20.228,0,0,1,115.853,107.5Z" transform="translate(-64.239 -68.612)" fill="#fff"></path><path id="Path_473" data-name="Path 473" d="M114.085,99.622a4.241,4.241,0,0,1,1.931,3.326v3.887c0,1.224-.865,1.723-1.931,1.111L94.27,96.586v-.978l19.563,11.151c.631.366,1.161.069,1.161-.631v-3.6a2.524,2.524,0,0,0-1.161-1.994L94.27,89.354v-1.1Z" transform="translate(-63.733 -67.697)" fill="#ebebeb"></path><path id="Path_474" data-name="Path 474" d="M94.27,76.7,128.707,56.94,148.522,68.3a4.241,4.241,0,0,1,1.931,3.326v3.887a1.35,1.35,0,0,1-.568,1.262L115.448,96.532a1.344,1.344,0,0,0,.568-1.262V91.383a4.241,4.241,0,0,0-1.931-3.326Z" transform="translate(-63.733 -56.145)" fill="#fafafa"></path><path id="Path_475" data-name="Path 475" d="M127.84,96.988a3.956,3.956,0,0,1,.568,1.893v3.887a1.344,1.344,0,0,1-.568,1.262l34.43-19.777a1.351,1.351,0,0,0,.568-1.262V79.123a3.869,3.869,0,0,0-.568-1.893Z" transform="translate(-76.119 -63.631)" fill="#f0f0f0"></path><path id="Path_476" data-name="Path 476" d="M80.26,56.49,102.435,69.3v42.186L80.26,98.682Z" transform="translate(-58.564 -55.979)" fill="#e0e0e0"></path><path id="Path_477" data-name="Path 477" d="M98.855,70.7,77.4,58.38a9.031,9.031,0,0,1-4.91,2.688L93.775,73.33S95.139,73.008,98.855,70.7Z" transform="translate(-55.698 -56.676)" fill="#fff"></path><path id="Path_478" data-name="Path 478" d="M90.562,72.289a4.556,4.556,0,0,0,4.121,0L98.3,70.22a1.248,1.248,0,0,0,0-2.366L77.146,55.68l-.9.511,20.825,11.99a.751.751,0,0,1,0,1.42l-3.364,1.893a2.751,2.751,0,0,1-2.474,0L70.406,59.542l-1.016.581Z" transform="translate(-54.554 -55.68)" fill="#fafafa"></path><path id="Path_479" data-name="Path 479" d="M69.42,62.72v42.186l21.153,12.135a4.556,4.556,0,0,0,4.121,0l3.616-2.07a1.445,1.445,0,0,0,.852-1.186V71.6a1.426,1.426,0,0,1-.852,1.18l-3.616,2.108a4.6,4.6,0,0,1-4.121,0Z" transform="translate(-54.565 -58.277)" fill="#e0e0e0"></path><path id="Path_480" data-name="Path 480" d="M106.2,80.538a4.278,4.278,0,0,0,2.064-.486l3.616-2.082a1.426,1.426,0,0,0,.852-1.18v42.186a1.445,1.445,0,0,1-.852,1.186l-3.616,2.07a4.209,4.209,0,0,1-2.064.492Z" transform="translate(-68.135 -63.468)" fill="#ebebeb"></path><path id="Path_481" data-name="Path 481" d="M65.89,64.74,88.065,77.55v42.186l-22.175-12.8Z" transform="translate(-53.263 -59.023)" fill="#ebebeb"></path><path id="Path_482" data-name="Path 482" d="M84.485,78.948,63.03,66.63a9.03,9.03,0,0,1-4.91,2.688L79.393,81.58S80.762,81.258,84.485,78.948Z" transform="translate(-50.396 -59.72)" fill="#fff"></path><path id="Path_483" data-name="Path 483" d="M76.2,80.508a4.556,4.556,0,0,0,4.121,0l3.616-2.07a1.248,1.248,0,0,0,0-2.366L62.787,63.93l-.9.511,20.825,11.99a.745.745,0,0,1,0,1.42l-3.357,1.893a2.751,2.751,0,0,1-2.474,0L56.091,67.754l-1.041.637Z" transform="translate(-49.263 -58.724)" fill="#fafafa"></path><path id="Path_484" data-name="Path 484" d="M55.05,71v42.186L76.2,125.321a4.556,4.556,0,0,0,4.121,0l3.616-2.07a1.445,1.445,0,0,0,.852-1.186V79.835a1.426,1.426,0,0,1-.852,1.18L80.324,83.1a4.6,4.6,0,0,1-4.121,0Z" transform="translate(-49.263 -61.332)" fill="#ebebeb"></path><path id="Path_485" data-name="Path 485" d="M91.83,88.786a4.278,4.278,0,0,0,2.064-.486l3.616-2.082A1.426,1.426,0,0,0,98.361,85v42.186a1.445,1.445,0,0,1-.852,1.186l-3.616,2.07a4.209,4.209,0,0,1-2.064.492Z" transform="translate(-62.833 -66.497)" fill="#f0f0f0"></path></g><g id="freepik--book-shelf--inject-3-2" data-name="freepik--book-shelf--inject-3" transform="translate(169.192 0.032)"><g id="freepik--shelf--inject-3-2" data-name="freepik--shelf--inject-3" transform="translate(0 10.655)"><path id="Path_486" data-name="Path 486" d="M314,92.339v-4.07h0a1.388,1.388,0,0,1,.814-1.085l24.611-14.117a4.2,4.2,0,0,1,3.786,0l70.729,40.59a1.382,1.382,0,0,1,.814,1.085h0v4.07h0a1.382,1.382,0,0,1-.814,1.085L389.325,134.02a4.2,4.2,0,0,1-3.786,0L314.8,93.424a1.382,1.382,0,0,1-.814-1.085Z" transform="translate(-313.99 -72.615)" fill="#f0f0f0"></path><path id="Path_487" data-name="Path 487" d="M413.937,115.826l-24.611,14.117a4.2,4.2,0,0,1-3.786,0L314.823,89.354c-1.041-.631-1.041-1.571,0-2.171l24.611-14.117a4.2,4.2,0,0,1,3.786,0l70.729,40.589A1.145,1.145,0,0,1,413.937,115.826Z" transform="translate(-314.009 -72.615)" fill="#fafafa"></path><path id="Path_488" data-name="Path 488" d="M430.36,154.757v4.07a3.988,3.988,0,0,0,1.893-.448l24.611-14.117a1.382,1.382,0,0,0,.814-1.085h0V139.1h0a1.017,1.017,0,0,0-.151-.461c.284.524.07,1.13-.663,1.546L432.253,154.3a3.748,3.748,0,0,1-1.893.454Z" transform="translate(-356.924 -96.974)" fill="#e0e0e0"></path></g><path id="Path_489" data-name="Path 489" d="M392.95,103.815,372.107,115.7,337.67,95.933,358.514,84.05Z" transform="translate(-322.727 -66.179)" fill="#e0e0e0"></path><path id="Path_490" data-name="Path 490" d="M391.841,122.975l20.112-11.542a8.355,8.355,0,0,1,.107-5.212l-19.979,11.416A19.652,19.652,0,0,0,391.841,122.975Z" transform="translate(-342.701 -74.358)" fill="#fff"></path><path id="Path_491" data-name="Path 491" d="M392.737,115.089a4.228,4.228,0,0,0-1.937,3.326V122.3c0,1.224.865,1.716,1.937,1.1l19.815-11.359v-.959L392.99,122.239c-.631.366-1.161.069-1.161-.669v-3.6a2.524,2.524,0,0,1,1.161-1.994l19.531-11.151V103.73Z" transform="translate(-342.329 -73.439)" fill="#ebebeb"></path><path id="Path_492" data-name="Path 492" d="M392.417,92.155,357.981,72.39,338.165,83.749a4.241,4.241,0,0,0-1.931,3.326v3.887a1.351,1.351,0,0,0,.562,1.262l34.437,19.765a1.351,1.351,0,0,1-.562-1.262v-3.875a4.241,4.241,0,0,1,1.931-3.326Z" transform="translate(-322.193 -61.877)" fill="#e0e0e0"></path><path id="Path_493" data-name="Path 493" d="M371.229,112.445a3.868,3.868,0,0,0-.568,1.893v3.887a1.35,1.35,0,0,0,.562,1.262L336.786,99.723a1.351,1.351,0,0,1-.562-1.262V94.573a3.944,3.944,0,0,1,.562-1.893Z" transform="translate(-322.19 -69.362)" fill="#ebebeb"></path><path id="Path_494" data-name="Path 494" d="M392.95,88.355l-20.844,11.883L337.67,80.479,358.514,68.59Z" transform="translate(-322.727 -60.475)" fill="#e0e0e0"></path><path id="Path_495" data-name="Path 495" d="M391.841,107.5l20.112-11.555a8.33,8.33,0,0,1,.107-5.219l-19.979,11.416A19.942,19.942,0,0,0,391.841,107.5Z" transform="translate(-342.701 -68.643)" fill="#fff"></path><path id="Path_496" data-name="Path 496" d="M392.731,99.622a4.241,4.241,0,0,0-1.931,3.326v3.887c0,1.224.865,1.723,1.931,1.111l19.822-11.359v-.978L392.99,106.759c-.631.366-1.161.069-1.161-.631v-3.6a2.524,2.524,0,0,1,1.161-1.994l19.563-11.176v-1.1Z" transform="translate(-342.329 -67.728)" fill="#ebebeb"></path><path id="Path_497" data-name="Path 497" d="M392.414,76.7,357.978,56.94l-19.815,11.4a4.247,4.247,0,0,0-1.937,3.326V75.55a1.363,1.363,0,0,0,.568,1.262L371.23,96.57a1.357,1.357,0,0,1-.568-1.262V91.421a4.24,4.24,0,0,1,1.931-3.326Z" transform="translate(-322.19 -56.176)" fill="#fafafa"></path><path id="Path_498" data-name="Path 498" d="M371.23,96.988a3.886,3.886,0,0,0-.568,1.893v3.887a1.357,1.357,0,0,0,.568,1.262L336.793,84.254a1.363,1.363,0,0,1-.568-1.262V79.123a3.932,3.932,0,0,1,.568-1.893Z" transform="translate(-322.19 -63.662)" fill="#f0f0f0"></path><path id="Path_499" data-name="Path 499" d="M426.315,56.49,404.14,69.3v42.186l22.175-12.8Z" transform="translate(-347.25 -56.01)" fill="#e0e0e0"></path><path id="Path_500" data-name="Path 500" d="M405.27,70.7,426.726,58.38a9.011,9.011,0,0,0,4.9,2.688L410.356,73.33S408.981,73.008,405.27,70.7Z" transform="translate(-347.667 -56.708)" fill="#fff"></path><path id="Path_501" data-name="Path 501" d="M411.576,72.308a4.569,4.569,0,0,1-4.127,0l-3.61-2.07a1.245,1.245,0,0,1,0-2.366L424.986,55.73l.9.511-20.825,11.99a.751.751,0,0,0,0,1.42l3.357,1.893a2.764,2.764,0,0,0,2.48,0l20.793-11.99,1.016.581Z" transform="translate(-346.823 -55.73)" fill="#fafafa"></path><path id="Path_502" data-name="Path 502" d="M432.725,62.72v42.186l-21.147,12.135a4.569,4.569,0,0,1-4.127,0l-3.61-2.07a1.445,1.445,0,0,1-.852-1.186V71.6a1.426,1.426,0,0,0,.852,1.18l3.61,2.083a4.613,4.613,0,0,0,4.127,0Z" transform="translate(-346.826 -58.309)" fill="#e0e0e0"></path><path id="Path_503" data-name="Path 503" d="M409.519,80.538a4.316,4.316,0,0,1-2.064-.486l-3.61-2.082A1.426,1.426,0,0,1,403,76.79v42.186a1.445,1.445,0,0,0,.852,1.186l3.61,2.07a4.247,4.247,0,0,0,2.064.492Z" transform="translate(-346.83 -63.5)" fill="#ebebeb"></path><path id="Path_504" data-name="Path 504" d="M440.685,64.74,418.51,77.55v42.186l22.175-12.8Z" transform="translate(-352.552 -59.054)" fill="#ebebeb"></path><path id="Path_505" data-name="Path 505" d="M419.64,78.948,441.1,66.63a9.037,9.037,0,0,0,4.9,2.688L424.726,81.58S423.351,81.258,419.64,78.948Z" transform="translate(-352.969 -59.752)" fill="#fff"></path><path id="Path_506" data-name="Path 506" d="M425.976,80.508a4.569,4.569,0,0,1-4.127,0l-3.61-2.07a1.245,1.245,0,0,1,0-2.366L439.392,63.93l.9.511-20.825,11.99a.751.751,0,0,0,0,1.42l3.357,1.893a2.764,2.764,0,0,0,2.48,0l20.793-11.99,1.016.581Z" transform="translate(-352.136 -58.755)" fill="#fafafa"></path><path id="Path_507" data-name="Path 507" d="M447.106,71v42.186L425.979,125.3a4.569,4.569,0,0,1-4.127,0l-3.61-2.07a1.445,1.445,0,0,1-.852-1.186V79.835a1.426,1.426,0,0,0,.852,1.18l3.61,2.082a4.613,4.613,0,0,0,4.127,0Z" transform="translate(-352.139 -61.364)" fill="#ebebeb"></path><path id="Path_508" data-name="Path 508" d="M423.885,88.786a4.317,4.317,0,0,1-2.064-.486l-3.61-2.082A1.426,1.426,0,0,1,417.36,85v42.186a1.445,1.445,0,0,0,.852,1.186l3.61,2.07a4.247,4.247,0,0,0,2.064.492Z" transform="translate(-352.128 -66.529)" fill="#f0f0f0"></path></g></g><g id="freepik--speech-bubble--inject-3" transform="translate(118.469 35.006)"><g id="freepik--speach-bubble--inject-3"><path id="Path_509" data-name="Path 509" d="M246.8,191.221l-3.029-5.68,2.442-7.061v-4.31l-7.472,4.31V182.8l3.212,5.56a.454.454,0,0,0,.215.2h0Z" transform="translate(-225.885 -134.403)" fill="#407bff"></path><path id="Path_510" data-name="Path 510" d="M246.8,191.221l-3.029-5.68,2.442-7.061v-4.31l-7.472,4.31V182.8l3.212,5.56a.454.454,0,0,0,.215.2h0Z" transform="translate(-225.885 -134.403)" opacity="0.2"></path><path id="Path_511" data-name="Path 511" d="M257.13,116.629a4.948,4.948,0,0,0-2.24-3.881l-1.824-1.06a4.96,4.96,0,0,0-4.48,0l-27.962,16.174a4.941,4.941,0,0,0-2.234,3.881v30.764a4.948,4.948,0,0,0,2.234,3.881l1.824,1.054a4.96,4.96,0,0,0,4.48,0l8.993-5.2,3.206,5.553a.48.48,0,0,0,.865-.082l3.389-9.781,11.51-6.664a4.954,4.954,0,0,0,2.24-3.881Z" transform="translate(-218.377 -111.153)" fill="#407bff"></path><path id="Path_512" data-name="Path 512" d="M218.383,173.263a4.947,4.947,0,0,0,2.234,3.881l1.824,1.054a5,5,0,0,0,4.1.177c-1.054.4-1.855-.2-1.855-1.47v-30.77a4.575,4.575,0,0,1,.631-2.2L219,140.29a4.588,4.588,0,0,0-.631,2.209Z" transform="translate(-218.37 -121.903)" opacity="0.2"></path><path id="Path_513" data-name="Path 513" d="M257.435,115.994c-.259-.953-1.123-1.262-2.158-.631l-27.968,16.174a4.417,4.417,0,0,0-1.578,1.672l-6.311-3.635A4.417,4.417,0,0,1,221,127.9l27.968-16.212a5,5,0,0,1,4.48,0l1.83,1.06A4.916,4.916,0,0,1,257.435,115.994Z" transform="translate(-218.757 -111.155)" fill="#fff" opacity="0.5"></path><path id="Path_514" data-name="Path 514" d="M239.14,152.2a14.394,14.394,0,0,1,1.174-5.534h0v-.038a9.694,9.694,0,0,1,3.534-4.518c2.417-1.426,4.417,1.464,4.746,4.872.29-3.786,2.266-9,4.676-10.412a2.638,2.638,0,0,1,3.559.353h0a6.349,6.349,0,0,1,1.218,4.133c0,5.755-3.439,10.98-6.311,16.477l-3.155,5.307-3.016-1.7C242.661,159.1,239.165,157.96,239.14,152.2Z" transform="translate(-226.033 -120.338)" fill="#fafafa"></path></g></g><g id="freepik--Character--inject-3" transform="translate(0 83.975)"><g id="freepik--character--inject-3-2" data-name="freepik--character--inject-3" transform="translate(0)"><path id="Path_515" data-name="Path 515" d="M262.194,329.952s-2.013-10.974-4.79-22.592c-2.354-9.819-9-16.6-21.3-13.025l11.643,39.674a10.166,10.166,0,0,0,6.778,7.27l7.674,2.442,23.387,8.576,2.366-7.371C284.761,343.053,262.194,329.952,262.194,329.952Z" transform="translate(-106.443 -227.349)" fill="#ffa8a7"></path><path id="Path_516" data-name="Path 516" d="M232.34,294.16s7.895-2.007,11.731-.965,8.765,2.48,11.428,11.006a178.048,178.048,0,0,1,4.544,19.84s-3.7,6.7-15.467,5.515Z" transform="translate(-105.055 -227.174)" fill="#407bff"></path><g id="freepik--Book--inject-3" transform="translate(114.234 111.962)"><path id="Path_517" data-name="Path 517" d="M243.068,417.625l49.166-28.385-31.408-18.13L211.66,399.495Z" transform="translate(-211.66 -367.993)" fill="#407bff"></path><path id="Path_518" data-name="Path 518" d="M243.068,417.625l49.166-28.385-31.408-18.13L211.66,399.495Z" transform="translate(-211.66 -367.993)" opacity="0.15"></path><path id="Path_519" data-name="Path 519" d="M299.35,411.38V410.5c0-1.079,1.931-4.171,4.342-5.566l19.531-11.271V397.6Z" transform="translate(-244.013 -376.312)" fill="#f5f5f5"></path><path id="Path_520" data-name="Path 520" d="M305.647,383.521,286.116,394.8c-2.411,1.388-4.348,4.481-4.342,5.56v.883L251.73,383.894h0v-.877c0-1.085,1.931-4.178,4.342-5.566L275.59,366.18h0Z" transform="translate(-226.444 -366.174)" fill="#fafafa"></path><path id="Path_521" data-name="Path 521" d="M305.647,383.518l-19.531,11.277c-2.411,1.388-4.348,4.48-4.342,5.56v.884L251.73,383.89h0v-.877c0-1.085,1.931-4.178,4.342-5.566L275.6,366.17Z" transform="translate(-226.444 -366.17)" fill="#fafafa"></path><path id="Path_522" data-name="Path 522" d="M296.791,418.93l-1.893-1.079-2.467-1.426a4.839,4.839,0,0,1,3.035.435A2.524,2.524,0,0,1,296.791,418.93Z" transform="translate(-241.46 -384.682)" fill="#f0f0f0"></path><path id="Path_523" data-name="Path 523" d="M296.791,418.93l-1.893-1.079-2.467-1.426a4.839,4.839,0,0,1,3.035.435A2.524,2.524,0,0,1,296.791,418.93Z" transform="translate(-241.46 -384.682)" fill="#e0e0e0"></path><path id="Path_524" data-name="Path 524" d="M243.074,435.041l-.006-.82L211.66,416.09v.814Z" transform="translate(-211.66 -384.588)" fill="#407bff"></path><path id="Path_525" data-name="Path 525" d="M243.074,435.041l-.006-.82L211.66,416.09v.814Z" transform="translate(-211.66 -384.588)" opacity="0.3"></path><path id="Path_526" data-name="Path 526" d="M261.436,429.045,310.6,400.66l-.006-.82L261.43,428.225Z" transform="translate(-230.022 -378.592)" fill="#407bff"></path><path id="Path_527" data-name="Path 527" d="M285.346,419.679c0-1.079-1.988-1.982-4.417-.6L261.41,430.268v4.045L285.34,420.5S285.358,420.764,285.346,419.679Z" transform="translate(-230.015 -385.431)" fill="#f5f5f5"></path><path id="Path_528" data-name="Path 528" d="M243.865,431.123v-4.045L213.82,409.73v4.045Z" transform="translate(-212.457 -382.241)" fill="#ebebeb"></path><path id="Path_529" data-name="Path 529" d="M263.389,408.87l-.877.5-18.648,10.684-26.542-15.322-3.5-2.026,19.525-11.189c1.767-1.016,2.758-.94,3.458-.543h0l30.455,17.581C266.16,407.93,264.872,408.082,263.389,408.87Z" transform="translate(-212.457 -375.223)" fill="#fafafa"></path><path id="Path_530" data-name="Path 530" d="M259.26,426.487l16.628-9.592.877-.5.637.372-.877.5L259.9,426.853Z" transform="translate(-229.222 -384.698)" fill="#e0e0e0"></path><path id="Path_531" data-name="Path 531" d="M256.83,425.081l16.628-9.592.871-.5.644.366-.877.5-16.628,9.592Z" transform="translate(-228.325 -384.182)" fill="#e0e0e0"></path><path id="Path_532" data-name="Path 532" d="M254.4,423.677l16.622-9.592.877-.5.637.372-.871.5-16.628,9.592Z" transform="translate(-227.429 -383.662)" fill="#e0e0e0"></path><path id="Path_533" data-name="Path 533" d="M251.96,422.27l16.628-9.592.877-.5.637.366-.877.5L252.6,422.643Z" transform="translate(-226.528 -383.145)" fill="#e0e0e0"></path><path id="Path_534" data-name="Path 534" d="M249.53,420.867l16.628-9.592.871-.5.644.372-.877.5-16.628,9.592Z" transform="translate(-225.632 -382.625)" fill="#e0e0e0"></path><path id="Path_535" data-name="Path 535" d="M247.1,419.461l16.622-9.592.877-.5.644.366-.877.5-16.628,9.592Z" transform="translate(-224.735 -382.108)" fill="#e0e0e0"></path><path id="Path_536" data-name="Path 536" d="M244.66,418.057l16.628-9.592.877-.5.637.372-.871.5L245.3,418.423Z" transform="translate(-223.835 -381.588)" fill="#e0e0e0"></path><path id="Path_537" data-name="Path 537" d="M242.23,416.651l16.628-9.592.877-.5.637.366-.877.5-16.622,9.592Z" transform="translate(-222.939 -381.072)" fill="#e0e0e0"></path><path id="Path_538" data-name="Path 538" d="M239.8,415.247l16.628-9.592.871-.5.644.372-.877.5-16.628,9.6Z" transform="translate(-222.042 -380.551)" fill="#e0e0e0"></path><path id="Path_539" data-name="Path 539" d="M237.37,413.847l16.622-9.6.877-.5.637.366-.871.5-16.628,9.592Z" transform="translate(-221.146 -380.035)" fill="#e0e0e0"></path><path id="Path_540" data-name="Path 540" d="M234.93,412.441l16.628-9.592.877-.5.637.366-.877.5-16.622,9.6Z" transform="translate(-220.245 -379.518)" fill="#e0e0e0"></path><path id="Path_541" data-name="Path 541" d="M232.5,411.037l16.628-9.6.871-.5.644.372-.877.5L233.137,411.4Z" transform="translate(-219.349 -378.998)" fill="#e0e0e0"></path><path id="Path_542" data-name="Path 542" d="M230.07,409.631l16.622-9.592.877-.5.637.366-.871.5L230.707,410Z" transform="translate(-218.452 -378.482)" fill="#e0e0e0"></path><path id="Path_543" data-name="Path 543" d="M227.63,408.227l16.628-9.6.877-.5.637.372-.871.5-16.628,9.592Z" transform="translate(-217.552 -377.961)" fill="#e0e0e0"></path><path id="Path_544" data-name="Path 544" d="M225.2,406.821l16.628-9.592.877-.5.637.366-.877.5-16.622,9.6Z" transform="translate(-216.655 -377.445)" fill="#e0e0e0"></path><path id="Path_545" data-name="Path 545" d="M222.77,405.417l16.628-9.6.871-.5.637.372-.871.5-16.628,9.592Z" transform="translate(-215.759 -376.925)" fill="#e0e0e0"></path><path id="Path_546" data-name="Path 546" d="M220.34,404.011l16.622-9.592.877-.5.637.366-.871.5-16.628,9.592Z" transform="translate(-214.862 -376.408)" fill="#e0e0e0"></path><path id="Path_547" data-name="Path 547" d="M266.513,407.869c-.36.038-1.123.284-1.546.379a44.713,44.713,0,0,0-7.907,3.332c-4.007,2.007-7.781,4.146-7.781,4.146L221.79,399.873l14.514-8.3a6.171,6.171,0,0,1,1.786-.745,3.843,3.843,0,0,1,1.262.429l.2-.334.221.107,30.43,17.575A4.967,4.967,0,0,0,266.513,407.869Z" transform="translate(-215.397 -375.268)" opacity="0.1"></path><path id="Path_548" data-name="Path 548" d="M259.67,437.734l2.979-1.515-2.96,1.8-2.979-1.716Z" transform="translate(-228.281 -392.015)" fill="#e6e6e6"></path><path id="Path_549" data-name="Path 549" d="M257.84,439.747l5.465-3.149-5.459,2.941L251.7,436.2Z" transform="translate(-226.433 -392.007)" fill="#e6e6e6"></path><path id="Path_550" data-name="Path 550" d="M213.82,411.15l4.594,2.77-4.594-2.348Z" transform="translate(-212.457 -382.765)" fill="#e6e6e6"></path><path id="Path_551" data-name="Path 551" d="M213.826,413.65l6.822,4.171-6.828-3.793Z" transform="translate(-212.457 -383.687)" fill="#e6e6e6"></path><path id="Path_552" data-name="Path 552" d="M265.039,406.351a10.027,10.027,0,0,0-1.167.2,44.821,44.821,0,0,0-7.907,3.332c-4.007,2.007-7.787,4.152-7.787,4.152L218.12,396.689s11.435-6.582,15.922-7.453a6.048,6.048,0,0,1,4.184.328h0l29.843,17.228A4.84,4.84,0,0,0,265.039,406.351Z" transform="translate(-214.043 -374.609)" fill="#f5f5f5"></path><path id="Path_553" data-name="Path 553" d="M281.16,413.7a4.878,4.878,0,0,0-3.035-.442,11.665,11.665,0,0,0-1.167.2,28.808,28.808,0,0,0-4.91,1.893c-.978.448-1.994.94-3,1.445-2.411,1.205-4.739,2.461-6.21,3.275l.682.391c1.47-.808,3.786-2.064,6.21-3.269,1-.5,2.019-1,3-1.451a28.68,28.68,0,0,1,4.91-1.893,8.838,8.838,0,0,1,1.174-.2,4.916,4.916,0,0,1,3.029.435Z" transform="translate(-230.543 -383.515)" fill="#e0e0e0"></path><path id="Path_554" data-name="Path 554" d="M278.726,412.331a4.89,4.89,0,0,0-3.035-.435,10.32,10.32,0,0,0-1.174.2,29.358,29.358,0,0,0-4.91,1.893c-.978.448-1.994.947-3,1.445-2.411,1.212-4.739,2.467-6.21,3.275l.682.391c1.47-.808,3.786-2.064,6.21-3.269,1-.5,2.026-1,3-1.445a28.761,28.761,0,0,1,4.9-1.893,10.43,10.43,0,0,1,1.174-.2,4.878,4.878,0,0,1,3.035.442Z" transform="translate(-229.642 -383.012)" fill="#e0e0e0"></path><path id="Path_555" data-name="Path 555" d="M276.3,410.928a4.878,4.878,0,0,0-3.035-.442,10.435,10.435,0,0,0-1.174.2,28.65,28.65,0,0,0-4.9,1.893c-.978.454-1.994.947-3,1.451-2.4,1.167-4.739,2.43-6.191,3.256l.688.4c1.47-.814,3.786-2.07,6.21-3.275,1-.5,2.019-1,3-1.445a28.6,28.6,0,0,1,4.91-1.893,11.65,11.65,0,0,1,1.167-.2,4.878,4.878,0,0,1,3.035.442Z" transform="translate(-228.757 -382.493)" fill="#e0e0e0"></path><path id="Path_556" data-name="Path 556" d="M273.849,409.518a4.879,4.879,0,0,0-3.035-.442,11.661,11.661,0,0,0-1.167.2,28.588,28.588,0,0,0-4.91,1.893c-.978.448-1.994.94-3,1.445-2.411,1.205-4.739,2.461-6.21,3.275l.682.391c1.47-.808,3.786-2.064,6.21-3.275,1-.5,2.019-.991,3-1.445a29.348,29.348,0,0,1,4.91-1.893,10.032,10.032,0,0,1,1.167-.2,4.885,4.885,0,0,1,3.035.436Z" transform="translate(-227.846 -381.972)" fill="#e0e0e0"></path><path id="Path_557" data-name="Path 557" d="M271.41,408.108a4.866,4.866,0,0,0-3.029-.442,11.5,11.5,0,0,0-1.174.2,28.8,28.8,0,0,0-4.91,1.893c-.978.448-1.994.946-3,1.445-2.411,1.212-4.739,2.467-6.21,3.275l.682.391c1.47-.808,3.786-2.063,6.21-3.269,1-.5,2.019-1,3-1.451a28.676,28.676,0,0,1,4.91-1.893,10.427,10.427,0,0,1,1.174-.2,4.883,4.883,0,0,1,3.035.442Z" transform="translate(-226.945 -381.452)" fill="#e0e0e0"></path><path id="Path_558" data-name="Path 558" d="M268.976,406.7a4.929,4.929,0,0,0-3.035-.435,9.183,9.183,0,0,0-1.174.2,28.679,28.679,0,0,0-4.91,1.893c-.972.454-1.994.947-3,1.445-2.411,1.212-4.739,2.467-6.21,3.275l.682.4c1.477-.814,3.786-2.07,6.216-3.275,1-.5,2.019-1,3-1.445a28.768,28.768,0,0,1,4.9-1.893c.423-.095.814-.158,1.174-.2a4.878,4.878,0,0,1,3.035.442Z" transform="translate(-226.045 -380.936)" fill="#e0e0e0"></path><path id="Path_559" data-name="Path 559" d="M266.54,405.3a4.879,4.879,0,0,0-3.035-.442,10.441,10.441,0,0,0-1.174.2,29.194,29.194,0,0,0-4.9,1.893c-.978.454-1.994.947-3,1.451-2.417,1.205-4.739,2.461-6.21,3.269l.682.4c1.47-.808,3.786-2.064,6.21-3.275,1-.5,2.019-1,3-1.445a28.6,28.6,0,0,1,4.91-1.893,11.7,11.7,0,0,1,1.167-.2,4.878,4.878,0,0,1,3.035.442Z" transform="translate(-225.149 -380.415)" fill="#e0e0e0"></path><path id="Path_560" data-name="Path 560" d="M264.1,403.888a4.878,4.878,0,0,0-3.035-.442,11.635,11.635,0,0,0-1.168.2,28.61,28.61,0,0,0-4.91,1.893c-.978.448-1.994.94-3,1.445-2.411,1.205-4.739,2.461-6.21,3.275l.682.391c1.47-.808,3.786-2.064,6.21-3.269,1-.5,2.019-1,3-1.451a28.689,28.689,0,0,1,4.91-1.893,8.835,8.835,0,0,1,1.174-.2,4.916,4.916,0,0,1,3.029.435Z" transform="translate(-224.248 -379.895)" fill="#e0e0e0"></path><path id="Path_561" data-name="Path 561" d="M259.312,402.437a10.436,10.436,0,0,0-1.174.2,44.713,44.713,0,0,0-7.907,3.332c-2.411,1.205-4.739,2.461-6.21,3.269l-.682-.391c1.47-.808,3.786-2.064,6.21-3.275a45,45,0,0,1,7.907-3.332,10.113,10.113,0,0,1,1.174-.2,4.872,4.872,0,0,1,3.029.436l.688.4A4.877,4.877,0,0,0,259.312,402.437Z" transform="translate(-223.348 -379.378)" fill="#e0e0e0"></path><path id="Path_562" data-name="Path 562" d="M256.872,401.027c-.36.044-.751.107-1.174.2a44.5,44.5,0,0,0-7.9,3.332c-2.417,1.205-4.739,2.461-6.21,3.275l-.688-.4c1.477-.808,3.786-2.063,6.21-3.269a44.719,44.719,0,0,1,7.907-3.332,10.451,10.451,0,0,1,1.174-.2,4.879,4.879,0,0,1,3.035.442l.669.391A4.878,4.878,0,0,0,256.872,401.027Z" transform="translate(-222.448 -378.858)" fill="#e0e0e0"></path><path id="Path_563" data-name="Path 563" d="M254.436,399.624a10.022,10.022,0,0,0-1.167.2,44.811,44.811,0,0,0-7.907,3.332c-2.411,1.212-4.739,2.467-6.21,3.275l-.682-.391c1.47-.814,3.786-2.07,6.21-3.275a44.338,44.338,0,0,1,7.907-3.332,11.644,11.644,0,0,1,1.167-.2,4.879,4.879,0,0,1,3.035.442l.682.391A4.884,4.884,0,0,0,254.436,399.624Z" transform="translate(-221.551 -378.338)" fill="#e0e0e0"></path><path id="Path_564" data-name="Path 564" d="M252,398.214a10.162,10.162,0,0,0-1.174.2,44.509,44.509,0,0,0-7.907,3.332c-2.411,1.205-4.739,2.461-6.21,3.269l-.682-.391c1.47-.808,3.786-2.064,6.21-3.275a44.807,44.807,0,0,1,7.907-3.332,11.7,11.7,0,0,1,1.167-.2,4.879,4.879,0,0,1,3.035.442l.688.4A4.89,4.89,0,0,0,252,398.214Z" transform="translate(-220.651 -377.818)" fill="#e0e0e0"></path><path id="Path_565" data-name="Path 565" d="M249.562,396.808c-.36.044-.751.107-1.174.2a44.717,44.717,0,0,0-7.907,3.332c-2.411,1.205-4.733,2.461-6.21,3.275l-.682-.4c1.47-.808,3.786-2.064,6.21-3.269a44.051,44.051,0,0,1,7.907-3.332,9.176,9.176,0,0,1,1.174-.2,4.934,4.934,0,0,1,3.035.435l.682.4a4.878,4.878,0,0,0-3.035-.442Z" transform="translate(-219.751 -377.302)" fill="#e0e0e0"></path><path id="Path_566" data-name="Path 566" d="M247.122,395.4a11.668,11.668,0,0,0-1.167.2,44.815,44.815,0,0,0-7.907,3.332c-2.417,1.212-4.739,2.467-6.21,3.275l-.688-.4c1.477-.808,3.786-2.064,6.216-3.269a44.5,44.5,0,0,1,7.9-3.332,10.44,10.44,0,0,1,1.174-.2,4.879,4.879,0,0,1,3.035.442l.682.391A4.878,4.878,0,0,0,247.122,395.4Z" transform="translate(-218.851 -376.781)" fill="#e0e0e0"></path><path id="Path_567" data-name="Path 567" d="M244.662,393.994a8.836,8.836,0,0,0-1.174.2,43.855,43.855,0,0,0-7.907,3.332c-2.411,1.205-4.739,2.461-6.21,3.269l-.682-.391c1.47-.814,3.786-2.07,6.21-3.275a44.323,44.323,0,0,1,7.907-3.332,11.644,11.644,0,0,1,1.167-.2,4.878,4.878,0,0,1,3.035.442l.681.391A4.916,4.916,0,0,0,244.662,393.994Z" transform="translate(-217.943 -376.261)" fill="#e0e0e0"></path><path id="Path_568" data-name="Path 568" d="M242.252,392.587a10.438,10.438,0,0,0-1.174.2,44.528,44.528,0,0,0-7.907,3.332c-2.411,1.205-4.739,2.461-6.21,3.269L226.28,399c1.47-.808,3.786-2.064,6.21-3.275a45.013,45.013,0,0,1,7.907-3.332,9.915,9.915,0,0,1,1.174-.2,4.872,4.872,0,0,1,3.029.435l.688.4a4.885,4.885,0,0,0-3.035-.442Z" transform="translate(-217.054 -375.744)" fill="#e0e0e0"></path><path id="Path_569" data-name="Path 569" d="M239.812,391.177c-.36.044-.751.107-1.174.2a44.5,44.5,0,0,0-7.9,3.332c-2.417,1.205-4.739,2.461-6.216,3.275l-.682-.4c1.47-.808,3.786-2.063,6.21-3.269a44.727,44.727,0,0,1,7.907-3.332,10.452,10.452,0,0,1,1.174-.2,4.877,4.877,0,0,1,3.035.442l.682.391a4.878,4.878,0,0,0-3.035-.442Z" transform="translate(-216.154 -375.224)" fill="#e0e0e0"></path><path id="Path_570" data-name="Path 570" d="M299.977,402.887a9.831,9.831,0,0,0-2.436,2.082l-.631-.36a9.828,9.828,0,0,1,2.436-2.082l17.5-10.1.631.366Z" transform="translate(-243.113 -375.858)" fill="#e0e0e0"></path><path id="Path_571" data-name="Path 571" d="M297.541,401.437a9.788,9.788,0,0,0-2.43,2.082l-.631-.36a9.654,9.654,0,0,1,2.43-2.082l17.506-10.1.631.36Z" transform="translate(-242.216 -375.323)" fill="#e0e0e0"></path><path id="Path_572" data-name="Path 572" d="M295.107,400.027a9.943,9.943,0,0,0-2.436,2.082l-.631-.36a9.943,9.943,0,0,1,2.436-2.082l17.5-10.1.631.366Z" transform="translate(-241.316 -374.803)" fill="#e0e0e0"></path><path id="Path_573" data-name="Path 573" d="M292.671,398.627a9.656,9.656,0,0,0-2.43,2.082l-.631-.366a9.762,9.762,0,0,1,2.43-2.076l17.505-10.1.631.36Z" transform="translate(-240.419 -374.287)" fill="#e0e0e0"></path><path id="Path_574" data-name="Path 574" d="M290.207,397.216a9.945,9.945,0,0,0-2.436,2.083l-.631-.36a9.943,9.943,0,0,1,2.436-2.082l17.506-10.1.631.36Z" transform="translate(-239.508 -373.767)" fill="#e0e0e0"></path><path id="Path_575" data-name="Path 575" d="M287.8,395.817a9.655,9.655,0,0,0-2.43,2.082l-.631-.366a9.764,9.764,0,0,1,2.43-2.076l17.505-10.1.631.36Z" transform="translate(-238.622 -373.25)" fill="#e0e0e0"></path><path id="Path_576" data-name="Path 576" d="M285.371,394.406a9.808,9.808,0,0,0-2.43,2.082l-.631-.36a9.677,9.677,0,0,1,2.43-2.082l17.505-10.1.631.36Z" transform="translate(-237.726 -372.73)" fill="#e0e0e0"></path><path id="Path_577" data-name="Path 577" d="M282.931,393a9.76,9.76,0,0,0-2.43,2.076l-.631-.36a9.919,9.919,0,0,1,2.43-2.083l17.505-10.1.631.36Z" transform="translate(-236.826 -372.21)" fill="#e0e0e0"></path><path id="Path_578" data-name="Path 578" d="M280.5,391.6a9.675,9.675,0,0,0-2.43,2.083l-.631-.36a9.675,9.675,0,0,1,2.43-2.082l17.506-10.1.631.36Z" transform="translate(-235.929 -371.693)" fill="#e0e0e0"></path><path id="Path_579" data-name="Path 579" d="M278.067,390.193a9.786,9.786,0,0,0-2.436,2.076l-.631-.36a9.835,9.835,0,0,1,2.436-2.082l17.5-10.1.631.36Z" transform="translate(-235.029 -371.173)" fill="#e0e0e0"></path><path id="Path_580" data-name="Path 580" d="M275.631,388.787a9.789,9.789,0,0,0-2.43,2.083l-.631-.36a9.657,9.657,0,0,1,2.43-2.082l17.505-10.1.631.36Z" transform="translate(-234.132 -370.656)" fill="#e0e0e0"></path><path id="Path_581" data-name="Path 581" d="M273.207,387.377a9.945,9.945,0,0,0-2.436,2.082l-.631-.36a9.943,9.943,0,0,1,2.436-2.082l17.505-10.1.631.366Z" transform="translate(-233.236 -370.136)" fill="#e0e0e0"></path><path id="Path_582" data-name="Path 582" d="M270.761,385.977a9.656,9.656,0,0,0-2.43,2.083l-.631-.366a9.764,9.764,0,0,1,2.43-2.076l17.506-10.1.631.36Z" transform="translate(-232.336 -369.62)" fill="#e0e0e0"></path><path id="Path_583" data-name="Path 583" d="M268.327,384.567a9.943,9.943,0,0,0-2.436,2.082l-.631-.36a9.946,9.946,0,0,1,2.436-2.082l17.505-10.1.631.36Z" transform="translate(-231.435 -369.099)" fill="#e0e0e0"></path><path id="Path_584" data-name="Path 584" d="M265.891,383.167a9.66,9.66,0,0,0-2.43,2.082l-.631-.366a9.762,9.762,0,0,1,2.43-2.076l17.505-10.1.631.36Z" transform="translate(-230.539 -368.583)" fill="#e0e0e0"></path><path id="Path_585" data-name="Path 585" d="M263.461,381.757a9.808,9.808,0,0,0-2.43,2.082l-.631-.36a9.672,9.672,0,0,1,2.43-2.082l17.506-10.1.631.36Z" transform="translate(-229.642 -368.063)" fill="#e0e0e0"></path><path id="Path_586" data-name="Path 586" d="M261.027,380.357a9.675,9.675,0,0,0-2.436,2.076l-.631-.36A9.674,9.674,0,0,1,260.4,380l17.5-10.1.631.36Z" transform="translate(-228.742 -367.546)" fill="#e0e0e0"></path><path id="Path_587" data-name="Path 587" d="M330.68,397.659l4.089-2.164.006-.335Z" transform="translate(-255.572 -376.866)" fill="#e6e6e6"></path><path id="Path_588" data-name="Path 588" d="M333.178,397.456l-6.828,3.818,6.828-4.064Z" transform="translate(-253.974 -377.622)" fill="#e6e6e6"></path><path id="Path_589" data-name="Path 589" d="M225.54,394.121c3.692-1.95,8.633-4.38,11.239-4.884a6.048,6.048,0,0,1,4.184.328h0l29.843,17.228a4.84,4.84,0,0,0-3.035-.435S253,397.339,243.5,394.26a30.776,30.776,0,0,0-17.96-.139Z" transform="translate(-216.781 -374.609)" opacity="0.02"></path></g><path id="Path_590" data-name="Path 590" d="M103.869,225.534a39.492,39.492,0,0,1-2.455,6.828c-.631,1.35-1.47,3.49-3.023,3.382.107-.366.2-.726.278-1.066,0,0-.1-1.458-4.834-2.638s-5.989,0-5.989,0l-.208.789a23.44,23.44,0,0,1-2.436-.9c-1.1-.492-2.878-1.313-3.471-2.43a4.247,4.247,0,0,1-.391-1.338c-.158-.9-.322-1.8-.48-2.7a12.344,12.344,0,0,1-.284-3.786,2.877,2.877,0,0,1,1.294-2.253,3.262,3.262,0,0,1,1.451-.284c1.723-.082,3.906-.82,5.616-.984,1.6-.158,3.155-.53,4.739-.669a13.844,13.844,0,0,1,4.821.631C101.856,219.173,104.766,222.221,103.869,225.534Z" transform="translate(-49.049 -199.345)" fill="#455a64"></path><path id="Path_591" data-name="Path 591" d="M83.213,228.436c.284-3.256.391-8.1.391-8.1h0l-.278.057c-1.691.278-3.824,1.161-5.534,1.369a3.188,3.188,0,0,0-1.426.385,2.877,2.877,0,0,0-1.136,2.341,12.526,12.526,0,0,0,.549,3.786l.631,2.657a4.55,4.55,0,0,0,.48,1.313c.675,1.067,2.524,1.761,3.635,2.177a22.983,22.983,0,0,0,2.493.732l.158-.8a33.682,33.682,0,0,1,.038-5.919Z" transform="translate(-47.09 -200.405)" fill="#37474f"></path><path id="Path_592" data-name="Path 592" d="M69.753,239.872l-2.133-7.92,12.318-.322,2.65,7.308s-1.136,1.155-1.786,1.931a7.674,7.674,0,0,1-9.277,2.076,3.111,3.111,0,0,1-.921-.631Z" transform="translate(-44.283 -204.571)" fill="#ffa8a7"></path><path id="Path_593" data-name="Path 593" d="M30.709,194.61c-.259,2.423.069,7.5,3.218,10.45s10.6,6.885,13.65,8.652c3.95,2.284,6.6,7.156,6.6,7.156s1.893,2.234,7.263,1.42c3.786-.574,5.471-2.082,6-3.155,0,0,.151-1.754.265-2.745a33.3,33.3,0,0,0,.044-8.835Z" transform="translate(-30.639 -190.912)" fill="#455a64"></path><path id="Path_594" data-name="Path 594" d="M65.961,208.471c-3.111,2.316-8.349,2.878-14.413-.631s-14.2-7.213-17.36-9.643c-4.272-3.281-6.55-10.1,5.194-9.4,8.74.492,13.524,7.011,17.865,8.664S71.975,203.959,65.961,208.471Z" transform="translate(-30.671 -188.751)" fill="#37474f"></path><path id="Path_595" data-name="Path 595" d="M91.225,297.19c-6.942-3.256-8.715-4.455-10.469-7.421-3.035-5.162-6.525-29.817-10.356-48.736,1.83,2.108,11.769-.271,12.23-2.733,0,0,16.161,33.635,18.5,45.569,7.869,1.18,19.771,2.972,23.6,3.786,19,4.171,23.6,12.7,27.7,19.859l-13.208,13.334C126.141,313.49,98.129,300.44,91.225,297.19Z" transform="translate(-45.309 -207.031)" fill="#407bff"></path><path id="Path_596" data-name="Path 596" d="M91.225,297.19c-6.942-3.256-8.715-4.455-10.469-7.421-3.035-5.162-6.525-29.817-10.356-48.736,1.83,2.108,11.769-.271,12.23-2.733,0,0,16.161,33.635,18.5,45.569,7.869,1.18,19.771,2.972,23.6,3.786,19,4.171,23.6,12.7,27.7,19.859l-13.208,13.334C126.141,313.49,98.129,300.44,91.225,297.19Z" transform="translate(-45.309 -207.031)" opacity="0.4"></path><path id="Path_597" data-name="Path 597" d="M102.083,242.895c-.076.341-.17.7-.278,1.067-.631,2.467-1.332,5.295-1.344,5.509l-10.671-3.6,1.262-4.815.208-.789s1.262-1.18,5.989,0S102.083,242.895,102.083,242.895Z" transform="translate(-52.462 -207.562)" fill="#ffa8a7"></path><path id="Path_598" data-name="Path 598" d="M118.325,334.513c-21.557-7.383-46.439-20.257-51.223-26.631S80.55,248.348,80.55,248.348c1.489-1.407,12.034.839,11.845,3.786-1.035,14.912-.12,34.576-4.594,43.417a157.892,157.892,0,0,1,22.844,4.417c11.605-3.717,21.544,2.24,21.544,2.24Z" transform="translate(-43.797 -210.58)" fill="#407bff"></path><path id="Path_599" data-name="Path 599" d="M118.325,334.513c-21.557-7.383-46.439-20.257-51.223-26.631S80.55,248.348,80.55,248.348c1.489-1.407,12.034.839,11.845,3.786-1.035,14.912-.12,34.576-4.594,43.417a157.892,157.892,0,0,1,22.844,4.417c11.605-3.717,21.544,2.24,21.544,2.24Z" transform="translate(-43.797 -210.58)" opacity="0.3"></path><path id="Path_600" data-name="Path 600" d="M84.05,320.645c6.651.543,10.3-1.458,10.3-1.458A27.5,27.5,0,0,0,96.6,312C94.614,317.793,84.05,320.645,84.05,320.645Z" transform="translate(-50.345 -234.223)" opacity="0.05"></path><path id="Path_601" data-name="Path 601" d="M193.252,293.6c-7.4,3.029-10.457,3.856-14.009,5.68-3.957,2.032-5.149,4.815-7.825,8.715-2.587,2.72-5.231,3.906-6.727,3.553-2.581-.234-12.489,3.786-17.4,13.41-5.219,10.2-4.178,20.5-.783,26.189,7.869,2.442,17.209,5.68,32.9,4.544,7.163-.53,17.783-7.213,22.175-11.523,9.87-9.674,13.3-17.531,15.738-29.357C220.324,300.242,213.509,285.279,193.252,293.6Z" transform="translate(-72.341 -226.554)" fill="#455a64"></path><circle id="Ellipse_6" data-name="Ellipse 6" cx="14.634" cy="14.634" r="14.634" transform="translate(125.504 41.997) rotate(-28.63)" fill="#263238"></circle><path id="Path_602" data-name="Path 602" d="M226.6,286.42l-3.414,8.2c-.921,2.524-.227,7.295,5.913,9.624a6.942,6.942,0,0,0,6.853-.808l3.616-5.219Z" transform="translate(-101.555 -224.785)" fill="#ffa8a7"></path><path id="Path_603" data-name="Path 603" d="M222.24,276a34.906,34.906,0,0,0,1.565,5.749,5.932,5.932,0,0,0,4.323,3.155l.486-5.515Z" transform="translate(-101.329 -220.941)" fill="#263238"></path><path id="Path_604" data-name="Path 604" d="M224.944,252.311a5.2,5.2,0,0,0-4.417,1.262c-1.963,1.767-1.306,7.73.631,13.656l4.19.757Z" transform="translate(-100.259 -212.17)" fill="#263238"></path><path id="Path_605" data-name="Path 605" d="M220.509,268.256a3.658,3.658,0,0,0,.783.423,6.65,6.65,0,0,0,2.707.543,2.739,2.739,0,0,0,2.714-1.723l-.4,4.506-1.041,11.832a13.559,13.559,0,0,0,1.723-.164,34.85,34.85,0,0,0,4.884-1.174c1.5-.461,2.48-.865,2.48-.865a44.856,44.856,0,0,0,5.919,1.95h0a29.374,29.374,0,0,0,6.2.713c3.427-.3,5.743-2.852,7.011-6.462,2.026-5.806,2.96-10.532,2.3-22.245-.732-12.836-15.53-13.915-23.848-9.384s-5.509,15.341-5.509,15.341a10.422,10.422,0,0,0-1.893-4.007c-.978-1.155-4.9-1.893-6.822,1.559C215.94,262.28,218.142,266.684,220.509,268.256Z" transform="translate(-99.421 -209.051)" fill="#ffa8a7"></path><path id="Path_606" data-name="Path 606" d="M238.983,248.511a6.629,6.629,0,0,1-.2,1.42,2.533,2.533,0,0,1-.044.315,15.505,15.505,0,0,1-5.213,9.157,8.946,8.946,0,0,1-1.262.915c-.473.284-1.262.694-1.761.391s-.486-.77-.53-1.319a20.906,20.906,0,0,0-.316-2.455c-1.262-3.742-2.411-4.582-3.786-4.9.2-1.231.454-2.448.663-3.591s.423-2.215.631-3.319c.284-1.388-.3-2.751-.252-4.184a5.251,5.251,0,0,1,1.111-3.237,6.229,6.229,0,0,1,2.013-1.451c3.155-1.565,6.746-1.893,10.16-2.777,1.944-.48,3.837-1.13,5.749-1.691a6.979,6.979,0,0,1,3.957-.341c1.287.385,2.354,1.8,1.893,3.061a5.014,5.014,0,0,1,5.534-.3,4.329,4.329,0,0,1,2.253,4.556,5.477,5.477,0,0,1,3.547.694,3.117,3.117,0,0,1,1.458,3.155,4.2,4.2,0,0,1-1.357,2.045,18.729,18.729,0,0,1-6.071,3.42,26.2,26.2,0,0,1-7.573,1.679,26.541,26.541,0,0,1-10.6-1.237Z" transform="translate(-102.668 -204.439)" fill="#263238"></path><path id="Path_607" data-name="Path 607" d="M225.245,251.2l-4.935-3.054a2.821,2.821,0,0,1,3.95-1.035A3.061,3.061,0,0,1,225.245,251.2Z" transform="translate(-100.617 -210.128)" fill="#263238"></path><path id="Path_608" data-name="Path 608" d="M232.75,292.09s.675,4.032,2.133,6.159c.486.707,2.8,2.884,6.942,4.133l1.262-1.824-2.934-1.1a16.194,16.194,0,0,1-3.408-1.83A16.954,16.954,0,0,1,232.75,292.09Z" transform="translate(-105.207 -226.877)" fill="#f28f8f"></path><path id="Path_609" data-name="Path 609" d="M256.919,279.947a1.527,1.527,0,1,1-1.42-1.679,1.552,1.552,0,0,1,1.42,1.679Z" transform="translate(-113 -221.776)" fill="#263238"></path><path id="Path_610" data-name="Path 610" d="M254.633,271.141l-3.61.89a1.956,1.956,0,0,1,1.407-2.31,1.811,1.811,0,0,1,2.2,1.42Z" transform="translate(-111.932 -218.605)" fill="#263238"></path><path id="Path_611" data-name="Path 611" d="M254.758,295.47,258.147,297a1.824,1.824,0,0,1-2.43,1A1.944,1.944,0,0,1,254.758,295.47Z" transform="translate(-113.268 -228.124)" fill="#f28f8f"></path><path id="Path_612" data-name="Path 612" d="M275.872,271.127,272.49,269.5a1.8,1.8,0,0,1,2.448-.915A1.969,1.969,0,0,1,275.872,271.127Z" transform="translate(-119.869 -218.138)" fill="#263238"></path><path id="Path_613" data-name="Path 613" d="M273.589,279.173a1.527,1.527,0,1,1-1.42-1.685,1.552,1.552,0,0,1,1.42,1.685Z" transform="translate(-119.15 -221.489)" fill="#263238"></path><path id="Path_614" data-name="Path 614" d="M264.109,278.24l-1.439,9.125,5.585-.227Z" transform="translate(-116.245 -221.767)" fill="#f28f8f"></path><path id="Path_615" data-name="Path 615" d="M322.986,385.479c-.631-1.534-.423-4.07-1.413-6.31-.682-1.527-2.07-2.726-4.146-4.108L316,379.1l1.7.984c.631.947.877,2.625,1.767,4.253C320.96,387.012,323.573,386.842,322.986,385.479Z" transform="translate(-135.921 -257.488)" fill="#ffa8a7"></path><path id="Path_616" data-name="Path 616" d="M188.23,304.55c-9.952,2.417-11.99,6.942-16.054,21.456-2.619,9.384-7.106,30.423-7.573,34.563-.631,5.547-.562,6.02,4.992,9.788,5.162,3.5,33.017,19.014,39.34,21.172s13.915.783,13.915.783l-11.4-6.607s.959-.334,3.818-1.18,4.3-1.306,5.345-2.348.2-2.171-3.193-1.893-7.573-1.761-11.933-1.2l-22.472-18.515,7.074-30.6S196.138,308.885,188.23,304.55Z" transform="translate(-79.966 -231.474)" fill="#ffa8a7"></path><path id="Path_617" data-name="Path 617" d="M191.9,301.55c-10.2,2.682-14.514,6.121-16.761,12.495-2.215,6.247-6.191,25.741-6.191,25.741a21.466,21.466,0,0,0,9.321,4.91c6.165,1.653,10.185,0,10.185,0s5.5-20.036,6.544-24.611C197.871,307.6,191.9,301.55,191.9,301.55Z" transform="translate(-81.668 -230.367)" fill="#407bff"></path></g></g></g></g></svg> 